<svg width="205" height="56" viewBox="0 0 205 56" fill="none" xmlns="http://www.w3.org/2000/svg">
<g clip-path="url(#clip0_998_1275)">
<path fill-rule="evenodd" clip-rule="evenodd" d="M54.769 36.5162H60.1866L64.4352 18.8965H59.0176L54.769 36.5162Z" fill="#005B76"/>
<path fill-rule="evenodd" clip-rule="evenodd" d="M82.6011 36.5162H88.0186L92.2672 18.8965H86.8496L82.6011 36.5162Z" fill="#005B76"/>
<path fill-rule="evenodd" clip-rule="evenodd" d="M110.429 36.5162H115.847L120.095 18.8965H114.678L110.429 36.5162Z" fill="#005B76"/>
<path fill-rule="evenodd" clip-rule="evenodd" d="M77.542 24.9308H82.9652C83.6841 20.971 81.3801 18.9297 76.0644 18.9297C69.9166 18.9297 65.7388 22.2762 64.3377 28.0855C63.0668 33.3507 65.5803 36.5589 71.3658 36.5589C77.2136 36.5589 80.6697 34.5365 82.1472 30.0073H76.7098C75.954 32.0014 74.5275 33.0425 72.6056 33.0425C69.9817 33.0425 68.9542 31.193 69.7609 27.8496C70.6101 24.3615 72.5914 22.4398 75.2266 22.4398C76.8909 22.4398 77.675 23.2701 77.5504 24.9308" fill="#005B76"/>
<path fill-rule="evenodd" clip-rule="evenodd" d="M105.386 24.9308H110.809C111.528 20.971 109.224 18.9297 103.908 18.9297C97.7604 18.9297 93.5825 22.2762 92.1815 28.0855C90.9106 33.3507 93.424 36.5589 99.2096 36.5589C105.057 36.5589 108.513 34.5365 109.988 30.0073H104.545C103.789 32.0014 102.363 33.0425 100.441 33.0425C97.817 33.0425 96.7895 31.193 97.5962 27.8496C98.4453 24.3615 100.427 22.4398 103.062 22.4398C104.726 22.4398 105.51 23.2701 105.386 24.9308Z" fill="#005B76"/>
<path fill-rule="evenodd" clip-rule="evenodd" d="M30.904 17.9727C38.1614 9.98058 46.9359 7.90786 50.4344 13.3775C53.9329 18.8471 50.8703 29.8114 43.6129 37.8067C36.3555 45.8019 27.5782 47.8715 24.0825 42.4019C20.5869 36.9323 23.6466 25.9774 30.904 17.9727Z" fill="#F99D27"/>
<path fill-rule="evenodd" clip-rule="evenodd" d="M35.718 13.7074C34.8728 14.4067 34.0717 15.1697 33.3205 15.9908C26.9604 22.9513 24.3196 32.5192 27.4501 37.2968C30.6797 42.0808 38.506 40.3414 44.9652 33.274C48.4382 29.5217 50.7875 25.1184 51.7584 21.0421C52.0414 18.051 51.6593 15.3807 50.4365 13.374C47.6485 9.13418 41.679 9.46129 35.718 13.6885" fill="#B02A30"/>
<path fill-rule="evenodd" clip-rule="evenodd" d="M39.3102 41.7566C35.9136 44.5874 32.401 45.9965 28.9761 45.4083C30.414 45.4901 31.5745 43.7193 32.5255 41.3383C33.3789 39.1383 34.0515 36.8571 34.5352 34.5226C35.2117 31.1729 35.2626 28.7762 34.9201 28.2635C34.354 27.4111 33.0152 27.6344 31.5235 28.578C30.8102 29.0184 29.8592 28.7258 30.9829 27.213C32.1066 25.7001 36.6439 22.0107 38.2686 21.4383C40.0518 20.8658 42.0898 21.6459 41.4019 23.8192C40.9123 25.3919 34.6569 43.6344 39.313 41.7472L39.3102 41.7566ZM44.4277 13.4588C45.2769 14.4023 44.7589 16.4531 43.3182 18.0729C41.8775 19.6927 39.9725 20.2462 39.1545 19.331C38.2799 18.3874 38.7979 16.3178 40.2499 14.6854C41.702 13.053 43.6069 12.5561 44.4249 13.4682L44.4277 13.4588Z" fill="white"/>
<path fill-rule="evenodd" clip-rule="evenodd" d="M128.234 33.7329L129.474 28.5935H133.023C135.755 28.5935 136.966 29.1314 136.465 31.2135C136.004 33.1196 134.668 33.7297 132.2 33.7297H128.237L128.234 33.7329ZM131.158 21.6174H134.526C137.06 21.6174 138.234 21.957 137.807 23.7215C137.379 25.486 136.021 25.9232 133.403 25.9232H130.119L131.158 21.6174ZM124.144 36.5448H132.27C134.583 36.5448 136.304 36.3466 137.954 35.0759C139.06 34.246 139.863 33.0046 140.218 31.5752C140.804 29.1534 139.805 27.5367 137.323 27.1467C139.666 26.6561 141.141 25.2879 141.645 23.2057C142.033 21.5922 141.716 20.441 140.671 19.6579C139.822 19.0288 138.407 18.9219 136.488 18.9219H128.39L124.144 36.5448Z" fill="#005B76"/>
<path fill-rule="evenodd" clip-rule="evenodd" d="M150.408 30.8753L150.358 31.0986C150.137 32.1539 149.597 33.0928 148.828 33.7578C148.058 34.4227 147.106 34.7732 146.132 34.7503C144.654 34.7503 144.037 34.1212 144.32 32.9386C144.711 31.3251 145.984 30.8816 148.339 30.8816H150.408V30.8753ZM149.16 36.5556H152.421C152.533 35.6295 152.702 34.7131 152.928 33.813L154.114 28.8938C154.9 25.6385 153.451 23.9746 149.772 23.9746C146.228 23.9746 143.915 25.3459 143.205 27.6483H146.33C146.74 26.4971 147.64 25.9593 149.138 25.9593C150.81 25.9593 151.402 26.7896 150.975 28.5761L150.921 28.7963H149.203C144.357 28.7963 141.742 29.7745 140.994 32.8851C140.414 35.2818 141.775 36.8513 144.66 36.8513C146.431 36.885 148.149 36.1765 149.472 34.8666L149.16 36.5556Z" fill="#005B76"/>
<path fill-rule="evenodd" clip-rule="evenodd" d="M155.214 36.5524H158.498L160.015 30.2619C160.273 29.1769 160.84 28.2139 161.631 27.5166C162.422 26.8193 163.395 26.4252 164.405 26.3932C166.321 26.3932 166.989 27.6513 166.386 30.1392L164.841 36.5524H168.056L169.873 29.0038C170.641 25.8239 169.188 23.9871 165.996 23.9871C165.026 23.958 164.062 24.1616 163.17 24.5838C162.277 25.0061 161.477 25.6372 160.824 26.4341L161.218 24.2576H157.977C157.643 26.1909 157.42 27.3903 157.309 27.8558L155.214 36.543" fill="#005B76"/>
<path fill-rule="evenodd" clip-rule="evenodd" d="M170.949 36.5494H174.144L175.744 29.9192L180.046 36.5494H184.428L179.582 29.5261L186.157 24.2672H182.039L175.913 29.2115L178.393 18.9297H175.197L170.949 36.5494Z" fill="#005B76"/>
</g>
<rect x="1.46337" y="0.733392" width="202.533" height="54.5332" rx="20.8425" stroke="#F2BC11" stroke-opacity="0.4" stroke-width="1.46678"/>
<defs>
<clipPath id="clip0_998_1275">
<rect width="160.591" height="35.3684" fill="white" transform="translate(22.6362 10.3184)"/>
</clipPath>
</defs>
</svg>
