<svg width="179" height="56" viewBox="0 0 179 56" fill="none" xmlns="http://www.w3.org/2000/svg">
<g clip-path="url(#clip0_998_1243)">
<path fill-rule="evenodd" clip-rule="evenodd" d="M37.7762 47.3451C25.2696 47.3451 15.0737 38.7474 15.0737 28.1872C15.0737 17.627 25.2696 9.0293 37.7762 9.0293C50.2828 9.0293 60.5024 17.627 60.5024 28.1872C60.5024 38.7474 50.2828 47.3451 37.7762 47.3451Z" fill="#004A8F"/>
<path fill-rule="evenodd" clip-rule="evenodd" d="M52.3502 30.0527L54.8754 30.1695C53.3746 40.4961 43.3932 41.2438 38.3667 31.2443L39.0098 30.1695C44.2268 33.417 50.3254 34.6319 52.3502 30.0527Z" fill="white"/>
<path fill-rule="evenodd" clip-rule="evenodd" d="M35.1791 15.1101L40.2294 13.498L40.4438 41.6041L34.9409 43.4264L35.1791 15.1101Z" fill="#ED1C24"/>
<path fill-rule="evenodd" clip-rule="evenodd" d="M52.4731 26.3472H54.8553C53.9501 21.6746 51.5202 18.6608 46.8034 18.2402C42.8728 18.2402 39.6568 20.5766 36.7743 24.9455C34.9638 27.6556 32.01 31.9545 28.5081 32.4218C27.6755 32.6464 26.7935 32.6221 25.9751 32.3519C25.1567 32.0817 24.4392 31.578 23.9146 30.9054C23.3899 30.2327 23.0821 29.4217 23.0304 28.5763C22.9787 27.731 23.1856 26.8897 23.6246 26.1604C24.3533 25.2461 25.3115 24.5329 26.4055 24.0906C27.4995 23.6483 28.692 23.4921 29.866 23.6371C31.7125 23.7736 33.5038 24.3166 35.1067 25.2258V21.2307C34.2326 20.4088 33.2656 19.6877 32.2244 19.0813C30.8617 18.3641 29.2954 18.1095 27.7696 18.357C21.3377 19.7355 20.1704 24.8987 21.3615 31.7675C23.8628 39.711 31.6527 40.3186 36.1312 35.2254C39.2043 31.6041 46.8272 19.4551 52.4493 26.3472H52.4731Z" fill="white"/>
<path fill-rule="evenodd" clip-rule="evenodd" d="M86.7799 33.1686C87.6733 33.2703 88.5787 33.1864 89.4369 32.9224C90.2951 32.6583 91.087 32.22 91.7611 31.636C92.4352 31.052 92.9763 30.3355 93.3494 29.5328C93.7225 28.7302 93.9191 27.8594 93.9265 26.9773C93.9265 25.1184 93.1736 23.3356 91.8333 22.0212C90.4931 20.7067 88.6753 19.9683 86.7799 19.9683C84.8845 19.9683 83.0668 20.7067 81.7266 22.0212C80.3863 23.3356 79.6333 25.1184 79.6333 26.9773C79.6406 27.8594 79.8374 28.7302 80.2105 29.5328C80.5836 30.3355 81.1247 31.052 81.7988 31.636C82.4729 32.22 83.2648 32.6583 84.123 32.9224C84.9812 33.1864 85.8864 33.2703 86.7799 33.1686ZM86.7799 30.2716C84.8979 30.2716 84.0643 28.6361 84.0643 26.9773C84.0643 25.3185 84.8979 23.4962 86.7799 23.4962C88.6618 23.4962 89.5195 25.1316 89.5195 26.9773C89.5195 28.823 88.6618 30.2716 86.7799 30.2716ZM93.4977 23.8934H95.8799V28.566C95.8799 31.4397 96.9281 33.0985 100.644 33.0985C101.692 33.0985 102.336 32.8883 103.169 32.8883L102.955 30.2015C102.526 30.2015 102.121 30.4118 101.692 30.4118C100.43 30.4118 100.025 29.5941 100.025 28.0755V23.7532H102.955V20.8795H100.025V16.7676L96.0705 18.3797V21.0431H93.5454V23.9167L93.4977 23.8934ZM117.51 32.9583H121.727V26.9773H121.917L125.276 32.9583H130.327L125.705 26.3699L129.898 21.0197H125.372L122.013 25.9493H121.822V16.9078L117.51 18.3797V32.9817V32.9583ZM68.437 32.9583H72.6296V26.9773L75.9886 32.9583H81.015L76.608 26.3699L80.8007 21.0197H76.2983L72.7249 25.9493V16.9078L68.5322 18.1461V32.9583H68.437ZM116.081 32.9583C115.903 32.0109 115.831 31.0474 115.867 30.0847V25.5522C115.867 21.8374 113.151 20.5992 109.983 20.5992C108.353 20.5613 106.732 20.8474 105.218 21.4402V24.3139C106.459 23.7352 107.823 23.4549 109.196 23.4962C110.673 23.4962 111.936 23.8934 111.936 25.5522C111.319 25.3667 110.673 25.2953 110.03 25.3419C107.648 25.3419 103.551 25.7624 103.551 29.4538C103.551 32.1406 105.933 33.1686 108.148 33.1686C108.943 33.2146 109.735 33.0475 110.44 32.6852C111.145 32.323 111.737 31.7794 112.15 31.1127C112.15 31.7201 112.341 32.3275 112.341 32.9583H116.081ZM107.481 29.0567C107.481 28.0053 108.744 27.6082 110.197 27.6082H111.888C111.928 28.3145 111.688 29.0086 111.217 29.5445C110.746 30.0804 110.082 30.4164 109.363 30.4818C108.315 30.4818 107.481 29.8744 107.481 29.0567Z" fill="#ED1C24"/>
<path fill-rule="evenodd" clip-rule="evenodd" d="M131.8 17.5156C132.143 17.5209 132.478 17.6091 132.777 17.7726C133.095 17.9316 133.353 18.1851 133.515 18.4968C133.687 18.7881 133.777 19.1185 133.777 19.4548C133.777 19.7911 133.687 20.1214 133.515 20.4127C133.355 20.7175 133.106 20.9693 132.801 21.1369C132.493 21.3005 132.15 21.3886 131.8 21.3939C131.458 21.3886 131.123 21.3004 130.824 21.1369C130.518 20.9693 130.27 20.7175 130.109 20.4127C129.937 20.1214 129.847 19.7911 129.847 19.4548C129.847 19.1185 129.937 18.7881 130.109 18.4968C130.265 18.181 130.525 17.926 130.847 17.7726C131.138 17.6092 131.466 17.5208 131.8 17.5156ZM131.8 17.8427C131.517 17.8461 131.238 17.9183 130.99 18.0529C130.736 18.1845 130.529 18.3881 130.395 18.637C130.24 18.8828 130.158 19.1659 130.157 19.4548C130.157 19.7333 130.231 20.0069 130.371 20.2491C130.514 20.4972 130.722 20.7036 130.973 20.8473C131.224 20.9909 131.51 21.0667 131.8 21.0669C132.092 21.0664 132.378 20.9941 132.634 20.8566C132.889 20.7153 133.096 20.5042 133.23 20.2491C133.37 20.0069 133.444 19.7333 133.444 19.4548C133.441 19.1693 133.367 18.8887 133.23 18.637C133.086 18.3873 132.87 18.1843 132.61 18.0529C132.363 17.9154 132.084 17.843 131.8 17.8427ZM130.943 20.5294V18.3801H131.681H132.205C132.319 18.4223 132.418 18.4952 132.491 18.5904C132.572 18.6898 132.617 18.8134 132.617 18.9408C132.617 19.0682 132.572 19.1918 132.491 19.2913C132.367 19.404 132.207 19.4702 132.038 19.4781L132.229 19.595C132.347 19.7161 132.45 19.8493 132.539 19.9921L132.801 20.4127H132.372L132.181 20.0855C132.094 19.9017 131.973 19.7354 131.824 19.595C131.74 19.5646 131.647 19.5646 131.562 19.595H131.348V20.4828L130.943 20.5294ZM131.276 19.3613H131.8C131.933 19.3971 132.073 19.3971 132.205 19.3613C132.235 19.2861 132.235 19.2029 132.205 19.1277C132.223 19.0746 132.223 19.0172 132.205 18.9641C132.191 18.9363 132.17 18.9115 132.146 18.8914C132.121 18.8713 132.093 18.8564 132.062 18.8473H131.324V19.4781L131.276 19.3613Z" fill="#004A8F"/>
<path d="M73.7905 44.0794H72.6708L69.8121 40.8318L69.6216 40.5983V44.0794H68.8354V37.0704H69.6216V40.4113L69.8121 40.1777L72.5755 37.0704H73.576L70.4315 40.4815L73.7905 44.1728V44.0794ZM74.1716 41.743C74.1298 41.0111 74.3772 40.2915 74.8624 39.7338C75.1137 39.4865 75.4157 39.2941 75.7483 39.1693C76.0808 39.0445 76.4364 38.99 76.7919 39.0096C77.1231 38.9981 77.4531 39.0544 77.7607 39.1751C78.0684 39.2958 78.3469 39.4782 78.5786 39.7104C79.0336 40.2547 79.2632 40.947 79.2218 41.6496C79.2625 42.3602 79.0141 43.0576 78.531 43.5887C78.2955 43.8385 78.0072 44.0348 77.6863 44.1639C77.3653 44.2931 77.0194 44.3519 76.6728 44.3363C76.336 44.3481 76.0005 44.2896 75.6884 44.1648C75.3763 44.0399 75.0947 43.8515 74.8624 43.6121C74.3903 43.1024 74.1422 42.4309 74.1716 41.743ZM74.9577 41.743C74.9354 42.2661 75.1044 42.7798 75.4342 43.1915C75.5972 43.3659 75.7963 43.504 76.0181 43.5967C76.24 43.6893 76.4795 43.7344 76.7205 43.7289C76.959 43.7408 77.197 43.6986 77.416 43.6054C77.635 43.5122 77.8291 43.3705 77.983 43.1915C78.3118 42.7714 78.4727 42.248 78.4357 41.7196C78.4639 41.1851 78.3041 40.6572 77.983 40.2244C77.8279 40.0482 77.633 39.91 77.4138 39.8208C77.1946 39.7316 76.9573 39.6938 76.7205 39.7104C76.4795 39.7049 76.24 39.75 76.0181 39.8426C75.7963 39.9353 75.5972 40.0734 75.4342 40.2478C75.1047 40.6775 74.9364 41.2057 74.9577 41.743ZM82.9142 44.0794C82.6888 44.2014 82.4327 44.2582 82.1757 44.2429C81.2705 44.2429 80.8417 43.7523 80.8417 42.771V39.7104H79.9365V39.0562H80.8417V37.818L81.604 37.5611V39.0562H82.9142V39.7104H81.604V42.6309C81.5814 42.8939 81.6484 43.1569 81.7946 43.3785C81.8708 43.456 81.9641 43.5153 82.0674 43.5518C82.1707 43.5882 82.2811 43.6008 82.3902 43.5887C82.5796 43.6 82.7664 43.5417 82.9142 43.4251V44.0794ZM84.1769 39.4067C84.6938 39.077 85.2993 38.9061 85.9158 38.916C87.1069 38.916 87.7263 39.5469 87.7263 40.7852V44.0794H86.9401V43.2849C86.7893 43.5711 86.56 43.8103 86.278 43.9754C85.996 44.1405 85.6725 44.2251 85.3441 44.2195C85.1232 44.2333 84.9016 44.2031 84.6929 44.1308C84.4841 44.0586 84.2924 43.9457 84.1292 43.799C83.9846 43.6645 83.8715 43.5008 83.7975 43.3193C83.7235 43.1378 83.6903 42.9428 83.7004 42.7476C83.7004 41.8131 84.2483 41.2523 85.3918 41.0888L86.964 40.8786C86.964 39.9908 86.6066 39.5469 85.8681 39.5469C85.2499 39.5369 84.652 39.7632 84.2007 40.1777V39.4067H84.1769ZM85.6538 41.743C85.3264 41.7649 85.0122 41.8784 84.7486 42.0702C84.5794 42.2476 84.4854 42.4814 84.4854 42.7243C84.4854 42.9672 84.5794 43.2011 84.7486 43.3785C84.9563 43.5441 85.2198 43.6274 85.487 43.6121C85.6784 43.6167 85.8685 43.5817 86.0451 43.5093C86.2216 43.4368 86.3805 43.3285 86.5114 43.1915C86.7966 42.8954 86.9507 42.5007 86.9401 42.0935V41.5795L85.6538 41.743ZM93.5389 44.0794H92.4192L90.037 41.743V44.0794H89.251V36.6031H90.037V41.2757L92.2526 38.9394H93.2769L90.8947 41.2757L93.5151 43.8924L93.5389 44.0794ZM103.449 44.0794V39.4067C103.449 39.0329 103.449 38.5889 103.449 38.0282C103.409 38.2626 103.337 38.4907 103.234 38.7058L100.828 44.0794H100.471L97.9459 38.6123C97.8586 38.3836 97.7871 38.1495 97.7316 37.9114C97.7639 38.3626 97.7639 38.8154 97.7316 39.2665V44.0794H96.9693V37.0704H97.9936L100.376 42.0702C100.514 42.3422 100.634 42.6232 100.733 42.9112L101.09 42.0468L103.473 37.0704H104.473V44.0794H103.449ZM106.165 39.4067C106.69 39.0764 107.303 38.9057 107.927 38.916C109.118 38.916 109.738 39.5469 109.738 40.7852V44.0794H108.952V43.2849C108.805 43.5692 108.58 43.8075 108.302 43.9727C108.024 44.1379 107.704 44.2234 107.38 44.2195C107.159 44.2333 106.937 44.2031 106.728 44.1308C106.519 44.0586 106.328 43.9457 106.165 43.799C106.012 43.6698 105.891 43.5077 105.813 43.3253C105.734 43.1429 105.7 42.9452 105.712 42.7476C105.712 41.8131 106.284 41.2523 107.427 41.0888L108.999 40.8786C108.999 39.9908 108.618 39.5469 107.904 39.5469C107.28 39.5472 106.678 39.7717 106.212 40.1777V39.4067H106.165ZM107.665 41.743C107.332 41.7701 107.011 41.883 106.736 42.0702C106.643 42.1613 106.572 42.2712 106.526 42.3923C106.481 42.5133 106.463 42.6425 106.474 42.771C106.471 42.8871 106.494 43.0024 106.544 43.1078C106.594 43.2133 106.668 43.306 106.76 43.3785C106.968 43.5441 107.231 43.6274 107.499 43.6121C107.69 43.6167 107.88 43.5817 108.057 43.5093C108.233 43.4368 108.392 43.3285 108.523 43.1915C108.808 42.8954 108.962 42.5007 108.952 42.0935V41.5795L107.665 41.743ZM115.55 44.0794H114.788V41.159C114.788 40.0842 114.383 39.5469 113.549 39.5469C113.351 39.5478 113.155 39.5898 112.974 39.6704C112.794 39.7509 112.632 39.8681 112.501 40.0142C112.215 40.3452 112.069 40.7722 112.096 41.2057V44.0794H111.31V36.6031H112.096V39.874C112.26 39.5761 112.505 39.3286 112.803 39.1594C113.102 38.9903 113.443 38.906 113.788 38.916C114.955 38.916 115.527 39.5936 115.527 40.9954V44.0794H115.55ZM117.051 37.0704C117.048 36.9324 117.099 36.7986 117.194 36.6966C117.291 36.6079 117.419 36.5586 117.552 36.5586C117.684 36.5586 117.812 36.6079 117.909 36.6966C117.962 36.7436 118.005 36.8011 118.034 36.8656C118.062 36.9301 118.077 37 118.076 37.0704C118.078 37.1376 118.065 37.2045 118.036 37.2655C118.007 37.3264 117.963 37.3798 117.909 37.4209C117.862 37.4673 117.807 37.5037 117.745 37.5278C117.684 37.552 117.618 37.5633 117.552 37.5611C117.484 37.5685 117.416 37.5608 117.351 37.5388C117.287 37.5168 117.229 37.4808 117.181 37.4337C117.133 37.3866 117.096 37.3295 117.074 37.2666C117.051 37.2037 117.044 37.1366 117.051 37.0704ZM117.051 44.0794V39.0096H117.837V44.0794H117.051ZM123.793 44.0794H123.007V41.1823C123.007 40.0843 122.602 39.5469 121.792 39.5469C121.589 39.5444 121.389 39.5849 121.204 39.6655C121.019 39.7462 120.854 39.8652 120.72 40.0142C120.447 40.3436 120.303 40.758 120.315 41.1823V44.0794H119.529V39.0096H120.315V39.8506C120.478 39.5527 120.723 39.3054 121.022 39.1362C121.321 38.967 121.661 38.8827 122.006 38.8928C122.252 38.8806 122.497 38.9224 122.724 39.0154C122.95 39.1084 123.153 39.2502 123.316 39.4301C123.654 39.8818 123.814 40.4373 123.769 40.9954V44.0794H123.793ZM129.748 44.0794H128.962V43.2149C128.792 43.5308 128.533 43.7928 128.217 43.9706C127.901 44.1484 127.54 44.2347 127.176 44.2195C126.879 44.2305 126.585 44.1728 126.316 44.051C126.047 43.9292 125.811 43.7468 125.627 43.5187C125.211 42.9923 125 42.3379 125.032 41.6729C124.988 40.9447 125.226 40.2272 125.699 39.6637C125.903 39.4126 126.165 39.2122 126.463 39.0783C126.761 38.9444 127.086 38.8809 127.414 38.8928C127.727 38.8705 128.041 38.9381 128.316 39.0874C128.59 39.2368 128.815 39.4614 128.962 39.7338V36.6031H129.748V44.0794ZM128.962 41.0422C128.969 40.6425 128.815 40.2563 128.533 39.9674C128.397 39.831 128.234 39.7233 128.054 39.651C127.873 39.5787 127.68 39.5432 127.485 39.5469C127.248 39.5377 127.012 39.5837 126.797 39.6812C126.582 39.7787 126.393 39.9248 126.247 40.1076C125.94 40.5552 125.79 41.0879 125.818 41.6262C125.791 42.1281 125.943 42.6234 126.247 43.028C126.374 43.2002 126.543 43.3392 126.738 43.4328C126.934 43.5265 127.149 43.572 127.366 43.5654C127.585 43.5746 127.802 43.5327 128.001 43.4434C128.2 43.354 128.374 43.2197 128.51 43.0514C128.819 42.7119 128.981 42.2679 128.962 41.8132V41.0422ZM134.108 39.8038C133.927 39.6808 133.708 39.623 133.489 39.6403C133.304 39.6383 133.123 39.685 132.964 39.7755C132.805 39.8659 132.673 39.9968 132.583 40.1543C132.33 40.553 132.206 41.017 132.226 41.4861V44.0794H131.44V39.0096H132.226V40.0609C132.331 39.7385 132.519 39.4484 132.774 39.2198C132.999 39.0279 133.286 38.9203 133.584 38.916C133.749 38.8862 133.919 38.8862 134.084 38.916V39.7338L134.108 39.8038ZM135.132 39.3833C135.649 39.0536 136.255 38.8829 136.871 38.8928C138.086 38.8928 138.682 39.5236 138.682 40.7618V44.0794H137.896V43.2849C137.747 43.5729 137.518 43.8136 137.236 43.979C136.953 44.1444 136.628 44.2278 136.299 44.2195C135.854 44.2395 135.418 44.0887 135.085 43.799C134.94 43.6645 134.827 43.5008 134.753 43.3193C134.679 43.1378 134.646 42.9428 134.656 42.7476C134.656 41.8131 135.227 41.2523 136.347 41.0888L137.919 40.8786C137.919 39.9908 137.562 39.5469 136.847 39.5469C136.224 39.5472 135.622 39.7717 135.156 40.1777V39.4067L135.132 39.3833ZM136.633 41.7196C136.297 41.737 135.974 41.8508 135.704 42.0468C135.611 42.1379 135.539 42.2479 135.494 42.3689C135.449 42.4899 135.431 42.6192 135.442 42.7476C135.438 42.8637 135.462 42.979 135.512 43.0845C135.561 43.1899 135.635 43.2826 135.728 43.3551C135.928 43.5172 136.183 43.6004 136.442 43.5887C136.637 43.5937 136.831 43.559 137.012 43.4866C137.192 43.4142 137.355 43.3057 137.491 43.1682C137.759 42.8635 137.903 42.4726 137.896 42.0702V41.5561L136.633 41.7196ZM142.779 44.056V37.047H144.804C145.327 37.0178 145.843 37.1755 146.257 37.4909C146.433 37.637 146.574 37.8198 146.668 38.0259C146.763 38.2321 146.81 38.4564 146.805 38.6825C146.824 39.0533 146.705 39.4183 146.471 39.7104C146.252 40.0208 145.934 40.2508 145.566 40.3645C146.012 40.3855 146.432 40.5787 146.734 40.902C147.029 41.2294 147.183 41.6568 147.162 42.0935C147.173 42.3703 147.121 42.6458 147.01 42.9004C146.898 43.1549 146.731 43.3822 146.519 43.5654C146.045 43.95 145.443 44.1496 144.828 44.1261L142.779 44.056ZM143.565 37.6778V40.0142H144.447C144.847 40.035 145.243 39.9194 145.566 39.6871C145.704 39.5687 145.813 39.4207 145.883 39.2546C145.953 39.0884 145.983 38.9087 145.971 38.7292C145.971 38.0283 145.519 37.6778 144.566 37.6778H143.565ZM143.565 40.7384V43.3317H144.732C145.159 43.3565 145.581 43.2324 145.924 42.9814C146.065 42.8642 146.177 42.717 146.251 42.551C146.325 42.385 146.36 42.2045 146.352 42.0234C146.352 41.1589 145.733 40.7384 144.542 40.7384H143.565ZM148.663 39.3599C149.189 39.0297 149.802 38.8591 150.426 38.8694C151.617 38.8694 152.213 39.5002 152.213 40.7384V44.0794H151.45V43.2849C151.303 43.5692 151.078 43.8075 150.8 43.9727C150.522 44.1379 150.203 44.2234 149.878 44.2195C149.657 44.2333 149.436 44.2031 149.227 44.1308C149.018 44.0586 148.826 43.9457 148.663 43.799C148.51 43.6698 148.39 43.5077 148.311 43.3253C148.233 43.1429 148.198 42.9452 148.211 42.7476C148.211 41.8131 148.782 41.2523 149.926 41.0888L151.474 40.8786C151.474 39.9908 151.117 39.5469 150.402 39.5469C149.779 39.5472 149.177 39.7717 148.711 40.1777V39.4067L148.663 39.3599ZM150.164 41.6963C149.83 41.7234 149.51 41.8362 149.235 42.0234C149.142 42.1145 149.07 42.2245 149.025 42.3455C148.98 42.4666 148.962 42.5958 148.973 42.7243C148.969 42.8403 148.993 42.9556 149.043 43.0611C149.092 43.1665 149.166 43.2592 149.259 43.3317C149.466 43.4973 149.73 43.5807 149.997 43.5654C150.188 43.5701 150.379 43.535 150.555 43.4625C150.732 43.39 150.891 43.2817 151.022 43.1448C151.16 42.997 151.266 42.824 151.336 42.6356C151.405 42.4471 151.436 42.247 151.426 42.0468V41.5327L150.164 41.6963ZM158.049 44.0326H157.263V41.1356C157.263 40.0375 156.858 39.5001 156.048 39.5001C155.849 39.4963 155.651 39.5363 155.47 39.6172C155.288 39.698 155.128 39.8177 155 39.9674C154.708 40.2877 154.554 40.7064 154.571 41.1356V44.0794H153.809V39.0096H154.571V39.8506C154.74 39.5526 154.99 39.3058 155.292 39.1369C155.595 38.9681 155.938 38.8837 156.286 38.8928C156.529 38.8771 156.771 38.9175 156.995 39.0109C157.218 39.1042 157.416 39.2479 157.573 39.4301C157.91 39.8818 158.07 40.4373 158.025 40.9954V44.0794L158.049 44.0326ZM163.885 44.0326H162.766L160.384 41.6963V44.0326H159.597V36.6031H160.384V41.2757L162.599 38.9394H163.623L161.241 41.2757L163.885 43.8924V44.0326Z" fill="#003974"/>
</g>
<rect x="1.46337" y="0.733392" width="176.533" height="54.5332" rx="20.8425" stroke="#F2BC11" stroke-opacity="0.4" stroke-width="1.46678"/>
<defs>
<clipPath id="clip0_998_1243">
<rect width="148.912" height="38.3158" fill="white" transform="translate(15.0737 9.03125)"/>
</clipPath>
</defs>
</svg>
