<svg width="280" height="69" viewBox="0 0 280 69" fill="none" xmlns="http://www.w3.org/2000/svg">
<path d="M277.254 2.99379C276.256 2.20431 275.043 1.80566 273.814 1.80566C273.463 1.80566 273.111 1.83693 272.76 1.90728C271.18 2.0558 269.607 2.18868 268.019 2.32156C266.479 2.45444 264.922 2.57951 263.358 2.72802C261.243 2.92344 259.455 4.29135 258.736 6.20642C258.561 5.90939 258.353 5.62799 258.122 5.36222C257.076 4.19755 255.575 3.53314 254.003 3.53314C253.835 3.53314 253.676 3.54095 253.508 3.55659C250.164 3.85362 246.875 4.15065 243.563 4.4555C241.168 4.67436 239.197 6.39402 238.71 8.69992C238.702 8.739 238.694 8.7859 238.686 8.82498C238.239 8.23874 237.768 7.66812 237.265 7.14441C234.767 4.51021 231.271 2.99379 227.671 2.99379C227.583 2.99379 227.328 2.99379 227.288 3.00161C224.654 3.06414 221.988 3.86143 219.338 5.36222C219.147 4.88541 218.891 4.43986 218.564 4.02558C217.526 2.72802 215.938 1.97763 214.254 1.97763H213.887C213.679 1.97763 213.464 1.99326 213.256 2.01671C202.441 3.24392 191.442 4.43986 180.802 5.5889L180.18 5.65925C179.222 5.76087 178.336 6.11262 177.594 6.63633C176.596 5.27624 174.968 4.39296 173.14 4.39296C172.669 4.39296 172.262 4.4555 171.935 4.51803C168.303 4.88541 164.599 5.30751 161.399 5.6827C159.06 5.95629 157.16 7.66031 156.682 9.91931C156.506 10.7401 156.163 11.6311 155.756 12.6551C155.572 13.1319 155.381 13.6087 155.205 14.0934C154.973 14.6796 154.734 15.2659 154.503 15.8599C153.96 16.2195 153.433 16.5947 152.914 16.9933C153.273 15.3753 153.633 13.7573 153.992 12.1392C154.343 10.5525 153.936 8.90315 152.898 7.63686C151.861 6.37838 150.288 5.64362 148.636 5.64362C148.261 5.64362 147.902 5.67489 147.542 5.73742C142.785 5.97192 137.916 6.25332 132.936 6.55035C131.826 6.61288 130.797 7.00371 129.951 7.63686C129.113 7.16004 128.155 6.89428 127.173 6.89428C127.069 6.89428 126.973 6.89428 126.87 6.9021L110.164 7.80101C109.637 7.83227 109.126 7.93389 108.647 8.09804C108.536 7.92607 108.416 7.75411 108.28 7.58996C107.243 6.32367 105.67 5.58109 104.01 5.58109H103.707C103.579 5.58109 103.443 5.5889 103.316 5.59672C100.761 5.7765 98.1992 5.95629 95.5812 6.13607C93.7933 6.26113 92.2289 7.21476 91.319 8.63738C90.3053 7.45708 88.7887 6.72231 87.1285 6.72231C87.0008 6.72231 86.8651 6.73013 86.7295 6.73795L76.425 7.45708C76.1057 7.48053 75.7945 7.52742 75.4832 7.60559C75.2437 6.97245 74.8845 6.37838 74.4136 5.86249C73.376 4.73689 71.8994 4.09593 70.3509 4.09593H70.0476C69.8321 4.09593 69.6166 4.11156 69.4011 4.13501L61.6588 5.03393C59.2882 5.30751 57.3726 7.05843 56.9256 9.35651C55.0339 19.1195 53.0864 26.9283 50.8116 33.9085C50.7317 34.143 50.6519 34.3775 50.5801 34.612C51.4262 27.2722 52.9906 19.9637 54.4991 12.8896C54.8583 11.209 54.3714 9.45813 53.1981 8.18402C52.1764 7.04279 50.6918 6.40965 49.1593 6.40965C48.9598 6.40965 48.7682 6.41747 48.5687 6.44092L43.0613 7.01935C42.7181 6.12825 42.1434 5.32314 41.3532 4.70563C40.3634 3.93178 39.1582 3.53314 37.937 3.53314C37.5778 3.53314 37.2186 3.5644 36.8674 3.63475C33.7306 3.97087 30.5858 4.32261 27.441 4.66654C23.9051 5.05737 20.3691 5.44821 16.8093 5.83122C14.4706 6.08135 12.555 7.76192 12.0522 10.0131C8.39651 26.2795 4.61316 43.0852 0.837792 59.6095C0.454668 61.2979 0.917609 63.0566 2.09093 64.3464C3.13654 65.4954 4.62913 66.1442 6.17759 66.1442C6.36915 66.1442 6.56071 66.1364 6.75227 66.1129C8.51624 65.9332 10.2882 65.7377 12.0681 65.5345C13.8002 65.3391 15.5242 65.1515 17.2403 64.9717C19.6109 64.7294 21.5504 63.0097 22.0294 60.7273C22.7637 57.2567 23.482 53.7705 24.2004 50.2843C24.6474 48.0956 25.1023 45.907 25.5573 43.7183C25.7329 43.7027 25.9085 43.6793 26.0841 43.6636C27.0259 43.562 27.9598 43.4604 28.9016 43.3666C28.8218 45.6647 28.8617 48.0566 29.1411 50.4641C29.1411 50.4953 29.1491 50.5188 29.1491 50.5501C29.5242 53.3484 30.3623 57.4756 33.2996 60.9305C35.7899 63.8618 39.661 65.6127 43.6439 65.6127C43.7238 65.6127 44.051 65.6127 44.051 65.6127C48.6804 65.6127 53.3577 63.8539 57.2289 60.6648C58.7933 59.3985 60.1582 57.9837 61.3475 56.5376C61.1479 57.4287 60.9484 58.312 60.7488 59.2031C60.3737 60.8602 60.8207 62.5955 61.9541 63.8774C62.9997 65.0577 64.5162 65.7299 66.0966 65.7299C66.2323 65.7299 66.368 65.7221 66.5037 65.7143C69.8002 65.472 73.0328 65.2375 76.2654 64.9952C78.197 64.8545 79.8651 63.7289 80.7192 62.1108C81.7249 63.4866 83.3691 64.3542 85.173 64.3542C85.3007 64.3542 85.4205 64.3464 85.5482 64.3386L93.5299 63.7992C93.9769 63.768 94.4159 63.682 94.8309 63.5569C95.0385 64.0025 95.3019 64.4167 95.6371 64.7997C96.6827 65.9957 98.2072 66.6835 99.8036 66.6835C99.9073 66.6835 100.003 66.6836 100.107 66.6757L109.98 66.1364C111.106 66.0739 112.143 65.683 112.997 65.0499C113.835 65.5345 114.793 65.7925 115.775 65.7925C115.879 65.7925 115.983 65.7925 116.094 65.7846L125.545 65.2453C126.072 65.214 126.59 65.1124 127.069 64.9404C127.46 65.0264 127.867 65.0733 128.274 65.0733C128.378 65.0733 128.482 65.0733 128.586 65.0655L138.276 64.5262C138.611 64.5105 138.938 64.4558 139.257 64.3776C140.175 65.0108 141.277 65.3704 142.41 65.3704C142.634 65.3704 142.857 65.3547 143.081 65.3313C144.557 65.1515 146.058 64.9873 147.55 64.831C149.075 64.6669 150.599 64.5027 152.1 64.3229C154.119 64.0806 155.843 62.7596 156.562 60.8914C156.969 59.844 157.376 58.7731 157.783 57.7101C158.509 57.968 159.244 58.1869 159.986 58.3667C160.194 59.6252 160.856 60.782 161.87 61.6106C162.859 62.4235 164.113 62.869 165.398 62.869C165.621 62.869 165.845 62.8534 166.068 62.83C167.888 62.6111 169.7 62.4079 171.528 62.2046C173.188 62.017 174.856 61.8373 176.54 61.634C177.322 61.5402 178.041 61.2901 178.679 60.9149C178.903 61.3683 179.19 61.7904 179.541 62.1734C180.587 63.2911 182.056 63.9243 183.588 63.9243C183.788 63.9243 183.987 63.9165 184.195 63.893L192.424 62.9941C194.786 62.7362 196.71 61.0165 197.189 58.7341L198.434 52.7465C198.913 50.4484 199.392 48.1347 199.871 45.8132C200.03 48.5334 200.573 50.9956 201.499 53.153C202.976 56.6627 205.61 59.3281 208.898 60.6569C210.774 61.423 212.801 61.8138 214.948 61.8138C216.968 61.8138 219.035 61.4699 221.11 60.7742C223.617 59.9144 226.083 58.5152 228.613 56.5298C228.549 56.8503 228.477 57.1785 228.414 57.499C228.062 59.1718 228.549 60.9071 229.715 62.1734C230.76 63.3068 232.237 63.9477 233.777 63.9477C233.961 63.9477 234.144 63.9399 234.32 63.9243C235.837 63.7758 237.345 63.6429 238.862 63.51C240.394 63.3771 241.935 63.2364 243.467 63.0879C245.199 62.9159 246.7 61.9623 247.586 60.571C248.631 61.7356 250.132 62.4 251.704 62.4C251.888 62.4 252.072 62.3922 252.247 62.3766C253.756 62.2281 255.256 62.0952 256.765 61.9623C258.305 61.8294 259.846 61.6887 261.394 61.5402C263.677 61.3135 265.577 59.7268 266.151 57.5537C270.477 41.2561 274.812 24.8959 279.138 8.54358C279.656 6.48 278.93 4.3148 277.254 2.99379Z" fill="black"/>
<path d="M271.691 6.31593C271.691 6.30811 271.691 6.30811 271.691 6.30029C271.683 6.30029 271.675 6.30811 271.675 6.30811C271.563 6.35501 271.443 6.36283 271.331 6.36283C268.163 6.65986 264.994 6.90217 261.761 7.1992C260.117 13.7652 258.473 20.3937 256.821 26.9596C255.232 27.1081 253.644 27.2567 252.056 27.413C253.412 21.5193 254.769 15.6255 256.126 9.73179L251.928 8.02777C251.928 8.02777 251.92 8.05122 251.896 8.08248C251.896 8.0903 251.888 8.0903 251.888 8.09812C251.88 8.11375 251.864 8.1372 251.856 8.15283C251.864 8.11375 251.872 8.07467 251.88 8.03558C248.528 8.33261 245.239 8.62965 241.943 8.93449C241.168 12.5614 240.394 16.1961 239.62 19.823C239.58 19.6823 239.54 19.5338 239.5 19.3931C239.484 19.3462 239.476 19.2915 239.46 19.2446C239.42 19.1196 239.389 18.9945 239.349 18.8694C239.325 18.8069 239.309 18.7365 239.285 18.674C239.245 18.5568 239.213 18.4395 239.173 18.3301C239.149 18.2519 239.125 18.1816 239.101 18.1034C239.061 17.994 239.029 17.8845 238.989 17.7751C238.958 17.6969 238.934 17.6109 238.902 17.5328C238.862 17.4312 238.822 17.3217 238.782 17.2201C238.75 17.1341 238.718 17.0481 238.686 16.97C238.646 16.8684 238.606 16.7668 238.566 16.673C238.534 16.587 238.495 16.501 238.455 16.415C238.415 16.3212 238.375 16.2196 238.327 16.1258C238.287 16.0398 238.247 15.946 238.207 15.86C238.167 15.7662 238.119 15.6724 238.08 15.5864C238.04 15.5005 237.992 15.4067 237.944 15.3207C237.896 15.2347 237.856 15.1409 237.808 15.0549C237.76 14.9611 237.712 14.8751 237.664 14.7813C237.617 14.6953 237.569 14.6094 237.521 14.5312C237.465 14.4374 237.417 14.3514 237.361 14.2576C237.313 14.1794 237.265 14.0935 237.217 14.0153C237.162 13.9215 237.098 13.8355 237.042 13.7417C236.994 13.6636 236.946 13.5854 236.89 13.515C236.826 13.4212 236.763 13.3353 236.699 13.2415C236.651 13.1711 236.595 13.1008 236.547 13.0304C236.475 12.9366 236.403 12.8428 236.332 12.749C236.284 12.6865 236.236 12.6161 236.18 12.5536C236.1 12.452 236.012 12.3504 235.924 12.2487C235.885 12.194 235.837 12.1471 235.797 12.0924C235.661 11.9439 235.525 11.7954 235.39 11.6469C235.302 11.5531 235.214 11.4671 235.126 11.3811C235.094 11.3498 235.062 11.3264 235.031 11.2951C234.967 11.2404 234.911 11.1857 234.847 11.131C234.807 11.0997 234.767 11.0606 234.727 11.0293C234.671 10.9824 234.615 10.9355 234.552 10.8887C234.504 10.8574 234.464 10.8183 234.416 10.787C234.36 10.748 234.304 10.7011 234.248 10.662C234.2 10.6307 234.153 10.5916 234.105 10.5604C234.049 10.5213 233.993 10.49 233.937 10.4509C233.881 10.4197 233.833 10.3806 233.777 10.3493C233.721 10.318 233.674 10.2868 233.618 10.2555C233.562 10.2242 233.506 10.193 233.45 10.1539C233.402 10.1304 233.354 10.0992 233.298 10.0757C233.235 10.0445 233.171 10.0054 233.107 9.97411C233.099 9.97411 233.099 9.96629 233.091 9.96629C232.907 9.87249 232.716 9.79432 232.516 9.71616C232.492 9.70834 232.468 9.69271 232.436 9.68489C232.357 9.65362 232.269 9.62236 232.189 9.59891C232.157 9.58327 232.117 9.57546 232.085 9.55982C232.005 9.53637 231.918 9.51292 231.838 9.48166C231.798 9.47384 231.766 9.45821 231.726 9.45039C231.646 9.42694 231.558 9.40349 231.471 9.38786C231.431 9.38004 231.399 9.37223 231.359 9.36441C231.271 9.34878 231.183 9.32533 231.095 9.30969C231.064 9.30188 231.024 9.30188 230.992 9.29406C230.904 9.27843 230.808 9.26279 230.72 9.25498C230.696 9.25498 230.664 9.24716 230.641 9.24716C230.545 9.23153 230.441 9.22371 230.345 9.21589C228.956 8.10593 227.176 7.44934 225.349 7.49624H225.285C222.723 7.55877 220.288 8.7469 218.213 10.2399C217.119 11.0762 216.098 12.0142 215.156 13.0148C215.555 11.3967 215.962 9.77869 216.361 8.16065L212.171 6.51916L212.099 6.55824C212.107 6.52698 212.115 6.49571 212.123 6.46444C212.003 6.46444 211.875 6.46444 211.756 6.46444C200.725 7.7151 189.686 8.91104 178.655 10.107C178.105 12.7334 177.618 15.4223 177.131 18.0487C177.179 18.0409 177.227 18.033 177.283 18.033L181.369 19.7449C184.131 19.401 186.901 19.057 189.662 18.7131C188.257 25.8966 186.717 33.0722 185.176 40.2557C183.955 46.0478 182.678 51.8399 181.457 57.6868C181.481 57.6868 181.505 57.679 181.529 57.679L181.465 57.7337L185.703 59.3283C185.703 59.3439 185.695 59.3595 185.695 59.383C188.441 59.0859 191.179 58.7889 193.924 58.4841C196.79 44.6955 199.655 30.8445 202.577 17.056C204.101 16.8449 205.634 16.6495 207.166 16.4541C209.066 16.2118 210.973 15.9695 212.889 15.7193H212.897C212.777 15.8835 212.65 16.0476 212.538 16.2118C209.736 20.0341 207.597 24.2707 206.017 28.6871C204.492 32.869 203.455 37.1603 203.215 41.5845C203.032 44.5079 203.279 47.5564 204.436 50.2375C205.29 52.2698 206.815 53.9973 208.89 54.8337C209.672 55.1542 210.487 55.3574 211.317 55.4747C211.452 55.5763 211.588 55.6779 211.732 55.7795C211.748 55.7873 211.764 55.7951 211.772 55.8108C211.891 55.8889 212.011 55.9671 212.131 56.0375C212.171 56.0609 212.203 56.0844 212.243 56.1C212.346 56.1625 212.458 56.2172 212.562 56.272C212.602 56.2954 212.642 56.311 212.682 56.3345C212.825 56.4048 212.977 56.4752 213.129 56.5299C215.747 57.6008 218.74 57.4288 221.422 56.5299C224.04 55.631 226.362 54.0208 228.43 52.2308C228.717 51.9728 229.004 51.7149 229.284 51.4491C229.387 51.3475 229.491 51.2459 229.595 51.1521C229.771 50.9879 229.938 50.816 230.106 50.644C230.233 50.5111 230.361 50.3782 230.489 50.2453C230.625 50.1046 230.76 49.9639 230.888 49.8232C231.032 49.6669 231.175 49.5106 231.319 49.3542C231.423 49.237 231.526 49.1276 231.622 49.0103C231.79 48.8227 231.95 48.6429 232.109 48.4475C232.157 48.3928 232.205 48.3303 232.253 48.2756C232.899 47.5017 233.522 46.7044 234.105 45.8837C233.282 49.8076 232.46 53.7316 231.638 57.6555L231.566 57.7258L235.869 59.383C238.918 59.0859 241.967 58.8436 245.016 58.5466C246.66 51.2068 248.304 43.8044 249.956 36.4568C251.489 36.3708 253.021 36.277 254.546 36.1911C252.886 42.8195 251.217 49.448 249.557 56.1313L253.796 57.8275C256.845 57.5304 259.894 57.2881 262.943 56.9911C267.269 40.6934 271.595 24.3411 275.929 7.98087L271.691 6.31593ZM225.995 38.2859V38.3172C223.992 41.053 221.797 43.8513 219.059 45.9384C218.724 46.1807 218.373 46.4308 217.997 46.6419C217.271 44.5939 217.383 42.3271 217.503 40.1775C217.926 35.9956 219.027 31.8763 220.671 27.9367C221.765 25.2478 223.17 22.6214 225.117 20.4171C225.253 20.2686 225.397 20.1201 225.54 19.9716C225.572 19.9403 225.604 19.909 225.636 19.8778C225.756 19.7605 225.875 19.6433 225.995 19.526C226.027 19.5026 226.051 19.4713 226.083 19.4479C226.219 19.3306 226.354 19.2134 226.49 19.0961C226.514 19.0805 226.53 19.0648 226.554 19.0492C226.714 18.9241 226.881 18.7991 227.049 18.6818C227.208 19.143 227.336 19.6198 227.464 20.0966C227.767 21.2926 227.887 22.4807 227.951 23.6766C227.967 23.6688 227.983 23.6532 227.999 23.6454L227.983 23.6688L232.197 25.3728C234.599 23.7704 237.05 22.1602 239.46 20.5578C237.792 28.3979 236.14 36.2458 234.488 44.1015C233.698 43.3354 232.915 42.5772 232.125 41.8268C231.495 41.225 230.872 40.6231 230.241 40.0056L225.995 38.2859Z" fill="black"/>
<path d="M72.3704 12.069C72.3704 11.4749 72.4342 10.8731 72.4901 10.279L68.2518 8.59061V8.5828C68.1879 8.5828 68.0682 8.5828 67.9485 8.5828C65.3863 8.87983 62.7683 9.17686 60.2062 9.48171C58.5619 17.9549 56.6064 26.4359 53.9245 34.6747C52.831 38.0202 51.546 41.4204 49.9017 44.5236C49.1355 45.8524 48.3054 47.1734 47.156 48.2912C47.1001 48.0723 47.0522 47.8535 47.0123 47.6346C47.0043 47.5955 47.0043 47.5642 46.9964 47.5252C46.9644 47.3454 46.9405 47.1656 46.9165 46.9858C46.9086 46.9311 46.9006 46.8686 46.8926 46.8139C46.8686 46.6419 46.8527 46.4777 46.8367 46.3058C46.8287 46.2511 46.8287 46.1963 46.8208 46.1416C46.8048 45.9306 46.7808 45.7195 46.7649 45.5085C46.5175 42.0457 46.8846 38.5204 47.2518 35.0029C48.1058 27.4834 49.6862 20.0185 51.2746 12.6162L47.0283 10.9121L47.0203 10.92C44.5539 11.1857 42.0477 11.4437 39.5733 11.7094C39.733 11.0607 39.9006 10.4041 40.0602 9.75529L35.8219 8.05908H35.8139C35.6942 8.12161 35.5665 8.12162 35.4468 8.12162C28.7421 8.84074 22.0374 9.61459 15.2689 10.3337C11.5653 26.8424 7.84585 43.3824 4.0625 59.9145C4.08645 59.9145 4.10241 59.9067 4.12635 59.9067L8.30081 61.6107C11.7729 61.2511 15.3088 60.8369 18.7888 60.4773C20.2495 53.5518 21.6543 46.5715 23.1149 39.646C26.1001 39.349 29.0853 38.9894 32.0785 38.6924C32.3658 37.5824 32.6531 36.4725 32.9325 35.3703C32.3179 39.8805 31.9507 44.4923 32.4696 48.9947C32.8367 51.7383 33.5631 54.4898 35.3989 56.6393C36.6999 58.1714 38.6634 59.125 40.6908 59.3439C41.0579 59.6331 41.449 59.8832 41.8561 60.1021C41.8641 60.1099 41.8801 60.1099 41.888 60.1177C42.2871 60.3288 42.7102 60.5086 43.1412 60.6493C43.1651 60.6571 43.1811 60.6649 43.205 60.6727C43.4125 60.7431 43.6281 60.7978 43.8356 60.8525C43.8595 60.8603 43.8835 60.8603 43.9074 60.8681C44.107 60.915 44.3065 60.9541 44.506 60.9854C44.53 60.9932 44.5539 60.9932 44.5779 61.001C44.7854 61.0323 44.9929 61.0557 45.2005 61.0714C45.2483 61.0714 45.2883 61.0792 45.3361 61.0792C45.5437 61.087 45.7592 61.0948 45.9667 61.0948C49.5665 61.1573 53.1024 59.6644 55.8401 57.3975C59.3122 54.5914 61.7546 50.7691 63.766 46.8295C66.384 41.4595 68.156 35.6674 69.4969 29.8127C70.9017 23.9424 71.8196 18.0331 72.3704 12.069ZM33.9063 29.7267C33.8983 29.7267 33.8903 29.7267 33.8823 29.7267L33.9143 29.6877C33.9063 29.7033 33.9063 29.7111 33.9063 29.7267ZM33.9222 29.6329L30.1628 28.0227C30.1628 28.0227 30.1469 28.0462 30.1229 28.0931C30.1309 28.054 30.1469 28.0149 30.1549 27.9758C28.798 28.1165 27.4331 28.2494 26.0602 28.3979C26.3795 26.9753 26.6908 25.5605 27.0021 24.1457C27.034 23.9972 27.0659 23.8565 27.0978 23.7079C27.3932 22.34 27.6965 20.9643 27.9918 19.5886C30.8333 19.2759 33.6748 18.9711 36.5083 18.6584C35.5106 22.2931 34.6406 25.9513 33.9222 29.6329Z" fill="black"/>
<path d="M101.895 10.0991L101.887 10.107C101.887 10.0913 101.895 10.0835 101.895 10.0679C101.775 10.0679 101.648 10.0679 101.592 10.0679C99.0297 10.2477 96.4755 10.4274 93.8495 10.6072C92.9077 15.1018 91.9419 19.5963 90.9681 24.0831C90.9601 24.0284 90.9521 23.9658 90.9441 23.9111C90.3854 20.2451 89.9704 18.8381 89.4037 15.1565L85.0137 11.2247C85.0137 11.2169 85.0137 11.2091 85.0137 11.2013C81.5975 11.4436 78.1254 11.6781 74.7093 11.9204C71.1175 27.8038 67.5815 43.6168 63.9818 59.5002C64.0057 59.5002 64.0297 59.5002 64.0536 59.4924L63.9658 59.5314L68.2201 61.1964C71.5086 60.9541 74.7412 60.7196 77.9738 60.4773C78.4447 58.3902 78.9156 56.311 79.3866 54.2318C79.4823 53.8175 79.5781 53.3954 79.6739 52.9811C80.089 51.1598 80.512 49.3386 80.935 47.5251C81.6454 51.0582 82.3558 54.5913 83.0582 58.1245L83.0502 58.1323L87.2965 59.8285C89.9783 59.6487 92.5964 59.4689 95.2782 59.2891C98.878 43.4683 102.023 29.7267 105.615 13.9058L101.895 10.0991Z" fill="black"/>
<path d="M124.955 11.4201C119.407 11.7171 113.796 12.0142 108.249 12.319C104.713 28.3744 101.249 44.3906 97.7129 60.446C97.7448 60.446 101.823 62.1891 101.823 62.1891C105.112 62.0093 107.443 61.4934 110.731 61.3136C111.426 58.1088 115.161 40.0055 115.855 36.8085C115.863 36.785 113.644 58.5856 113.557 61.0869L124.164 60.3913L132.569 30.7193L133.966 34.2994L133.926 39.13C133.926 39.13 132.529 42.7101 132.37 43.1243C132.218 43.5464 130.31 48.4162 130.31 48.4162L126.152 58.8436L129.536 60.8915L137.909 60.7977C141.445 44.7424 145.34 29.1795 148.876 13.1241L146.489 10.1851L146.354 10.4118C146.37 10.3258 146.394 10.2476 146.41 10.1616C146.346 10.1616 146.226 10.1616 146.106 10.2242C141.11 10.4665 136.329 10.7166 131.324 11.0214C130.558 13.4133 126.559 27.9601 125.801 30.3598C125.944 28.6479 128.036 15.219 128.179 13.5071L124.955 11.4201Z" fill="black"/>
<path d="M171.025 8.92679C171.017 8.91115 171.017 8.89552 171.017 8.87207C170.953 8.87207 170.833 8.9346 170.769 8.9346C167.169 9.29417 163.514 9.70845 159.922 10.1305C159.555 11.858 158.829 13.4135 158.214 15.0863C154.255 25.1775 150.168 35.1437 146.082 45.1099C144.134 49.8233 142.242 54.482 140.295 59.1407C140.359 59.1329 140.415 59.1251 140.479 59.1173L144.533 60.8369C147.518 60.4773 150.567 60.1803 153.553 59.8208C154.957 56.1782 156.354 52.5357 157.695 48.8931C158.517 48.7993 159.355 48.6977 160.185 48.5961C161.095 48.4867 162.005 48.3694 162.923 48.26C163.019 51.0505 163.131 53.841 163.274 56.6316C163.282 56.6316 163.29 56.6316 163.29 56.6316L167.513 58.3278C170.985 57.9135 174.465 57.5539 178.001 57.1318C177.083 41.608 176.269 28.1791 175.351 12.6553L171.025 8.92679ZM163.642 37.6528C163.059 37.7154 162.484 37.7701 161.91 37.8326C162.46 36.496 163.003 35.1672 163.546 33.8305C163.578 35.1046 163.61 36.3787 163.642 37.6528Z" fill="black"/>
<path d="M23.7535 17.8924C27.042 17.5328 30.3384 17.1733 33.6269 16.8215C34.3612 13.8981 35.0876 10.9747 35.8219 8.04346C35.7022 8.10599 35.5745 8.10599 35.4548 8.10599C28.7501 8.82512 22.0454 9.59896 15.2769 10.3181C11.5654 26.8424 7.84585 43.3824 4.0625 59.9145C7.53456 59.555 11.0705 59.1407 14.5505 58.7811C16.0112 51.8556 17.416 44.8754 18.8766 37.9498C21.8618 37.6528 24.847 37.2932 27.8402 36.9962C28.6303 33.9555 29.3647 30.9696 30.1549 27.9836C27.2256 28.2807 24.2404 28.5777 21.3191 28.9373C22.1651 25.2322 22.9633 21.5897 23.7535 17.8924Z" fill="white"/>
<path d="M68.1322 10.3725C68.1322 9.77846 68.1961 9.17658 68.2519 8.58252C68.1881 8.58252 68.0684 8.58252 67.9486 8.58252C65.3865 8.87955 62.7685 9.17658 60.2063 9.48143C58.5621 17.9547 56.6066 26.4357 53.9247 34.6744C52.8312 38.0199 51.5461 41.4202 49.9019 44.5234C49.1117 45.8991 48.2577 47.267 47.0364 48.4004C46.4857 48.8772 45.8791 49.2993 45.0889 49.354C44.2987 49.354 43.748 48.76 43.5005 48.1034C42.7662 46.7902 42.6465 45.2972 42.5268 43.8042C42.2793 40.3415 42.6465 36.824 43.0136 33.2987C43.8677 25.7791 45.4481 18.3142 47.0364 10.9119C44.2349 11.2089 41.3694 11.5059 38.5598 11.8108C36.1254 19.3304 34.2337 26.975 33.0125 34.7369C32.342 39.4504 31.919 44.2889 32.4618 49.0023C32.8289 51.7459 33.5553 54.4974 35.3911 56.6469C36.9156 58.4369 39.35 59.4531 41.7286 59.3906C45.3284 59.4531 48.8643 57.9601 51.602 55.6855C55.0741 52.8793 57.5165 49.057 59.5279 45.1174C62.1459 39.7474 63.9179 33.9553 65.2588 28.1006C66.6636 22.246 67.5815 16.3366 68.1322 10.3725Z" fill="white"/>
<path d="M101.591 10.0679C99.0293 10.2477 96.4752 10.4274 93.8492 10.6072C92.1411 18.7287 90.3771 26.8423 88.6052 34.9013C87.4478 27.0221 86.2266 19.143 85.0054 11.2013C81.5892 11.4436 78.1171 11.6781 74.7009 11.9204C71.1171 27.8038 67.5812 43.6168 63.9814 59.5002C67.2699 59.2578 70.5025 59.0234 73.7352 58.781C75.3794 51.4412 77.0875 44.1561 78.7956 36.8163C80.2004 43.9216 81.661 51.0269 83.0658 58.1244C85.7477 57.9447 88.3657 57.7649 91.0476 57.5851C94.6474 41.7643 98.303 25.8887 101.895 10.0679C101.775 10.0679 101.655 10.0679 101.591 10.0679Z" fill="white"/>
<path d="M146.209 10.1929C141.213 10.4352 136.152 10.7323 131.156 11.0293C128.41 19.6276 125.672 28.2806 122.99 36.9336C123.661 28.3978 124.331 19.8621 125.066 11.381C119.518 11.6781 113.907 11.9751 108.36 12.2799C104.824 28.3353 101.232 44.3985 97.6963 60.4538C100.985 60.274 104.281 60.0942 107.57 59.9145C109.948 48.9868 112.327 38.1295 114.642 27.2644C114.338 38.0123 114.035 48.7523 113.668 59.5627C116.837 59.3829 119.949 59.2031 123.118 59.0234C126.287 49.831 129.456 40.6387 132.624 31.501C130.493 40.5761 128.354 49.7059 126.159 58.8436C129.392 58.6638 132.624 58.484 135.849 58.3042C139.385 42.2489 142.977 26.1857 146.513 10.1304C146.457 10.1304 146.329 10.1304 146.209 10.1929Z" fill="url(#paint0_linear_798_111)"/>
<path d="M170.777 8.9346C167.177 9.29417 163.522 9.70845 159.93 10.1305C159.563 11.858 158.836 13.4135 158.222 15.0863C154.263 25.1775 150.176 35.1437 146.09 45.1099C144.142 49.8233 142.25 54.482 140.303 59.1408C143.288 58.7812 146.337 58.4842 149.322 58.1246C150.727 54.482 152.124 50.8395 153.465 47.197C156.57 46.8374 159.746 46.4231 162.851 46.0635C162.971 49.5888 163.099 53.1063 163.274 56.6316C166.746 56.2173 170.226 55.8578 173.762 55.4357C172.844 39.9119 171.934 24.3959 171.017 8.87207C170.961 8.87989 170.833 8.9346 170.777 8.9346ZM156.753 38.3642C158.948 33.0489 161.079 27.7414 163.274 22.4886C163.394 27.5069 163.522 32.5799 163.641 37.6529C161.327 37.8874 159.068 38.1297 156.753 38.3642Z" fill="url(#paint1_linear_798_111)"/>
<path d="M212.123 6.47217C212.003 6.47217 211.875 6.47217 211.756 6.47217C200.725 7.72283 189.686 8.91877 178.655 10.1147C178.105 12.7411 177.618 15.43 177.131 18.0564C181.457 17.517 185.783 16.9855 190.117 16.4462C188.593 24.3878 186.885 32.3217 185.176 40.2634C183.955 46.0555 182.678 51.8476 181.457 57.6944C184.203 57.3974 186.94 57.1004 189.686 56.7955C192.552 43.007 195.417 29.156 198.338 15.3675C202.297 14.8281 206.264 14.3513 210.287 13.812C210.91 11.3654 211.516 8.91877 212.123 6.47217Z" fill="url(#paint2_linear_798_111)"/>
<path d="M219.067 45.9382C218.149 46.5948 217.119 47.3139 215.898 47.1889C214.805 47.0091 214.134 46.0555 213.823 45.1018C213.033 43.0148 213.152 40.6854 213.272 38.4733C213.695 34.2914 214.797 30.1721 216.441 26.2325C217.534 23.5436 218.939 20.9172 220.887 18.7129C221.86 17.642 222.962 16.6806 224.359 16.1491C225.029 15.9693 225.7 16.3914 226.123 16.8682C226.857 17.8218 227.16 18.9552 227.464 20.0886C227.767 21.2846 227.887 22.4727 227.95 23.6686C230.449 21.9959 233.011 20.3231 235.509 18.6582C234.719 15.4925 233.434 12.3267 231.119 9.94266C229.659 8.38716 227.519 7.43353 225.332 7.49606H225.269C222.706 7.5586 220.272 8.74672 218.197 10.2397C216.002 11.9125 214.11 13.9995 212.53 16.2116C209.728 20.0339 207.589 24.2705 206.009 28.6869C204.484 32.8688 203.446 37.1601 203.207 41.5843C203.023 44.5078 203.271 47.5562 204.428 50.2373C205.282 52.2697 206.807 53.9971 208.882 54.8335C211.5 55.9044 214.493 55.7324 217.175 54.8335C219.793 53.9346 222.116 52.3244 224.183 50.5344C226.681 48.3223 228.94 45.6959 230.768 42.8897C229.18 41.3342 227.599 39.8491 226.011 38.2935C224.007 41.045 221.813 43.8512 219.067 45.9382Z" fill="url(#paint3_linear_798_111)"/>
<path d="M271.332 6.36283C268.163 6.65986 264.994 6.90217 261.762 7.1992C260.117 13.7652 258.473 20.3936 256.821 26.9596C253.652 27.2566 250.483 27.5537 247.315 27.9132C248.839 21.2847 250.364 14.6641 251.888 8.03558C248.536 8.33261 245.247 8.62964 241.951 8.93449C238.479 25.1696 235.063 41.4047 231.646 57.7023C234.696 57.4053 237.745 57.163 240.794 56.866C242.438 49.5262 244.082 42.1238 245.734 34.7762C248.839 34.5964 251.952 34.4167 255.057 34.2369C253.229 41.522 251.401 48.7992 249.574 56.1468C252.623 55.8498 255.672 55.6075 258.721 55.3105C263.047 39.0128 267.373 22.6605 271.707 6.30029C271.571 6.36283 271.452 6.36283 271.332 6.36283Z" fill="url(#paint4_linear_798_111)"/>
<path d="M172.9 18.1813C164.408 13.8509 153.632 17.681 148.835 26.7249C144.046 35.7687 147.047 46.6182 155.548 50.9486C164.048 55.279 174.816 51.4566 179.605 42.405C184.402 33.3534 181.401 22.5039 172.9 18.1813Z" fill="black"/>
<path d="M172.014 20.9721C163.905 16.9778 153.72 20.5187 149.505 28.179C145.299 35.8393 148.46 45.2896 156.569 49.2761C164.679 53.2704 174.656 50.3 178.862 42.6398C183.069 34.9795 180.116 24.9664 172.014 20.9721ZM156.801 30.352C159.028 26.2874 164.36 24.6928 168.646 26.8033C172.932 28.9138 174.608 33.9711 172.381 38.0358C170.154 42.1004 164.822 43.695 160.536 41.5845C156.258 39.4662 154.574 34.4088 156.801 30.352Z" fill="black"/>
<path d="M168.598 26.5298C172.692 28.6559 174.121 33.9634 171.774 38.3016C169.404 42.6867 164.136 44.5471 160.089 42.4288C156.003 40.287 154.582 35.0264 156.92 30.6804C159.275 26.2953 164.543 24.4271 168.598 26.5298ZM169.572 37.1447C171.2 34.0806 170.194 30.3677 167.321 28.8982C164.463 27.4287 160.776 28.7419 159.131 31.8138C157.487 34.8779 158.509 38.6221 161.382 40.0838C164.264 41.5377 167.943 40.2167 169.572 37.1447Z" fill="url(#paint5_linear_798_111)"/>
<path d="M152.068 27.4364C152.363 26.9987 152.634 26.5453 152.954 26.1388C153.528 25.4041 154.135 24.7006 154.742 23.958C155.484 24.8804 156.178 25.748 156.873 26.6078C157.04 26.8189 157.32 27.0221 157.32 27.2488C157.32 27.4442 157.008 27.6709 156.833 27.882C155.62 29.328 154.798 30.9617 154.382 32.783C154.327 33.0175 154.255 33.08 154.023 33.0644C152.81 32.9862 151.589 32.9315 150.376 32.869C150.288 32.8611 150.192 32.8533 150.024 32.8377C150.288 31.931 150.535 31.0399 150.815 30.1566C150.974 29.6641 151.198 29.1873 151.389 28.7027C151.621 28.2806 151.844 27.8585 152.068 27.4364Z" fill="url(#paint6_linear_798_111)"/>
<path d="M156.593 47.6889C156.194 47.4153 155.771 47.173 155.388 46.8682C154.717 46.3288 154.071 45.7582 153.4 45.1798C154.566 44.1558 155.675 43.1866 156.809 42.2017C157.551 42.9442 158.365 43.5696 159.291 44.0307C160.217 44.4997 161.199 44.8046 162.252 44.9609C162.077 46.4383 161.901 47.8843 161.717 49.4086C160.847 49.1975 159.993 49.0099 159.163 48.7832C158.692 48.6582 158.245 48.4549 157.782 48.2908C157.383 48.0954 156.992 47.8922 156.593 47.6889Z" fill="url(#paint7_linear_798_111)"/>
<path d="M158.74 26.0762C157.862 24.9819 157 23.911 156.122 22.8167C158.9 20.6906 161.933 19.604 165.293 19.5259C165.118 20.9954 164.942 22.4415 164.766 23.911C163.689 23.9579 162.635 24.1611 161.614 24.5285C160.6 24.9037 159.65 25.4196 158.74 26.0762Z" fill="url(#paint8_linear_798_111)"/>
<path d="M178.83 34.3696C177.409 34.2914 176.021 34.2211 174.6 34.1507C174.624 33.0564 174.52 31.9934 174.233 30.9616C173.953 29.9298 173.514 28.9761 172.932 28.0772C174.057 27.0923 175.159 26.1309 176.292 25.1304C178.168 27.8506 179.006 30.9069 178.83 34.3696Z" fill="url(#paint9_linear_798_111)"/>
<path d="M149.873 34.604C151.301 34.6822 152.69 34.7525 154.103 34.8307C154.071 35.9485 154.191 37.0115 154.47 38.0433C154.75 39.0673 155.189 40.0131 155.763 40.8964C155.197 41.3966 154.638 41.8891 154.079 42.3737C153.528 42.8584 152.978 43.3352 152.395 43.8432C150.535 41.1231 149.705 38.0668 149.873 34.604Z" fill="url(#paint10_linear_798_111)"/>
<path d="M163.937 45.047C165.022 45.0001 166.076 44.7969 167.098 44.4295C168.111 44.0621 169.061 43.5462 169.963 42.8896C170.841 43.984 171.703 45.0549 172.581 46.1492C169.804 48.2753 166.762 49.3618 163.41 49.4322C163.586 47.9705 163.761 46.5322 163.937 45.047Z" fill="url(#paint11_linear_798_111)"/>
<path d="M166.986 19.6196C170.282 20.0417 173.02 21.4331 175.263 23.8328C174.138 24.8177 173.036 25.7869 171.919 26.7562C171.583 26.467 171.28 26.1778 170.945 25.9198C169.716 24.9506 168.327 24.3252 166.762 24.0673C166.515 24.0282 166.459 23.9344 166.499 23.6765C166.667 22.3398 166.818 20.9954 166.986 19.6196Z" fill="url(#paint12_linear_798_111)"/>
<path d="M178.623 36.1207C177.976 39.5522 176.42 42.4913 173.921 44.9769C173.043 43.8904 172.189 42.8117 171.319 41.733C171.623 41.3657 171.926 41.0295 172.205 40.67C173.243 39.3333 173.945 37.8482 174.312 36.2145C174.368 35.9487 174.464 35.894 174.712 35.9097C176.005 35.9878 177.298 36.0504 178.623 36.1207Z" fill="url(#paint13_linear_798_111)"/>
<path d="M176.229 25.623C176.229 25.623 178.567 30.102 174.936 33.8227L178.503 34.0337C178.511 34.0337 179.094 29.7033 176.229 25.623Z" fill="url(#paint14_linear_798_111)"/>
<path d="M161.885 45.1958C161.885 45.1958 158.301 48.299 153.903 45.1802C153.903 45.1802 156.585 48.2834 161.502 49.0416L161.885 45.1958Z" fill="url(#paint15_linear_798_111)"/>
<path d="M245.247 34.9246L246.268 41.2795L273.997 26.2403L254.865 27.0064L253.723 17.7046L227.072 39.255L245.247 34.9246Z" fill="black"/>
<path d="M263.644 29.6952L248.782 36.6051L247.817 30.6019L233.489 35.886L251.169 23.4028L252.023 30.3284L263.644 29.6952Z" fill="url(#paint16_linear_798_111)"/>
<defs>
<linearGradient id="paint0_linear_798_111" x1="122.103" y1="63.0504" x2="122.103" y2="-22.9155" gradientUnits="userSpaceOnUse">
<stop stop-color="#FF9F07"/>
<stop offset="0.2021" stop-color="#FFEF07"/>
<stop offset="1" stop-color="#FFEF07"/>
</linearGradient>
<linearGradient id="paint1_linear_798_111" x1="157.029" y1="61.7342" x2="157.029" y2="-24.1298" gradientUnits="userSpaceOnUse">
<stop stop-color="#FF9F07"/>
<stop offset="0.2021" stop-color="#FFEF07"/>
<stop offset="1" stop-color="#FFEF07"/>
</linearGradient>
<linearGradient id="paint2_linear_798_111" x1="194.632" y1="60.3308" x2="194.632" y2="-27.1647" gradientUnits="userSpaceOnUse">
<stop stop-color="#FF9F07"/>
<stop offset="0.2021" stop-color="#FFEF07"/>
<stop offset="1" stop-color="#FFEF07"/>
</linearGradient>
<linearGradient id="paint3_linear_798_111" x1="219.346" y1="58.0547" x2="219.346" y2="-24.0819" gradientUnits="userSpaceOnUse">
<stop stop-color="#FF9F07"/>
<stop offset="0.2021" stop-color="#FFEF07"/>
<stop offset="1" stop-color="#FFEF07"/>
</linearGradient>
<linearGradient id="paint4_linear_798_111" x1="251.671" y1="60.3513" x2="251.671" y2="-27.4509" gradientUnits="userSpaceOnUse">
<stop stop-color="#FF9F07"/>
<stop offset="0.2021" stop-color="#FFEF07"/>
<stop offset="1" stop-color="#FFEF07"/>
</linearGradient>
<linearGradient id="paint5_linear_798_111" x1="162.706" y1="42.2358" x2="167.976" y2="16.387" gradientUnits="userSpaceOnUse">
<stop stop-color="#FF9F07"/>
<stop offset="0.4442" stop-color="#FFEF07"/>
<stop offset="1" stop-color="#FFEF07"/>
</linearGradient>
<linearGradient id="paint6_linear_798_111" x1="151.569" y1="39.9651" x2="156.839" y2="14.1162" gradientUnits="userSpaceOnUse">
<stop stop-color="#FF9F07"/>
<stop offset="0.4442" stop-color="#FFEF07"/>
<stop offset="1" stop-color="#FFEF07"/>
</linearGradient>
<linearGradient id="paint7_linear_798_111" x1="158.803" y1="41.4398" x2="164.073" y2="15.591" gradientUnits="userSpaceOnUse">
<stop stop-color="#FF9F07"/>
<stop offset="0.4442" stop-color="#FFEF07"/>
<stop offset="1" stop-color="#FFEF07"/>
</linearGradient>
<linearGradient id="paint8_linear_798_111" x1="156.697" y1="41.0106" x2="161.967" y2="15.1618" gradientUnits="userSpaceOnUse">
<stop stop-color="#FF9F07"/>
<stop offset="0.4442" stop-color="#FFEF07"/>
<stop offset="1" stop-color="#FFEF07"/>
</linearGradient>
<linearGradient id="paint9_linear_798_111" x1="173.094" y1="44.3536" x2="178.364" y2="18.5048" gradientUnits="userSpaceOnUse">
<stop stop-color="#FF9F07"/>
<stop offset="0.4442" stop-color="#FFEF07"/>
<stop offset="1" stop-color="#FFEF07"/>
</linearGradient>
<linearGradient id="paint10_linear_798_111" x1="152.316" y1="40.1172" x2="157.586" y2="14.2683" gradientUnits="userSpaceOnUse">
<stop stop-color="#FF9F07"/>
<stop offset="0.4442" stop-color="#FFEF07"/>
<stop offset="1" stop-color="#FFEF07"/>
</linearGradient>
<linearGradient id="paint11_linear_798_111" x1="168.714" y1="43.4604" x2="173.984" y2="17.6115" gradientUnits="userSpaceOnUse">
<stop stop-color="#FF9F07"/>
<stop offset="0.4442" stop-color="#FFEF07"/>
<stop offset="1" stop-color="#FFEF07"/>
</linearGradient>
<linearGradient id="paint12_linear_798_111" x1="166.592" y1="43.0278" x2="171.862" y2="17.179" gradientUnits="userSpaceOnUse">
<stop stop-color="#FF9F07"/>
<stop offset="0.4442" stop-color="#FFEF07"/>
<stop offset="1" stop-color="#FFEF07"/>
</linearGradient>
<linearGradient id="paint13_linear_798_111" x1="173.79" y1="44.4957" x2="179.06" y2="18.6469" gradientUnits="userSpaceOnUse">
<stop stop-color="#FF9F07"/>
<stop offset="0.4442" stop-color="#FFEF07"/>
<stop offset="1" stop-color="#FFEF07"/>
</linearGradient>
<linearGradient id="paint14_linear_798_111" x1="177.464" y1="28.0102" x2="174.556" y2="52.3366" gradientUnits="userSpaceOnUse">
<stop stop-color="#FF9F07"/>
<stop offset="0.4442" stop-color="#FFEF07"/>
<stop offset="1" stop-color="#FFEF07"/>
</linearGradient>
<linearGradient id="paint15_linear_798_111" x1="175.346" y1="46.8209" x2="157.98" y2="47.1184" gradientUnits="userSpaceOnUse">
<stop offset="0.4442" stop-color="#FFEF07"/>
<stop offset="0.7555" stop-color="#FF9F07"/>
<stop offset="1" stop-color="#FFEF07"/>
</linearGradient>
<linearGradient id="paint16_linear_798_111" x1="257.298" y1="38.6951" x2="240.078" y2="26.5474" gradientUnits="userSpaceOnUse">
<stop stop-color="#FF9F07"/>
<stop offset="0.4442" stop-color="#FFEF07"/>
<stop offset="1" stop-color="#FFEF07"/>
</linearGradient>
</defs>
</svg>
