<svg width="103" height="56" viewBox="0 0 103 56" fill="none" xmlns="http://www.w3.org/2000/svg">
<g clip-path="url(#clip0_998_1234)">
<path d="M45.7389 27.9983C45.7389 22.9382 48.1513 18.4591 51.8643 15.6344C49.3028 13.6859 46.1289 12.5176 42.6762 12.5176C34.2191 12.5176 27.3628 19.4488 27.3628 27.9983C27.3628 36.5478 34.2191 43.4791 42.6762 43.4791C46.1289 43.4791 49.3028 42.3097 51.8643 40.3623C48.1513 37.5365 45.7389 33.0585 45.7389 27.9983Z" fill="#F44336"/>
<path d="M61.0587 12.5176C57.606 12.5176 54.432 13.6859 51.8706 15.6344C55.5836 18.4591 57.996 22.9382 57.996 27.9983C57.996 33.0585 55.5836 37.5365 51.8706 40.3623C54.432 42.3108 57.606 43.4791 61.0587 43.4791C69.5157 43.4791 76.3721 36.5478 76.3721 27.9983C76.3721 19.4488 69.5157 12.5176 61.0587 12.5176Z" fill="#FF9800"/>
<path d="M51.871 40.3627C55.2539 40.3627 57.9963 34.8271 57.9963 27.9987C57.9963 21.1703 55.2539 15.6348 51.871 15.6348C48.488 15.6348 45.7456 21.1703 45.7456 27.9987C45.7456 34.8271 48.488 40.3627 51.871 40.3627Z" fill="#FF7300"/>
</g>
<rect x="1.46283" y="0.732849" width="100.534" height="54.5343" rx="20.8271" stroke="#F2BC11" stroke-opacity="0.4" stroke-width="1.4657"/>
<defs>
<clipPath id="clip0_998_1234">
<rect width="49.0029" height="49.5384" fill="white" transform="translate(27.3628 3.23047)"/>
</clipPath>
</defs>
</svg>
