<svg width="119" height="56" viewBox="0 0 119 56" fill="none" xmlns="http://www.w3.org/2000/svg">
<path d="M80.0659 20.3013C80.367 20.0171 80.5176 19.875 80.6682 19.7329C82.761 17.6372 85.441 17.8681 87.2327 20.3546C87.4134 20.6032 87.5037 20.621 87.6844 20.4078C87.8049 20.248 87.9404 20.1237 88.0608 19.9638C89.461 18.3476 91.313 17.8681 93.0445 18.7739C94.8663 19.7329 95.8449 21.4202 95.86 23.7824C95.8901 28.8796 95.875 33.9592 95.875 39.0565C95.875 40.868 94.9265 42.0047 93.4058 42.0047C92.8036 42.0047 92.2013 41.9514 91.599 42.0225C90.9817 42.0935 90.8011 41.8626 90.8011 41.0989C90.8312 36.126 90.8161 31.153 90.8161 26.18C90.8161 25.9669 90.8161 25.7715 90.8161 25.5584C90.8011 24.404 90.4096 23.9244 89.4761 23.8712C88.6329 23.8179 88.0458 24.4217 87.9554 25.4341C87.9404 25.665 87.9554 25.9136 87.9554 26.1445C87.9554 30.4426 87.9554 34.7229 87.9554 39.021C87.9554 40.9036 87.037 42.0047 85.441 41.987C84.628 41.9692 83.5289 42.4132 83.0621 41.7916C82.6556 41.2588 82.9266 39.9978 82.9266 39.0565C82.9266 34.6518 82.9266 30.2294 82.9266 25.8248C82.9266 24.2619 82.0684 23.4627 80.9542 23.9955C80.2616 24.3329 80.0358 24.9901 80.0358 25.8426C80.0509 29.963 80.0358 34.0657 80.0358 38.1862C80.0358 38.5059 80.0358 38.8433 80.0358 39.163C79.9906 40.8858 79.0571 41.9692 77.6117 41.987C77.0095 42.0047 76.4072 41.9337 75.805 42.0047C75.1575 42.0758 74.9618 41.8626 74.9769 41.0457C75.007 34.0657 74.9919 27.0858 74.9919 20.0881C74.9919 19.7862 75.007 19.502 74.9919 19.2001C74.9618 18.8094 75.0973 18.6851 75.4286 18.6851C76.8137 18.7028 78.1839 18.7028 79.569 18.6851C79.9153 18.6851 80.081 18.7916 80.0508 19.2356C80.0207 19.5553 80.0508 19.8395 80.0659 20.3013Z" fill="#02B9EF"/>
<path d="M48.1383 29.9254C48.1383 32.3586 48.1383 34.774 48.1383 37.2072C48.1232 40.3686 46.723 42.0026 44.043 42.0203C42.8686 42.0203 41.6791 42.0381 40.5047 42.0203C38.1258 41.9848 36.3793 40.1199 36.2589 37.3138C36.1685 35.3068 36.1535 33.2821 36.2438 31.2752C36.3642 28.3979 38.2312 26.3732 40.7005 26.3377C41.3479 26.32 42.0104 26.3377 42.6578 26.3377C43.2902 26.32 43.5311 25.8937 43.516 25.1833C43.516 24.4729 43.245 24.1532 42.6427 24.1887C41.9652 24.2064 41.2877 24.2064 40.6101 24.1887C38.9539 24.1532 38.0355 23.0875 38.0506 21.1694C38.0506 20.3879 37.7494 19.34 38.1861 18.8783C38.5625 18.4875 39.4207 18.7362 40.0681 18.7362C41.7544 18.7184 43.4257 18.7362 45.112 18.7362C46.9037 18.7362 48.1232 20.1748 48.1383 22.3061C48.1533 24.8281 48.1383 27.3856 48.1383 29.9254ZM43.5311 33.957C43.5311 33.6551 43.5311 33.3709 43.5311 33.069C43.5311 31.2574 43.5311 31.2574 41.9953 31.3284C41.2274 31.364 40.8059 31.8257 40.7908 32.767C40.7758 33.513 40.7758 34.2412 40.7908 34.9871C40.8059 36.2659 41.2877 36.6033 42.8535 36.6566C44.0129 36.6921 43.4257 35.7331 43.5311 35.2003C43.5913 34.8095 43.516 34.3655 43.5311 33.957Z" fill="#06306F"/>
<path d="M61.5335 27.9927C61.5335 30.7101 61.5637 33.4452 61.5185 36.1626C61.4884 38.2583 61.0668 40.1587 59.3504 41.2776C58.6578 41.7217 57.905 41.9703 57.122 41.9881C55.3906 42.0236 53.6591 41.9881 51.9276 42.0236C51.506 42.0236 51.4157 41.846 51.4307 41.402C51.4609 40.656 51.4157 39.9278 51.4458 39.1819C51.4759 37.7611 52.3944 36.6777 53.5989 36.6244C54.3818 36.5889 55.1497 36.6066 55.9326 36.6244C56.565 36.6244 56.9112 36.3224 56.9112 35.5232C56.9112 34.7062 56.58 34.4221 55.9476 34.4043C54.8937 34.3688 53.8398 34.5464 52.8009 34.1912C51.0092 33.5695 49.6993 31.8113 49.6541 29.6267C49.5638 26.1634 49.624 22.7001 49.6089 19.2367C49.6089 18.846 49.7143 18.7217 50.0456 18.7395C51.2802 18.7572 52.4997 18.775 53.7344 18.7395C54.2764 18.7217 54.2011 19.0769 54.2011 19.4676C54.2011 22.0784 54.2011 24.6715 54.2011 27.2823C54.2011 28.419 54.6528 29.0228 55.496 29.0584C56.4897 29.0939 56.9263 28.6143 56.9263 27.4244C56.9263 24.7958 56.9414 22.1495 56.9112 19.5209C56.9112 18.8993 57.0468 18.7217 57.5737 18.7395C58.6728 18.7927 59.787 18.8105 60.8861 18.7395C61.4884 18.7039 61.5787 18.9703 61.5637 19.592C61.5185 22.3804 61.5335 25.1865 61.5335 27.9927Z" fill="#06306F"/>
<path d="M23.1768 32.028C23.1768 29.133 23.1768 26.2203 23.1768 23.3253C23.1768 20.4836 24.6523 18.7075 27.0764 18.743C28.6573 18.7608 30.2382 18.5299 31.8041 18.8851C33.8066 19.3469 35.0713 21.1762 35.0863 23.6094C35.1014 26.1847 35.0863 28.76 35.0863 31.3353C35.0863 34.5677 33.4753 36.5392 30.7351 36.628C29.907 36.6635 29.0789 36.6457 28.2508 36.628C27.8744 36.6102 27.7088 36.7523 27.7238 37.2318C27.7539 37.9422 27.7389 38.6527 27.7238 39.3631C27.6937 40.8905 26.7753 41.9917 25.4955 42.0094C24.7427 42.0272 23.7941 42.3824 23.3123 41.8673C22.8606 41.3878 23.1919 40.2511 23.1768 39.3986C23.1617 36.9477 23.1768 34.4789 23.1768 32.028ZM27.7238 27.6766C27.7238 28.245 27.7238 28.7955 27.7238 29.3639C27.7238 31.3708 27.7238 31.3708 29.4252 31.1932C30.1629 31.1222 30.5092 30.6959 30.5243 29.8257C30.5393 28.8311 30.4942 27.8187 30.5393 26.8241C30.6297 23.9469 30.178 24.2311 28.1906 24.2133C27.8292 24.2133 27.7088 24.3376 27.7088 24.7639C27.7389 25.723 27.7238 26.6998 27.7238 27.6766Z" fill="#06306F"/>
<path d="M65.8041 32.0561C65.8041 29.694 65.789 27.314 65.8191 24.9519C65.8191 24.4013 65.7137 24.1704 65.2018 24.1882C64.5243 24.2237 63.6209 24.4546 63.2445 24.0639C62.7777 23.5488 63.1391 22.4476 63.0789 21.5951C63.0789 21.5419 63.0789 21.4708 63.0789 21.4175C63.0789 20.5828 62.853 19.6059 63.1541 18.9843C63.4553 18.3627 64.3737 18.7534 65.0211 18.5581C66.3009 18.1673 67.2645 17.2971 68.0474 16.0894C68.5895 15.2724 69.267 14.6863 70.1403 14.4909C70.607 14.3843 70.8931 14.4554 70.863 15.1658C70.8178 16.1604 70.863 17.1727 70.8479 18.1851C70.8329 18.6114 70.9684 18.7534 71.3297 18.7357C71.932 18.7179 72.5342 18.7534 73.1365 18.7179C73.4978 18.7002 73.6183 18.86 73.6032 19.2863C73.5882 20.7426 73.5882 22.1812 73.6032 23.6376C73.6032 24.0461 73.5129 24.2592 73.1365 24.2059C73.0612 24.1882 72.9859 24.2059 72.9106 24.2059C72.2482 24.277 71.3297 23.8507 70.9834 24.3835C70.6522 24.8808 70.863 25.911 70.863 26.7102C70.863 31.5411 70.8479 36.3542 70.878 41.1851C70.878 41.86 70.7275 42.0731 70.1553 42.0198C69.6133 41.9665 69.0562 42.0198 68.4991 42.0021C66.8731 41.931 65.8041 40.6345 65.8041 38.7163C65.8041 36.4963 65.8041 34.2762 65.8041 32.0561Z" fill="#02B9EF"/>
<rect x="1.46283" y="0.732848" width="116.534" height="54.5343" rx="20.8271" stroke="#F2BC11" stroke-opacity="0.4" stroke-width="1.4657"/>
</svg>
