<svg width="155" height="56" viewBox="0 0 155 56" fill="none" xmlns="http://www.w3.org/2000/svg">
<path d="M35.9649 44.2574C35.4995 44.2109 35.0318 44.1791 34.5688 44.1166C31.5391 43.7064 28.8404 42.5163 26.5111 40.4922C24.0762 38.4001 22.3392 35.5865 21.5407 32.4414C21.0962 30.7445 20.9428 28.9818 21.0874 27.2314C21.3272 24.1764 22.3264 21.4018 24.1459 18.9651C26.6934 15.5525 30.0626 13.4673 34.221 12.8367C38.7596 12.1473 42.8568 13.3167 46.3962 16.2811C49.4464 18.8316 51.2863 22.1511 51.8452 26.133C52.5049 30.8288 51.3222 35.0459 48.3213 38.6764C45.7941 41.7375 42.5353 43.5044 38.6624 44.1007C38.1766 44.1766 37.6837 44.206 37.1943 44.2574H35.9649ZM33.1127 23.3193C31.8617 23.3193 30.6119 23.3193 29.3609 23.3193C29.0275 23.3193 28.9088 23.4221 28.8812 23.7576C28.8506 24.0838 28.8566 24.4124 28.8992 24.7372C28.9324 25.0108 29.0628 25.2625 29.2658 25.4444C29.4688 25.6264 29.7301 25.7259 30.0002 25.7241C30.2881 25.7302 30.5759 25.7241 30.8638 25.7241C31.2236 25.7241 31.2236 25.7241 31.2236 26.0853C31.2236 27.4526 31.2236 28.8199 31.2236 30.1872C31.2229 30.7329 31.2926 31.2764 31.4311 31.8035C31.8161 33.2728 32.6557 34.3247 34.113 34.763C35.3304 35.1303 36.5526 35.041 37.7544 34.6406C38.0363 34.5463 38.0411 34.5463 38.0423 34.8512C38.0423 35.6985 38.0363 36.5458 38.0423 37.3931C38.0399 37.5745 38.0731 37.7546 38.1401 37.9227C38.2071 38.0907 38.3065 38.2433 38.4323 38.3714C38.5582 38.4995 38.7079 38.6006 38.8727 38.6685C39.0375 38.7365 39.214 38.7699 39.3917 38.767C39.7863 38.767 40.1821 38.7743 40.5767 38.767C40.6448 38.7685 40.7124 38.7559 40.7756 38.7299C40.8388 38.704 40.8961 38.6653 40.9442 38.616C40.9923 38.5668 41.0302 38.5082 41.0554 38.4436C41.0807 38.3791 41.0929 38.31 41.0912 38.2405C41.0912 38.1401 41.0912 38.0396 41.0912 37.9392C41.0912 33.9867 41.0912 30.0354 41.0912 26.0853C41.0912 25.6347 41.0912 25.6347 41.5206 25.6347C42.022 25.6347 42.5245 25.6347 43.0259 25.6347C43.3977 25.6347 43.5056 25.5184 43.5056 25.1327C43.5056 24.8821 43.5056 24.6302 43.5056 24.3772C43.4973 23.6915 43.0463 23.2348 42.3686 23.2286C41.7761 23.2237 41.184 23.2237 40.5923 23.2286C40.5145 23.2341 40.4366 23.22 40.3654 23.1878C40.2941 23.1556 40.2316 23.1062 40.1833 23.0437C39.9614 22.7744 39.7311 22.5111 39.5044 22.2466C38.2138 20.7242 36.9205 19.2043 35.6243 17.6868C35.4723 17.4923 35.2787 17.336 35.0583 17.2298C34.8379 17.1237 34.5966 17.0706 34.3529 17.0745C33.5529 17.0843 32.8428 17.4419 32.1052 17.6953C31.8809 17.7712 31.8569 18.0627 32.014 18.2463C32.0694 18.3085 32.1278 18.3678 32.1892 18.4239C33.782 19.9675 35.3752 21.5103 36.9688 23.0523C37.0264 23.1074 37.132 23.1601 37.1056 23.2446C37.072 23.3548 36.9508 23.3095 36.8657 23.3095C35.6147 23.3095 34.3649 23.3095 33.1139 23.3095M135.012 33.5826C134.846 33.8594 134.609 33.9585 134.286 33.9561C132.649 33.9438 131.011 33.9561 129.374 33.9451C129.134 33.9451 129.026 34.0014 129.036 34.2622C129.044 34.4532 128.995 34.6455 128.993 34.8377C128.98 35.7622 129.563 36.3817 130.472 36.4491C131.381 36.5164 132.244 36.2605 133.07 35.8687C133.659 35.5907 133.775 35.6238 134.136 36.187C134.393 36.5862 134.616 36.9927 134.438 37.5009C134.342 37.7995 134.137 38.0489 133.866 38.1976C132.613 38.8747 131.271 39.0719 129.872 38.947C129.214 38.8977 128.571 38.7176 127.981 38.4168C126.593 37.6821 125.898 36.487 125.832 34.9332C125.777 33.6353 125.804 32.3325 125.825 31.0321C125.86 28.8122 127.339 27.1934 129.543 26.9289C130.327 26.8183 131.124 26.8461 131.899 27.011C133.657 27.4212 134.712 28.5942 134.966 30.4174C134.976 30.4823 134.994 30.5472 135.008 30.6121L135.012 33.5826ZM130.583 32.0619C131.044 32.0619 131.504 32.0619 131.965 32.0619C132.132 32.0619 132.205 32.0006 132.205 31.8268C132.205 31.5586 132.205 31.2905 132.205 31.0223C132.175 30.1652 131.7 29.5934 130.863 29.4844C129.802 29.346 129.023 29.9031 129.001 31.0505C129.001 31.2954 129.01 31.5402 129.001 31.7851C128.993 32.03 129.082 32.0741 129.292 32.068C129.727 32.057 130.162 32.068 130.599 32.068M62.1494 36.4087C62.1494 36.9964 62.1494 37.5829 62.1494 38.1707C62.1494 38.5711 61.9443 38.8049 61.5497 38.8147C60.9332 38.8294 60.3167 38.8294 59.7002 38.8147C59.3403 38.8062 59.1436 38.6017 59.1005 38.2417C59.0887 38.1417 59.0835 38.0411 59.0849 37.9405C59.0849 33.4786 59.0849 29.0166 59.0849 24.5547C59.0849 24.4323 59.0957 24.3196 59.1065 24.2033C59.1173 24.0424 59.1771 23.889 59.2776 23.7646C59.378 23.6401 59.514 23.5508 59.6666 23.509C61.0183 23.0499 62.4025 22.7744 63.831 22.8123C64.9524 22.8454 66.0127 23.1184 66.9494 23.7772C68.0289 24.5327 68.6754 25.5845 68.8313 26.8947C69.0057 28.2013 68.9988 29.5266 68.8109 30.8313C68.6494 31.8087 68.18 32.7057 67.4739 33.3861C66.7678 34.0665 65.8636 34.4931 64.8984 34.6014C64.0409 34.7079 63.1905 34.7067 62.3653 34.3993C62.1818 34.3308 62.153 34.4153 62.153 34.5732C62.153 35.1854 62.153 35.7977 62.153 36.4099M62.2477 28.6505C62.2477 29.5223 62.2549 30.3929 62.2477 31.2647C62.2386 31.3548 62.2603 31.4454 62.3094 31.5209C62.3584 31.5964 62.4316 31.6521 62.5164 31.6786C62.9686 31.888 63.4411 31.8929 63.9197 31.8659C65.0412 31.8035 65.8388 30.9647 65.8388 29.8187C65.8328 28.9689 65.9024 28.1191 65.7488 27.2693C65.6289 26.5873 65.3374 26.0535 64.7089 25.7547C63.9677 25.4021 63.2109 25.4474 62.4492 25.6825C62.2765 25.7363 62.2561 25.8539 62.2561 26.0106C62.2561 26.8898 62.2561 27.7701 62.2561 28.6505M114.917 31.217V24.5462C114.917 23.8494 115.07 23.6413 115.714 23.4344C116.978 23.0291 118.268 22.7793 119.595 22.8099C120.875 22.8393 122.069 23.1662 123.086 24.0074C123.526 24.3631 123.893 24.8045 124.165 25.306C124.437 25.8075 124.609 26.3592 124.67 26.9289C124.836 28.1783 124.836 29.4448 124.67 30.6941C124.371 32.7292 123.033 34.1153 121.036 34.5426C120.117 34.7619 119.156 34.7196 118.259 34.4202C118.041 34.3418 117.991 34.4018 117.992 34.6222C117.999 35.772 117.992 36.9217 117.992 38.0703C117.992 38.6102 117.789 38.8233 117.272 38.8257C116.755 38.8282 116.219 38.8257 115.693 38.8257C115.166 38.8257 114.931 38.598 114.925 38.0445V31.217H114.917ZM118.085 28.6456C118.085 29.526 118.091 30.4076 118.085 31.288C118.078 31.3699 118.097 31.4521 118.141 31.5214C118.184 31.5906 118.249 31.643 118.325 31.67C118.775 31.8868 119.248 31.8953 119.727 31.8708C120.866 31.8157 121.661 30.9758 121.672 29.8162C121.672 29.2542 121.672 28.6909 121.672 28.1289C121.659 27.6872 121.588 27.2494 121.459 26.8273C121.399 26.6033 121.292 26.3954 121.145 26.2178C120.999 26.0402 120.816 25.8972 120.61 25.7988C119.88 25.4192 119.122 25.4498 118.352 25.6555C118.31 25.6611 118.27 25.675 118.234 25.6966C118.197 25.7181 118.166 25.7468 118.14 25.781C118.115 25.8152 118.096 25.8542 118.086 25.8957C118.076 25.9372 118.073 25.9804 118.079 26.0228C118.091 26.8959 118.079 27.7677 118.079 28.6407M70.5129 30.7664C70.5129 28.333 70.5129 25.8996 70.5129 23.4662C70.5129 22.914 70.7096 22.7082 71.2577 22.7119C71.6524 22.7119 72.0482 22.6776 72.4404 22.745C72.7279 22.7879 72.9933 22.9274 73.1946 23.1413C73.3959 23.3553 73.5217 23.6316 73.5522 23.9266C73.6326 24.7384 73.569 25.5539 73.5846 26.3669C73.5846 26.5849 73.5918 26.8028 73.5846 27.0208C73.5774 27.2057 73.6242 27.284 73.8245 27.2265C74.3654 27.0824 74.9191 26.9942 75.4773 26.9632C77.5775 26.8016 79.2602 28.0567 79.7112 30.1468C79.8188 30.6289 79.8735 31.1217 79.8743 31.6162C79.8743 33.7736 79.8743 35.9299 79.8743 38.0862C79.8743 38.5919 79.6657 38.8111 79.1751 38.8208C78.8616 38.8257 78.549 38.8257 78.2371 38.8208C78.047 38.8222 77.8584 38.7847 77.6826 38.7108C77.5068 38.6368 77.3471 38.5277 77.2131 38.39C77.0791 38.2522 76.9733 38.0885 76.902 37.9086C76.8307 37.7286 76.7953 37.5358 76.7978 37.3417C76.793 35.5124 76.793 33.6834 76.7978 31.8549C76.811 31.4937 76.7706 31.1325 76.6779 30.7835C76.4992 30.1909 76.1022 29.864 75.5085 29.7721C74.9607 29.7041 74.4052 29.7423 73.8713 29.8848C73.6434 29.9374 73.5726 30.0525 73.5738 30.2876C73.581 32.8051 73.581 35.3222 73.5738 37.8388C73.5738 37.9392 73.5738 38.0409 73.5738 38.1413C73.5414 38.5992 73.3339 38.8135 72.8829 38.8196C72.3152 38.827 71.7475 38.827 71.1798 38.8196C70.7156 38.8196 70.5057 38.5919 70.5057 38.118C70.5057 35.6691 70.5057 33.2202 70.5057 30.7713M81.4804 32.8357C81.508 32.2492 81.43 31.4888 81.52 30.7407C81.737 28.9211 82.7194 27.7444 84.4309 27.2265C85.8099 26.7845 87.295 26.8333 88.6433 27.3649C90.2181 27.9893 91.0421 29.2089 91.1753 30.9158C91.2724 32.1708 91.2208 33.4308 91.2076 34.6883C91.1945 35.9458 90.8166 37.098 89.8307 37.9552C89.0907 38.5992 88.2079 38.8968 87.2628 39.0204C86.2483 39.1667 85.2145 39.0686 84.2438 38.7339C82.5574 38.1401 81.5056 36.6609 81.4852 34.8426C81.4768 34.2304 81.4852 33.6181 81.4852 32.8382M84.7164 32.8688C84.7164 33.5471 84.708 34.0932 84.7164 34.6369C84.7344 35.5981 85.1758 36.1515 86.0873 36.2691C87.1668 36.4099 88.1035 36.0242 88.1371 34.6846C88.1647 33.5704 88.1563 32.4549 88.1371 31.3394C88.1215 30.4297 87.6574 29.8493 86.8705 29.6901C86.6345 29.6529 86.3948 29.6451 86.1569 29.6668C85.3809 29.7048 84.8555 30.208 84.7536 30.9917C84.6684 31.6602 84.7404 32.3325 84.7128 32.8688M109.933 33.95C109.085 33.95 108.238 33.9573 107.39 33.95C107.177 33.95 107.088 34.0308 107.081 34.2353C107.072 34.5193 106.997 34.7997 107.035 35.0924C107.138 35.8711 107.698 36.3928 108.484 36.4564C109.398 36.5299 110.245 36.2997 111.059 35.903C111.702 35.5895 111.83 35.6262 112.213 36.2483C112.468 36.6621 112.681 37.087 112.453 37.5952C112.372 37.8269 112.214 38.0226 112.007 38.1486C110.025 39.171 107.99 39.3731 105.956 38.3788C104.689 37.7666 104.009 36.6303 103.902 35.2124C103.797 33.698 103.797 32.1779 103.902 30.6635C104.009 28.9591 105.114 27.6085 106.781 27.1224C107.925 26.7768 109.141 26.7738 110.287 27.1138C111.846 27.5779 112.737 28.6799 112.995 30.2974C113.153 31.3039 113.097 32.3227 113.079 33.3365C113.071 33.7663 112.839 33.9549 112.404 33.9561H109.933M108.638 32.068C109.105 32.068 109.574 32.068 110.042 32.068C110.196 32.068 110.27 32.0166 110.265 31.85C110.258 31.5904 110.272 31.3296 110.259 31.0713C110.215 30.1799 109.734 29.6019 108.895 29.4917C108.029 29.3754 107.201 29.7183 107.05 30.8313C107.004 31.1656 107.038 31.5011 107.023 31.8353C107.015 32.0117 107.09 32.0704 107.257 32.068C107.718 32.0619 108.177 32.068 108.638 32.068ZM92.9816 33.2422C92.9816 31.6733 92.9816 30.1044 92.9816 28.5354C92.9816 28.004 93.1519 27.7861 93.6449 27.6183C94.8756 27.1842 96.1677 26.9587 97.4698 26.951C98.7328 26.951 99.9466 27.1763 100.948 28.053C101.752 28.7571 102.124 29.6864 102.284 30.7272C102.329 31.0681 102.347 31.412 102.338 31.7557C102.338 33.8618 102.338 35.9679 102.338 38.0739C102.338 38.6139 102.142 38.8196 101.607 38.816C101.205 38.816 100.801 38.8527 100.4 38.7866C99.7319 38.6751 99.2989 38.1743 99.2965 37.4837C99.2893 35.696 99.2965 33.9096 99.2965 32.1219C99.3062 31.7194 99.276 31.317 99.2066 30.9207C99.0482 30.1358 98.5421 29.6962 97.7601 29.6607C97.2915 29.643 96.8224 29.6713 96.3591 29.7452C96.1192 29.7831 96.0533 29.8909 96.0545 30.126C96.0601 32.6925 96.0601 35.2597 96.0545 37.8278C96.0545 37.9282 96.0545 38.0299 96.0545 38.129C96.0486 38.2873 95.9828 38.4371 95.871 38.547C95.7591 38.6568 95.61 38.7181 95.4548 38.718C94.8215 38.7302 94.187 38.7315 93.5537 38.718C93.1939 38.7106 92.9816 38.4621 92.9804 38.0727C92.9804 36.4613 92.9804 34.8504 92.9804 33.2398" fill="#5F259F"/>
<path d="M38.0494 28.8451C38.0494 29.7769 38.0434 30.7075 38.0494 31.638C38.0606 31.7285 38.0384 31.8199 37.9872 31.8946C37.936 31.9693 37.8594 32.0219 37.7723 32.0421C37.1866 32.2477 36.5649 32.3245 35.948 32.2674C34.8985 32.1658 34.312 31.5327 34.2233 30.4466C34.1417 29.4499 34.2017 28.452 34.1849 27.4541C34.1777 26.9643 34.1849 26.4819 34.1849 25.9958C34.1849 25.7937 34.2496 25.7117 34.4571 25.7129C35.5594 25.7203 36.6617 25.7227 37.7627 25.7129C38.0026 25.7129 38.053 25.8121 38.0518 26.0288C38.0446 26.968 38.0518 27.9071 38.0518 28.8451" fill="#5F259F"/>
<rect x="1.46283" y="0.732848" width="152.534" height="54.5343" rx="20.8271" stroke="#F2BC11" stroke-opacity="0.4" stroke-width="1.4657"/>
</svg>
