<svg xmlns="http://www.w3.org/2000/svg" width="420" height="155" fill="none" viewBox="0 0 420 155">
  <path fill="url(#a)" d="M22.993 20.79v42.198h6.104c6.308 0 8.343-4.117 8.343-10.91V30.671c0-6.587-1.424-9.88-8.343-9.88h-6.104Zm0 64.017v68.34H0V0h37.236C52.497 0 60.23 6.587 60.23 23.672v27.171c0 12.763-5.9 17.703-9.97 19.555 5.087 2.265 9.97 6.382 9.97 16.674v53.725c0 6.175 1.221 9.057 2.239 11.321v1.029h-22.79c-1.017-1.646-2.238-4.322-2.238-12.556V94.482c0-6.793-1.221-9.675-8.546-9.675h-5.901Z"/>
  <path fill="url(#b)" d="M79.959 119.801V0h23.4v121.242c0 6.587 2.238 10.909 7.325 10.909 5.494 0 7.529-4.116 7.529-10.909V0h23.399v119.801c0 21.613-8.546 35.199-28.893 35.199h-4.07c-20.348 0-28.69-13.174-28.69-35.199Z"/>
  <path fill="url(#c)" d="M161.924 153.147V0h29.504l10.988 80.896L213.607 0h27.469v153.147h-21.568v-99.01l-13.837 99.01h-9.156l-14.04-99.01v99.01h-20.551Z"/>
  <path fill="url(#d)" d="M261.763 153.147V0h29.504l10.988 80.896L313.446 0h27.47v153.147h-21.569v-99.01l-13.837 99.01h-9.156l-14.04-99.01v99.01h-20.551Z"/>
  <path fill="url(#e)" d="m420 0-20.144 89.542v63.605h-22.993V89.336L356.108 0h22.383l10.58 57.224L399.245 0H420Z"/>
  <defs>
    <linearGradient id="a" x1="207.159" x2="207.159" y1="-1.087" y2="153.147" gradientUnits="userSpaceOnUse">
      <stop stop-color="#E8E8E8"/>
      <stop offset="1" stop-color="#F8F8F8"/>
    </linearGradient>
    <linearGradient id="b" x1="207.159" x2="207.159" y1="-1.087" y2="153.147" gradientUnits="userSpaceOnUse">
      <stop stop-color="#E8E8E8"/>
      <stop offset="1" stop-color="#F8F8F8"/>
    </linearGradient>
    <linearGradient id="c" x1="207.159" x2="207.159" y1="-1.087" y2="153.147" gradientUnits="userSpaceOnUse">
      <stop stop-color="#E8E8E8"/>
      <stop offset="1" stop-color="#F8F8F8"/>
    </linearGradient>
    <linearGradient id="d" x1="207.159" x2="207.159" y1="-1.087" y2="153.147" gradientUnits="userSpaceOnUse">
      <stop stop-color="#E8E8E8"/>
      <stop offset="1" stop-color="#F8F8F8"/>
    </linearGradient>
    <linearGradient id="e" x1="207.159" x2="207.159" y1="-1.087" y2="153.147" gradientUnits="userSpaceOnUse">
      <stop stop-color="#E8E8E8"/>
      <stop offset="1" stop-color="#F8F8F8"/>
    </linearGradient>
  </defs>
</svg>
