<svg width="589" height="418" viewBox="0 0 589 418" fill="none" xmlns="http://www.w3.org/2000/svg">
<path d="M80.5191 155.868C79.4119 155.868 78.3047 155.412 78.0279 154.043L68.801 102.203C68.7187 101.927 68.6975 101.636 68.7388 101.351C68.7801 101.066 68.8831 100.792 69.0407 100.55C69.1982 100.308 69.4067 100.101 69.652 99.9458C69.8972 99.7902 70.1733 99.6885 70.4618 99.6479L120.01 97.4575C120.748 97.4575 121.486 98.2789 121.671 99.3741L128.775 138.984C128.775 139.988 128.775 141.083 127.945 141.265L80.5191 155.868Z" fill="url(#paint0_linear_998_4063)"/>
<path d="M96.2996 117.536C96.2996 121.369 99.3445 123.65 100.544 123.468C99.3445 123.468 97.4991 126.754 98.6063 130.495C99.7135 134.237 101.743 135.241 104.327 134.602C108.756 133.598 110.878 121.643 110.878 121.643C110.878 121.643 105.25 111.603 100.359 111.603C97.5914 111.603 95.8382 113.885 96.2996 117.536Z" fill="black"/>
<path d="M95.4698 130.396C95.4698 130.396 97.4996 124.008 101.744 123.278C97.4996 124.008 93.3477 118.988 93.3477 118.988L95.4698 130.396Z" fill="black"/>
<path d="M117.055 100.739C117.055 101.652 117.793 102.291 118.07 102.291C118.347 102.291 117.424 102.929 118.07 103.842C118.716 104.755 118.808 105.029 119.362 105.029C119.915 105.029 120.838 102.108 120.838 102.108C120.838 102.108 119.454 99.4613 118.439 99.37C117.424 99.2788 116.963 99.9176 117.055 100.739Z" fill="black"/>
<path d="M116.964 103.756C116.964 103.756 116.964 102.296 118.256 102.205C117.333 102.205 116.503 101.018 116.503 101.018L116.964 103.756Z" fill="black"/>
<path d="M80.5198 147.922C80.5198 149.017 81.4425 149.656 81.8116 149.474C81.503 149.759 81.2795 150.123 81.1656 150.525C81.0517 150.927 81.0518 151.353 81.1656 151.755C81.1656 152.759 82.1806 153.124 83.011 152.851C83.8414 152.577 85.41 148.561 85.41 148.561C85.41 148.561 83.4724 145.549 81.8116 145.823C81.5872 145.877 81.3756 145.973 81.1891 146.108C81.0027 146.242 80.8448 146.412 80.7248 146.607C80.6048 146.802 80.5249 147.019 80.4897 147.244C80.4545 147.47 80.4648 147.7 80.5198 147.922Z" fill="black"/>
<path d="M80.1498 151.753C80.1498 151.753 80.888 149.837 82.2721 149.38C81.7845 149.462 81.2838 149.421 80.8163 149.262C80.3488 149.102 79.9292 148.829 79.5962 148.468L80.1498 151.753Z" fill="black"/>
<path d="M587.996 186.262C589.287 186.262 589.38 186.992 587.996 187.813L547.121 218.57C546.06 219.431 544.706 219.855 543.338 219.757L501.448 211.725C500.894 211.725 501.448 210.995 501.909 210.356L533.188 186.718C534.041 186.134 535.021 185.759 536.049 185.623L587.996 186.262Z" fill="url(#paint1_linear_998_4063)"/>
<path d="M539.552 204.874C542.781 202.592 542.781 200.858 541.582 200.675C544.612 200.31 547.468 199.072 549.794 197.116C552.193 195.017 551.639 193.922 549.055 193.739C543.001 194.875 537.153 196.906 531.709 199.763C531.709 199.763 526.726 206.517 530.694 207.429C533.869 207.74 537.043 206.824 539.552 204.874Z" fill="black"/>
<path d="M552.194 197.851C548.478 199.43 544.513 200.357 540.476 200.589C540.962 200.575 541.444 200.685 541.876 200.908C542.308 201.13 542.676 201.458 542.943 201.86C543.211 202.262 543.371 202.725 543.408 203.206C543.444 203.686 543.356 204.167 543.151 204.605L552.194 197.851Z" fill="black"/>
<path d="M507.165 210.348C507.903 209.8 507.995 209.435 507.718 209.344C508.41 209.286 509.062 208.996 509.564 208.523C510.118 208.523 510.118 207.701 509.564 207.61C508.182 207.877 506.846 208.338 505.596 208.979C505.596 208.979 504.305 210.713 505.043 210.987C505.422 211.025 505.805 210.989 506.169 210.879C506.534 210.769 506.872 210.589 507.165 210.348Z" fill="black"/>
<path d="M510.027 208.713C509.243 209.074 508.398 209.291 507.536 209.352C508.366 209.352 507.536 210.356 507.536 210.356L510.027 208.713Z" fill="black"/>
<path d="M580.613 190.735C581.536 190.096 581.443 189.64 580.613 189.549C581.564 189.442 582.462 189.061 583.197 188.454C583.935 187.815 583.658 187.541 583.197 187.541C581.142 187.882 579.151 188.528 577.291 189.458C577.291 189.458 576 191.465 577.291 191.648C578.474 191.753 579.655 191.428 580.613 190.735Z" fill="black"/>
<path d="M584.488 188.632C583.26 189.158 581.949 189.467 580.613 189.544C582.089 189.544 581.812 190.639 581.812 190.639L584.488 188.632Z" fill="black"/>
<path d="M574.983 90.7977C575.906 90.7977 575.906 91.8928 574.983 93.1706L540.106 140.903C539.183 142.181 537.891 142.911 537.153 142.454L509.473 126.848C509.473 126.848 509.473 125.661 510.026 124.749L535.031 90.7977C535.677 89.9763 536.6 89.2461 537.061 89.2461L574.983 90.7977Z" fill="url(#paint2_linear_998_4063)"/>
<path d="M537.524 105.301C535.033 108.404 534.756 110.96 535.494 111.142C534.756 111.142 531.711 112.785 529.681 115.979C527.651 119.174 527.651 120.816 529.22 121.455C530.789 122.094 542.783 113.059 542.783 113.059C542.783 113.059 547.212 102.381 544.075 101.377C542.507 100.829 539.831 102.381 537.524 105.301Z" fill="#4D4D4D"/>
<path d="M513.902 121.634C513.256 122.364 513.164 123.094 513.256 123.185C513.349 123.277 512.518 123.185 511.965 124.281C511.411 125.376 511.411 125.467 511.965 125.65C512.518 125.832 514.825 123.733 514.825 123.733C514.825 123.733 516.117 121.269 515.563 120.812C515.009 120.356 514.456 120.995 513.902 121.634Z" fill="#4D4D4D"/>
<path d="M567.602 93.8908C566.864 94.8947 566.864 95.6248 567.602 95.7161C568.34 95.8074 566.218 96.355 565.572 97.3589C564.926 98.3628 565.111 98.8192 565.572 98.9105C566.033 99.0018 570.37 95.8987 570.37 95.8987C570.37 95.8987 571.477 92.7956 570.37 92.5218C569.828 92.4938 569.288 92.6052 568.803 92.8452C568.318 93.0851 567.904 93.4454 567.602 93.8908Z" fill="#4D4D4D"/>
<path d="M31.9869 38.309C31.341 38.309 31.1565 37.305 31.9869 36.6662L58.1912 1.52852C59.2062 0.250791 60.4055 -0.114242 60.9591 0.707157L78.2134 25.8054C78.2134 25.8054 78.2134 26.7181 77.4753 27.2657L58.468 45.519C58.1367 45.8886 57.674 46.1175 57.1763 46.1578L31.9869 38.309Z" fill="url(#paint3_linear_998_4063)"/>
<path d="M57.6349 35.7603C59.388 34.1175 59.8493 32.2922 59.388 32.0184C58.9267 31.7446 61.9716 32.0184 63.6324 29.5542C65.2932 27.09 65.4777 26.1774 64.555 25.2647C63.6323 24.3521 54.4056 28.7328 54.4056 28.7328C54.4056 28.7328 51.0839 35.7603 53.206 37.1293C55.3282 38.4983 56.2509 37.3119 57.6349 35.7603Z" fill="#4D4D4D"/>
<path d="M74.7051 28.9114C75.2587 28.9114 75.4433 27.9987 75.351 27.9074C75.2588 27.8161 75.9045 27.9074 76.3659 27.3598C76.8272 26.8122 76.9195 26.4471 76.3659 26.2646C75.8123 26.0821 74.2437 27.086 74.2437 27.086C74.2437 27.086 73.0442 28.8201 73.2288 29.1852C73.4133 29.5503 73.967 29.2764 74.7051 28.9114Z" fill="#4D4D4D"/>
<path d="M37.1514 37.5802C37.1514 37.0326 37.1514 36.5762 37.1514 36.3937C37.1514 36.2112 38.0742 36.3937 38.4433 35.6636C38.8123 34.9335 38.4433 34.7509 38.4433 34.5684C38.4433 34.3859 35.2138 35.6636 35.2138 35.6636C35.2138 35.6636 34.6602 37.6714 35.2138 38.0365C35.3657 38.1499 35.541 38.2287 35.7273 38.2673C35.9135 38.3059 36.1062 38.3033 36.2913 38.2597C36.4764 38.2161 36.6494 38.1326 36.7981 38.0151C36.9468 37.8976 37.0675 37.7491 37.1514 37.5802Z" fill="#4D4D4D"/>
<path d="M12.0952 209.247L12.1225 208.946L12.2166 208.319L12.2623 208.029L12.4092 207.311L12.3782 207.196L12.5884 206.368L12.6362 206.201L12.8534 205.572L12.9435 205.331L13.1446 204.815L13.2596 204.553C13.3328 204.377 13.4157 204.205 13.5079 204.039L13.6095 203.842L14.0105 203.148L14.4519 202.49C14.5024 202.445 14.5455 202.391 14.5796 202.333C14.7073 202.175 14.8455 201.999 14.9771 201.856C15.0216 201.794 15.0743 201.739 15.1336 201.691C15.3197 201.477 15.5182 201.275 15.7281 201.085C15.8741 200.938 16.0384 200.801 16.2027 200.665L8.58146 206.819C8.41717 206.956 8.25288 207.092 8.09246 207.243C7.88208 207.438 7.69 207.644 7.49793 207.85C7.4584 207.855 7.41968 207.866 7.38252 207.88C7.25095 208.023 7.1377 208.177 7.01 208.335L6.90729 208.47C6.7585 208.664 6.628 208.869 6.4975 209.073C6.3528 209.282 6.22575 209.501 6.11765 209.73L6.02656 209.909L5.79939 210.386L5.73996 210.51L5.68828 210.663L5.48995 211.133L5.41716 211.322L5.44041 211.408L5.24422 212.001L5.20697 212.15L4.9929 212.963L5.03941 213.136L4.90201 213.775L4.92913 213.876L4.9035 214.068L4.81992 214.676L4.79041 214.854L4.82528 214.984L4.76498 215.679L4.81148 215.852L4.76988 216.789L4.80476 216.919L4.87451 217.178L4.89126 217.93L4.93001 218.074L4.99976 218.333L5.04927 219.091L5.11514 219.336L5.16164 219.509L5.28195 220.588L5.3207 220.732L5.53681 222.11L5.63756 222.485L5.95296 223.944L6.6001 226.349L6.72023 226.795C6.79773 227.083 6.87523 227.371 6.95273 227.66L7.06899 228.092L7.12324 228.293L7.18524 228.524L7.87654 230.346L7.93079 230.547L7.96179 230.663L8.05479 231.008L8.4742 231.992L8.5982 232.453L8.81263 232.905L8.90951 233.265L9.29683 234.073L9.63874 234.769L10.0549 235.568L10.2838 236.016L10.583 236.554L11.3833 237.977L11.5812 238.31L12.167 239.28L12.3104 239.813L13.6401 241.882L13.7964 242.118L14.001 242.418L14.4882 243.137L14.7631 243.527L14.986 243.838L15.3574 244.356L15.5985 244.678L15.9583 245.153L16.2515 245.553L16.3741 245.721L17.1302 246.692L17.2932 246.896L17.893 247.631L18.193 247.999L18.6664 248.551L19.4764 249.493L19.4932 250.245L19.6706 250.444L19.8441 250.63L20.7379 251.595L21.4648 252.343L21.5901 252.464L21.6249 252.593L22.613 253.564L23.4015 254.311L23.5451 254.442L23.6482 254.538C23.9837 254.866 24.3441 255.171 24.694 255.494L25.544 256.24L25.8418 256.484L26.4373 256.974L26.8565 257.325L26.9558 257.407L27.7017 257.995L28.036 258.261C28.407 258.547 28.778 258.834 29.1595 259.103C29.5488 259.4 29.9486 259.68 30.3485 259.959L30.913 260.333L31.5546 260.764L32.6172 261.437C32.6849 261.468 32.7479 261.509 32.8041 261.557C33.2328 261.829 33.672 262.082 34.1074 262.321L34.3414 262.444L35.424 263.019C35.464 263.048 35.5069 263.073 35.5521 263.093L35.87 263.24L36.886 263.74L37.1345 263.859L37.3425 263.943C37.8683 264.173 38.3941 264.403 38.9121 264.604C39.0364 264.664 39.1712 264.705 39.2915 264.75L40.0792 265.034L40.5384 265.189L41.1286 265.371L41.2296 265.344C41.3443 265.381 41.461 265.412 41.579 265.436C41.8303 265.508 42.0816 265.58 42.329 265.637L42.7256 265.732C42.9586 265.794 43.2021 265.837 43.4312 265.884C43.6603 265.93 43.6747 265.927 43.7912 265.957C44.1473 266.017 44.4852 266.065 44.8374 266.11C46.0144 266.276 47.206 266.31 48.3902 266.212C49.4594 266.136 50.5141 265.922 51.5278 265.575C52.642 265.196 53.6815 264.626 54.6001 263.891L62.2213 257.737C61.3027 258.471 60.2633 259.041 59.1491 259.421C58.1354 259.768 57.0807 259.982 56.0115 260.057C54.827 260.145 53.6365 260.111 52.4587 259.956C52.1064 259.911 51.7503 259.851 51.4086 259.788C51.2936 259.774 51.1795 259.753 51.0669 259.725C50.8234 259.682 50.576 259.624 50.3286 259.567L49.9502 259.483L49.1859 259.285L48.8508 259.19L48.1076 258.956C47.9728 258.914 47.8236 258.877 47.6849 258.821L46.7586 258.482L46.5218 258.406L46.4496 258.426C45.9316 258.224 45.4241 258.005 44.9166 257.785L44.4601 257.583L43.4296 257.086L42.9982 256.861L41.9156 256.286L41.6266 256.132L40.3599 255.389L39.726 254.987C39.5064 254.86 39.2868 254.734 39.0777 254.589L38.3995 254.137L37.835 253.763C37.0209 253.208 36.2212 252.65 35.4088 251.987L35.1332 251.767L34.2293 251.051L33.8284 250.711L32.9312 249.962C32.2509 249.387 31.5916 248.776 30.9073 248.187L30.7598 248.041C30.1166 247.451 29.4901 246.847 28.8802 246.227L28.8414 246.083C28.2254 245.461 27.6316 244.863 27.0289 244.174L26.8698 243.985C26.2566 243.316 25.6723 242.638 25.0802 241.932L24.0724 240.657L24.0491 240.571L23.13 239.396L22.8628 239.035L22.2502 238.195L21.8827 237.691L21.381 236.976L20.8977 236.271L20.5368 235.735C20.0756 235.055 19.6588 234.426 19.2032 233.652L18.6734 232.775L18.3857 232.28C18.1058 231.815 17.8404 231.345 17.5855 230.858L17.0689 229.915L16.6411 229.072L16.3031 228.391L15.9119 227.569L15.6559 227.02C15.3323 226.334 15.0376 225.641 14.765 224.973L14.703 224.743C14.5325 224.109 14.2178 223.514 14.004 222.892L13.8839 222.445L13.7676 222.013L13.5429 221.178L13.415 220.703L13.1127 219.579C13.0081 219.191 12.9035 218.802 12.7988 218.413L12.4641 216.881L12.3711 216.536L12.1511 215.144L12.1046 214.971L11.9948 213.873L11.9623 213.465L11.9051 212.678L11.887 212.266L11.8847 211.51L11.881 211.094L11.9226 210.157L11.9289 209.893L12.0952 209.247Z" fill="url(#paint4_linear_998_4063)"/>
<path d="M12.8402 218.528L12.5054 216.996L12.4124 216.65L12.1924 215.258L12.1459 215.085L12.0361 213.988L12.0037 213.58L11.9464 212.792L11.9283 212.38L11.926 211.625L11.9224 211.209L4.30035 217.364L4.33523 217.494L4.40499 217.753L4.42173 218.505L4.46049 218.649L4.53024 218.908L4.57975 219.667L4.64563 219.911L4.69214 220.084L4.81247 221.164L4.85122 221.308L5.06736 222.685L5.16812 223.06L5.48352 224.519L5.82456 225.787L13.4466 219.632C13.3419 219.243 13.2373 218.854 13.1327 218.465L12.8402 218.528Z" fill="url(#paint5_linear_998_4063)"/>
<path d="M48.6515 266.291C49.7213 266.216 50.7766 266.001 51.7908 265.654L59.4161 259.495C58.4019 259.842 57.3466 260.056 56.2768 260.132C55.0917 260.22 53.9005 260.186 52.7221 260.03L45.0968 266.19C46.2744 266.355 47.4667 266.389 48.6515 266.291Z" fill="url(#paint6_linear_998_4063)"/>
<path d="M29.2209 246.239L29.1821 246.095C28.566 245.472 27.9721 244.874 27.3693 244.186L27.2101 243.997C26.5968 243.327 26.0123 242.649 25.4201 241.943L17.7971 248.098L18.2707 248.651L19.0808 249.593L19.4767 250.259L19.6541 250.459L19.8277 250.644L20.7216 251.61L21.4487 252.358L21.574 252.478L21.6089 252.608L22.5972 253.579L23.3858 254.326L23.5295 254.458L23.6326 254.554C23.9682 254.881 24.3286 255.186 24.6786 255.51L25.5288 256.255L33.1479 250.085C32.4674 249.51 31.808 248.899 31.1236 248.31L30.9761 248.164C30.3968 247.505 29.8117 246.864 29.2209 246.239Z" fill="url(#paint7_linear_998_4063)"/>
<path d="M11.9861 211.169C11.9777 214.063 12.3732 216.944 13.1612 219.73C14.2706 223.641 15.8347 227.41 17.8216 230.959C19.9598 234.865 22.4796 238.552 25.3443 241.964C27.7449 244.854 30.3858 247.537 33.2388 249.983C39.7211 255.57 46.6994 259.265 52.7822 260.034C53.9601 260.189 55.1506 260.223 56.3351 260.136C57.4044 260.06 58.4592 259.846 59.4728 259.499C64.2272 257.86 66.7364 253.394 66.8437 247.299C66.8453 244.405 66.445 241.525 65.6542 238.741C64.5675 234.828 63.0328 231.053 61.0803 227.489C58.9122 223.59 56.3685 219.911 53.4855 216.504C51.0858 213.607 48.4434 210.919 45.5871 208.47C39.1126 202.912 32.1304 199.203 26.0476 198.433C24.8745 198.279 23.689 198.244 22.5091 198.328C21.4351 198.405 20.3756 198.62 19.357 198.968C14.592 200.625 12.079 205.078 11.9861 211.169Z" fill="url(#paint8_linear_998_4063)"/>
<path d="M44.1706 213.247C46.3664 215.139 48.4023 217.208 50.2576 219.433L51.0948 220.476L53.4855 216.488C51.0809 213.596 48.439 210.909 45.587 208.455L43.1924 212.428L44.1706 213.247Z" fill="url(#paint9_linear_998_4063)"/>
<path d="M60.5188 243.125C60.5963 243.413 60.4968 243.733 60.48 244.015L66.8338 247.289C66.8405 244.395 66.4451 241.514 65.6589 238.728L59.2907 235.458L59.5813 236.538C60.1984 238.68 60.514 240.897 60.5188 243.125Z" fill="url(#paint10_linear_998_4063)"/>
<path d="M23.3037 206.227C23.5346 206.166 23.7655 206.104 23.9769 205.971C24.758 205.701 25.5716 205.536 26.3965 205.479C27.3053 205.407 28.2195 205.432 29.1231 205.555L30.0098 205.689L26.0527 198.455C24.8744 198.303 23.6841 198.269 22.4993 198.353C21.425 198.43 20.3654 198.646 19.3466 198.993L23.3037 206.227Z" fill="url(#paint11_linear_998_4063)"/>
<path d="M54.8372 252.508C54.0561 252.778 53.2425 252.943 52.4176 253C51.5088 253.073 50.5946 253.047 49.691 252.924L48.8044 252.79L52.7759 260.021C53.9539 260.176 55.1446 260.21 56.3293 260.122C57.3987 260.047 58.4536 259.833 59.4675 259.486L55.5104 252.252C55.2873 252.342 55.0642 252.432 54.8372 252.508Z" fill="url(#paint12_linear_998_4063)"/>
<path d="M33.2266 249.982L35.6251 246.023L34.6469 245.203C32.4528 243.32 30.4226 241.254 28.5782 239.028L27.7267 237.989L25.332 241.962C27.7354 244.85 30.3761 247.532 33.2266 249.982Z" fill="url(#paint13_linear_998_4063)"/>
<path d="M13.1687 219.738L19.5225 223.012L19.2319 221.932C18.6113 219.79 18.3005 217.571 18.3089 215.341L18.3438 214.437L11.9939 211.177C11.9783 214.071 12.3739 216.954 13.1687 219.738Z" fill="url(#paint14_linear_998_4063)"/>
<path d="M18.3378 214.441L18.3029 215.345C18.2945 217.575 18.6054 219.795 19.2261 221.937L19.5168 223.017C20.348 225.643 21.4399 228.18 22.7762 230.591C24.2084 233.2 25.8642 235.682 27.7251 238.007L28.5767 239.045C30.421 241.271 32.4512 243.337 34.6453 245.221L35.6235 246.04C39.3973 249.337 43.9197 251.664 48.7975 252.821L49.684 252.955C50.5875 253.078 51.5016 253.103 52.4102 253.03C53.235 252.974 54.0484 252.808 54.8294 252.539C55.0602 252.477 55.2911 252.416 55.5025 252.282C58.5014 250.957 60.1808 247.947 60.4605 244.044C60.4773 243.762 60.5047 243.461 60.4993 243.154C60.5046 240.924 60.1987 238.704 59.5905 236.558L59.2999 235.478C58.4707 232.856 57.3801 230.324 56.0443 227.919C54.6128 225.304 52.9556 222.817 51.0915 220.489L50.2544 219.446C48.3991 217.221 46.3632 215.152 44.1675 213.26L43.1932 212.455C39.4194 209.159 34.8969 206.831 30.0191 205.675L29.1326 205.541C28.2291 205.418 27.3151 205.393 26.4064 205.466C25.5817 205.522 24.7682 205.687 23.9872 205.957C23.7564 206.018 23.5256 206.08 23.3141 206.213C20.3047 207.557 18.6203 210.491 18.3378 214.441Z" fill="url(#paint15_linear_998_4063)"/>
<path d="M38.5121 247.224C38.5038 247.08 38.4624 246.94 38.3911 246.815C38.3197 246.689 38.2204 246.582 38.1008 246.5C37.0516 245.762 36.0118 244.943 34.9853 244.059C34.6692 243.804 34.3637 243.531 34.0542 243.243C33.9455 243.135 33.8017 243.069 33.6488 243.058C33.6185 243.048 33.586 243.047 33.5553 243.055C33.5246 243.063 33.4969 243.08 33.4756 243.104C33.4642 243.24 33.4872 243.377 33.5425 243.503C33.5979 243.628 33.6839 243.738 33.7926 243.822L34.7641 244.674C35.8039 245.576 36.8891 246.426 38.0155 247.218C38.1028 247.291 38.212 247.332 38.3256 247.336C38.3719 247.333 38.4151 247.312 38.4463 247.278C38.4774 247.243 38.4941 247.198 38.4927 247.152" fill="url(#paint16_linear_998_4063)"/>
<path d="M59.9053 241.733C59.8778 241.59 59.8223 241.454 59.7418 241.332C59.6613 241.211 59.5575 241.106 59.4365 241.025C59.3561 240.978 59.264 240.954 59.1708 240.957C59.0699 240.984 58.9833 241.007 59.001 241.187L59.0104 242.142C59.0007 243.032 58.9083 243.92 58.7343 244.793C58.7276 244.934 58.7576 245.075 58.8213 245.201C58.8851 245.327 58.9805 245.435 59.0983 245.514C59.1951 245.602 59.3183 245.656 59.4488 245.667C59.4908 245.664 59.5306 245.647 59.5621 245.619C59.5937 245.591 59.6152 245.554 59.6236 245.512C59.8042 244.597 59.9007 243.667 59.9119 242.735L59.9053 241.733Z" fill="url(#paint17_linear_998_4063)"/>
<path d="M19.1995 212.945C19.2006 213.085 19.234 213.223 19.2971 213.348C19.3603 213.473 19.4515 213.582 19.5636 213.666C19.662 213.76 19.7924 213.813 19.9286 213.815C19.9693 213.815 20.0083 213.799 20.038 213.771C20.0676 213.743 20.0858 213.705 20.089 213.665C20.3079 212.636 20.6894 211.648 21.2192 210.739C21.2563 210.613 21.2579 210.479 21.2237 210.352C21.1895 210.225 21.1209 210.11 21.0255 210.019C20.9092 209.888 20.7492 209.805 20.5756 209.784C20.5198 209.783 20.4648 209.797 20.4169 209.826C19.8674 210.778 19.472 211.811 19.2456 212.886" fill="url(#paint18_linear_998_4063)"/>
<path d="M36.1766 208.773C36.2077 208.916 36.2692 209.051 36.3569 209.169C36.4446 209.286 36.5564 209.384 36.685 209.455C38.1043 210.196 39.4714 211.033 40.7768 211.96C40.8637 212.029 40.972 212.066 41.083 212.064C41.1066 212.064 41.13 212.06 41.1517 212.051C41.1734 212.041 41.1928 212.028 41.2087 212.01C41.2245 211.993 41.2364 211.972 41.2436 211.95C41.2507 211.927 41.253 211.904 41.2501 211.88C41.2407 211.737 41.1988 211.597 41.1276 211.471C41.0564 211.346 40.9577 211.238 40.8388 211.156C39.4732 210.187 38.0397 209.315 36.5495 208.55C36.4832 208.51 36.4081 208.488 36.331 208.485C36.2155 208.515 36.129 208.538 36.1766 208.773Z" fill="url(#paint19_linear_998_4063)"/>
<path d="M44.4749 214.521C44.3982 214.696 44.6027 214.997 44.7773 215.243C46.1273 216.448 47.3989 217.738 48.5841 219.105C48.7072 219.254 48.8825 219.351 49.0743 219.375C49.0972 219.38 49.1208 219.38 49.1434 219.374C49.1659 219.367 49.1867 219.356 49.2041 219.341C49.3252 219.216 49.2438 218.913 49.022 218.664C47.7694 217.244 46.4407 215.893 45.0418 214.617C44.9365 214.504 44.7907 214.438 44.6363 214.432C44.6061 214.422 44.5736 214.421 44.5429 214.429C44.5122 214.438 44.4845 214.455 44.4632 214.478" fill="url(#paint20_linear_998_4063)"/>
<path d="M19.5067 221.038C19.547 221.177 19.6162 221.306 19.7099 221.417C19.8036 221.528 19.9196 221.617 20.0503 221.68C20.1063 221.683 20.1618 221.668 20.2089 221.638C20.3386 221.603 20.4252 221.58 20.3699 221.317C20.0441 219.966 19.849 218.586 19.7873 217.198C19.7692 217.052 19.7174 216.912 19.6361 216.789C19.5548 216.666 19.4461 216.564 19.3186 216.49C19.2433 216.438 19.155 216.408 19.0636 216.403C18.9627 216.43 18.8762 216.453 18.8977 216.648C18.953 218.103 19.1505 219.549 19.4874 220.966" fill="url(#paint21_linear_998_4063)"/>
<path d="M58.4418 248.573C58.4789 248.447 58.4805 248.313 58.4463 248.186C58.4121 248.059 58.3435 247.943 58.248 247.853C58.1946 247.785 58.1269 247.731 58.0498 247.692C57.9726 247.654 57.888 247.634 57.802 247.632C57.774 247.628 57.7456 247.63 57.7183 247.637C57.691 247.644 57.6655 247.657 57.6433 247.674C57.1632 248.507 56.5157 249.232 55.7414 249.803C55.5827 249.845 55.6613 250.195 55.9158 250.451C55.9739 250.539 56.0505 250.614 56.1404 250.67C56.2302 250.726 56.3311 250.762 56.4362 250.775C56.4715 250.774 56.5061 250.765 56.5372 250.748C57.3459 250.15 58.0266 249.396 58.539 248.532" fill="url(#paint22_linear_998_4063)"/>
<path d="M46.7523 251.263C46.7049 251.122 46.628 250.993 46.5268 250.884C46.4255 250.776 46.3022 250.69 46.165 250.632C44.7975 250.209 43.4706 249.664 42.2005 249.004C42.1328 248.967 42.0584 248.945 41.9819 248.938C41.8665 248.969 41.7799 248.992 41.813 249.231C41.846 249.373 41.9081 249.507 41.9957 249.625C42.0832 249.742 42.1941 249.841 42.3215 249.913C43.6547 250.599 45.0446 251.168 46.4758 251.614C46.5163 251.614 46.556 251.604 46.5912 251.584C46.7355 251.545 46.8133 251.432 46.7407 251.22" fill="url(#paint23_linear_998_4063)"/>
<path d="M30.4281 240.077C30.5491 239.953 30.4639 239.636 30.2421 239.386C30.0204 239.137 29.6396 238.698 29.3397 238.331C28.4739 237.296 27.6253 236.211 26.9132 235.058C26.8508 234.957 26.7663 234.871 26.6661 234.807C26.5659 234.743 26.4525 234.702 26.3344 234.688C26.1613 234.734 26.1994 235.048 26.3961 235.319C27.2208 236.488 28.0849 237.631 28.995 238.716L29.9601 239.832C30.0169 239.907 30.0883 239.97 30.17 240.017C30.2518 240.065 30.3422 240.095 30.4358 240.106C30.4358 240.106 30.5368 240.079 30.5657 240.072" fill="url(#paint24_linear_998_4063)"/>
<path d="M57.8321 232.735C57.7793 232.6 57.698 232.479 57.5938 232.379C57.4895 232.279 57.3648 232.202 57.2282 232.155C57.0697 232.197 56.9997 232.34 57.0983 232.591C57.5499 233.71 57.935 234.854 58.2515 236.018L58.5264 237.04C58.5657 237.184 58.6351 237.318 58.7301 237.434C58.8251 237.55 58.9436 237.644 59.0776 237.711C59.1306 237.728 59.1855 237.739 59.2411 237.744C59.3709 237.709 59.4341 237.6 59.3982 237.409L59.1078 236.329C58.7756 235.108 58.3751 233.906 57.9081 232.73" fill="url(#paint25_linear_998_4063)"/>
<path d="M22.3774 207.681C22.2331 207.719 22.2973 208.073 22.552 208.33C22.6122 208.416 22.6894 208.489 22.7789 208.545C22.8683 208.601 22.9683 208.638 23.0725 208.654C23.1078 208.653 23.1425 208.644 23.1735 208.627C23.7665 208.197 24.4221 207.861 25.1176 207.629C25.3444 207.554 25.5758 207.492 25.8104 207.445C25.9981 207.395 26.0043 207.13 25.8257 206.869C25.6471 206.607 25.3935 206.413 25.227 206.426C24.9816 206.492 24.7362 206.557 24.5052 206.619C23.7757 206.863 23.0885 207.218 22.4679 207.672" fill="url(#paint26_linear_998_4063)"/>
<path d="M28.3767 206.619C28.4311 206.75 28.5158 206.867 28.6239 206.959C28.732 207.05 28.8604 207.116 28.9985 207.148C29.2816 207.165 29.5685 207.197 29.8592 207.243C30.8119 207.361 31.7521 207.565 32.6682 207.852C32.709 207.854 32.7494 207.844 32.7837 207.821C32.928 207.783 33.0019 207.655 32.9293 207.443C32.8823 207.304 32.8058 207.177 32.7051 207.071C32.6044 206.965 32.4818 206.881 32.3458 206.826C31.3882 206.531 30.4086 206.313 29.4164 206.172C29.0968 206.134 28.7955 206.106 28.498 206.093C28.3248 206.139 28.2665 206.325 28.3978 206.583" fill="url(#paint27_linear_998_4063)"/>
<path d="M20.9773 225.706C21.6378 227.359 22.4013 228.969 23.2635 230.527C23.417 230.811 23.6924 231.03 23.8876 231.009C24.0828 230.988 24.1295 230.759 23.9761 230.476C23.1476 228.986 22.4178 227.444 21.7912 225.859C21.7402 225.723 21.6595 225.601 21.555 225.501C21.4504 225.4 21.3248 225.325 21.1872 225.279C21.1872 225.279 21.1872 225.279 21.1151 225.298C21.043 225.318 20.8865 225.483 20.9851 225.734" fill="url(#paint28_linear_998_4063)"/>
<path d="M51.9414 222.769C51.7683 222.815 51.8064 223.129 51.9887 223.404C53.0339 224.864 53.9861 226.388 54.8395 227.968C54.9009 228.092 54.9907 228.2 55.1016 228.283C55.2126 228.366 55.3416 228.422 55.4782 228.445C55.6656 228.395 55.7018 228.185 55.5483 227.902C54.6526 226.251 53.6557 224.656 52.5634 223.127C52.5055 223.025 52.4242 222.938 52.3261 222.873C52.228 222.808 52.1159 222.767 51.999 222.753" fill="url(#paint29_linear_998_4063)"/>
<path d="M53.6957 252.059C53.8833 252.008 53.8751 251.748 53.711 251.483C53.6526 251.37 53.5683 251.272 53.4649 251.197C53.3615 251.123 53.242 251.074 53.1161 251.054C52.601 251.187 52.0744 251.271 51.5433 251.304C50.995 251.355 50.4436 251.363 49.894 251.327C49.7208 251.373 49.6768 251.555 49.7938 251.817C49.8511 251.947 49.9368 252.061 50.0445 252.153C50.1521 252.244 50.2791 252.311 50.4159 252.347C50.9919 252.384 51.5698 252.379 52.1451 252.333C52.7005 252.294 53.2511 252.204 53.79 252.064" fill="url(#paint30_linear_998_4063)"/>
<path d="M51.1099 250.608C50.2893 250.669 49.4645 250.645 48.6484 250.539C44.4539 250.007 39.6226 247.452 35.1526 243.598C33.1759 241.906 31.347 240.05 29.6856 238.049C27.7324 235.675 26.0098 233.121 24.541 230.422C23.1699 227.965 22.0895 225.358 21.3216 222.653C20.7714 220.716 20.4925 218.712 20.4928 216.7C20.5679 212.497 22.304 209.41 25.5852 208.272C26.2885 208.04 27.0169 207.892 27.7552 207.832C28.576 207.778 29.4001 207.801 30.2168 207.9C34.4113 208.433 39.2465 211.001 43.7309 214.852C45.6971 216.545 47.5196 218.398 49.1796 220.391C51.1602 222.753 52.9072 225.3 54.3964 227.998C55.7624 230.457 56.838 233.065 57.6013 235.771C58.1515 237.708 58.4304 239.711 58.4301 241.724C58.3588 245.941 56.6188 249.014 53.3377 250.152C52.6164 250.394 51.8684 250.546 51.1099 250.608Z" fill="url(#paint31_linear_998_4063)"/>
<g style="mix-blend-mode:overlay">
<path d="M15.7799 201.082L15.1221 201.798C14.5353 202.513 14.0289 203.29 13.6119 204.115C13.0268 205.421 12.623 206.801 12.4118 208.217C12.1751 210.054 12.1565 211.914 12.3564 213.757C12.5852 215.936 13.0245 218.088 13.668 220.183C13.9741 221.32 14.3745 222.464 14.847 223.588C15.0059 224.178 15.2802 224.738 15.5295 225.32L16.3206 227.053L16.709 227.922L17.1589 228.79L18.0588 230.525C18.7016 231.65 19.3744 232.829 20.0827 233.967L21.1845 235.649L21.7393 236.504L22.3441 237.315L23.5469 238.97C23.9549 239.509 24.3917 240.041 24.8141 240.577C25.6444 241.651 26.5498 242.66 27.434 243.705L28.8221 245.187L29.5162 245.928L30.2315 246.632C32.1001 248.488 34.081 250.227 36.163 251.841L37.6901 252.977L38.4425 253.532L39.2122 254.037L40.7371 255.05C41.239 255.364 41.7658 255.655 42.2782 255.951C43.2781 256.564 44.3151 257.028 45.2984 257.522C45.7847 257.778 46.295 257.95 46.7986 258.156L48.2505 258.725C50.0084 259.321 51.8238 259.731 53.6668 259.95C55.0936 260.105 56.5346 260.068 57.9511 259.841C58.5281 259.687 59.0474 259.548 59.4946 259.429C59.9418 259.31 60.2975 259.138 60.5849 258.999C61.1559 258.708 61.4722 258.562 61.4722 258.562L60.611 259.039C60.3274 259.191 59.9496 259.339 59.5179 259.515C59.0862 259.692 58.5514 259.773 57.9599 259.931C56.5334 260.214 55.0747 260.302 53.624 260.193C52.7291 260.141 51.8393 260.023 50.962 259.838C50.4831 259.768 50.0101 259.662 49.5471 259.521C49.0629 259.388 48.5748 259.24 48.0761 259.111C47.5775 258.982 47.095 258.74 46.5848 258.568C46.0745 258.395 45.5565 258.194 45.0557 257.941C44.0331 257.473 42.9516 256.959 41.9423 256.426C41.4299 256.131 40.8925 255.857 40.3763 255.548L38.8119 254.56L38.0095 254.049L37.2427 253.497L35.6723 252.373C33.5505 250.765 31.533 249.025 29.632 247.163L28.9024 246.462L28.19 245.711C27.7177 245.219 27.2309 244.732 26.7691 244.222C25.8743 243.195 24.9469 242.162 24.0982 241.076C23.6719 240.526 23.2351 239.995 22.8232 239.441L21.631 237.768L21.0185 236.928L20.4598 236.058L19.3464 234.334C18.6486 233.177 17.9836 232.027 17.3436 230.855L16.4359 229.091L15.9821 228.209L15.5899 227.325L14.8198 225.555C14.5561 224.977 14.3645 224.38 14.1441 223.791C13.6743 222.62 13.3644 221.468 13.0294 220.338C12.4082 218.185 12.0102 215.974 11.8416 213.74C11.6816 211.864 11.7606 209.976 12.0768 208.121C12.3396 206.689 12.8045 205.302 13.4577 204.002C13.9008 203.182 14.4437 202.42 15.0739 201.734L15.7799 201.082Z" fill="#DBDBDB"/>
</g>
<path d="M148.563 288.538L148.408 288.5L148.088 288.401L147.94 288.355L147.576 288.221L147.514 288.228L147.098 288.053L147.015 288.015L146.703 287.852L146.585 287.786L146.331 287.641L146.203 287.56C146.117 287.508 146.034 287.451 145.954 287.39L145.859 287.322L145.529 287.058L145.22 286.776C145.2 286.746 145.175 286.72 145.147 286.697C145.075 286.619 144.994 286.533 144.93 286.453C144.901 286.425 144.876 286.393 144.856 286.358C144.759 286.245 144.669 286.125 144.586 286.001C144.521 285.914 144.462 285.817 144.404 285.721L147.019 290.172C147.078 290.268 147.136 290.365 147.202 290.46C147.288 290.585 147.38 290.701 147.472 290.817C147.472 290.838 147.474 290.859 147.479 290.88C147.544 290.959 147.615 291.031 147.687 291.109L147.75 291.174C147.84 291.266 147.936 291.35 148.033 291.435C148.13 291.526 148.235 291.61 148.346 291.684L148.432 291.746L148.663 291.902L148.724 291.943L148.799 291.982L149.029 292.122L149.122 292.175L149.169 292.17L149.463 292.319L149.538 292.35L149.946 292.526L150.04 292.515L150.362 292.637L150.417 292.631L150.515 292.66L150.827 292.752L150.917 292.781L150.987 292.773L151.346 292.86L151.44 292.849L151.926 292.946L151.996 292.938L152.137 292.922L152.531 292.973L152.609 292.964L152.75 292.949L153.15 292.983L153.283 292.968L153.377 292.958L153.95 292.981L154.028 292.972L154.764 292.969L154.968 292.947L155.754 292.899L157.061 292.753L157.303 292.726C157.46 292.709 157.616 292.691 157.773 292.674L158.007 292.648L158.117 292.636L158.242 292.622L159.248 292.407L159.357 292.395L159.42 292.388L159.608 292.367L160.154 292.227L160.405 292.199L160.658 292.124L160.853 292.102L161.305 291.965L161.695 291.842L162.146 291.689L162.398 291.606L162.702 291.493L163.507 291.19L163.697 291.114L164.249 290.886L164.539 290.854L165.723 290.327L165.859 290.264L166.032 290.182L166.445 289.986L166.67 289.874L166.85 289.783L167.15 289.631L167.337 289.531L167.613 289.381L167.845 289.261L167.942 289.21L168.509 288.894L168.628 288.826L169.059 288.572L169.274 288.446L169.6 288.243L170.155 287.897L170.549 287.948L170.667 287.872L170.778 287.796L171.352 287.408L171.799 287.09L171.872 287.034L171.943 287.026L172.527 286.59L172.979 286.239L173.059 286.175L173.117 286.129C173.314 285.981 173.502 285.817 173.698 285.661L174.154 285.278L174.305 285.143L174.608 284.872L174.824 284.682L174.874 284.637L175.24 284.296L175.405 284.143C175.584 283.973 175.763 283.803 175.933 283.626C176.119 283.447 176.296 283.262 176.473 283.076L176.713 282.812L176.988 282.513L177.423 282.014C177.445 281.981 177.471 281.952 177.5 281.926C177.676 281.725 177.843 281.517 178.001 281.309L178.084 281.198L178.469 280.68C178.488 280.662 178.504 280.642 178.518 280.62L178.62 280.466L178.961 279.978L179.042 279.858L179.102 279.756C179.264 279.501 179.425 279.246 179.571 278.993C179.612 278.933 179.644 278.866 179.677 278.807L179.887 278.42L180.004 278.194L180.145 277.901L180.139 277.847C180.167 277.79 180.192 277.732 180.214 277.672C180.272 277.548 180.329 277.423 180.378 277.299L180.459 277.1C180.509 276.984 180.551 276.86 180.593 276.745C180.636 276.63 180.635 276.622 180.66 276.564C180.719 276.383 180.771 276.212 180.822 276.032C181.001 275.433 181.112 274.816 181.154 274.193C181.198 273.631 181.169 273.066 181.068 272.511C180.957 271.902 180.741 271.316 180.43 270.78L177.814 266.329C178.126 266.865 178.342 267.451 178.452 268.06C178.554 268.615 178.583 269.18 178.539 269.742C178.491 270.365 178.38 270.981 178.207 271.581C178.156 271.76 178.097 271.941 178.037 272.114C178.02 272.172 178 272.23 177.977 272.286C177.935 272.409 177.886 272.533 177.837 272.657L177.763 272.847L177.6 273.229L177.524 273.396L177.343 273.764C177.311 273.83 177.28 273.905 177.24 273.973L176.99 274.427L176.932 274.544L176.936 274.583C176.79 274.837 176.636 275.083 176.481 275.33L176.34 275.551L176 276.047L175.849 276.254L175.463 276.771L175.36 276.909L174.873 277.508L174.613 277.806C174.53 277.91 174.447 278.014 174.354 278.111L174.065 278.428L173.826 278.692C173.472 279.071 173.118 279.442 172.708 279.812L172.572 279.938L172.127 280.351L171.918 280.532L171.456 280.939C171.103 281.247 170.732 281.542 170.371 281.851L170.283 281.916C169.924 282.203 169.56 282.481 169.188 282.749L169.11 282.758C168.737 283.028 168.378 283.29 167.971 283.548L167.86 283.616C167.462 283.882 167.062 284.132 166.647 284.383L165.903 284.806L165.856 284.811L165.17 285.196L164.961 285.306L164.474 285.558L164.182 285.709L163.769 285.913L163.364 286.108L163.055 286.253C162.664 286.439 162.303 286.606 161.863 286.781L161.363 286.987L161.083 287.097C160.818 287.206 160.552 287.306 160.277 287.4L159.744 287.594L159.271 287.749L158.888 287.871L158.429 288.009L158.122 288.099C157.738 288.212 157.353 288.31 156.983 288.399L156.858 288.413C156.514 288.451 156.178 288.568 155.837 288.629L155.594 288.656L155.359 288.683L154.906 288.733L154.648 288.762L154.037 288.83C153.826 288.853 153.615 288.877 153.404 288.9L152.578 288.953L152.39 288.974L151.646 288.977L151.552 288.988L150.97 288.958L150.755 288.942L150.339 288.91L150.123 288.886L149.728 288.827L149.51 288.796L149.024 288.7L148.887 288.676L148.563 288.538Z" fill="url(#paint32_linear_998_4063)"/>
<path d="M153.45 288.877L152.624 288.929L152.437 288.95L151.692 288.954L151.599 288.964L151.017 288.934L150.801 288.918L150.386 288.886L150.169 288.862L149.774 288.804L149.557 288.772L152.172 293.223L152.243 293.215L152.384 293.2L152.778 293.251L152.856 293.242L152.997 293.226L153.397 293.261L153.53 293.246L153.623 293.236L154.196 293.259L154.275 293.25L155.011 293.247L155.214 293.224L156.001 293.176L156.689 293.1L154.074 288.649C153.863 288.673 153.652 288.696 153.44 288.72L153.45 288.877Z" fill="url(#paint33_linear_998_4063)"/>
<path d="M181.222 274.049C181.266 273.487 181.237 272.922 181.136 272.367L178.522 267.918C178.623 268.472 178.652 269.037 178.608 269.599C178.56 270.222 178.449 270.838 178.276 271.437L180.89 275.887C181.069 275.288 181.18 274.672 181.222 274.049Z" fill="url(#paint34_linear_998_4063)"/>
<path d="M169.222 282.562L169.144 282.571C168.77 282.842 168.411 283.103 168.005 283.361L167.894 283.429C167.496 283.695 167.096 283.945 166.681 284.196L169.296 288.647L169.622 288.444L170.177 288.098L170.556 287.945L170.674 287.869L170.784 287.793L171.358 287.406L171.806 287.087L171.879 287.032L171.949 287.024L172.534 286.587L172.985 286.237L173.065 286.172L173.123 286.126C173.321 285.978 173.508 285.815 173.704 285.659L174.16 285.276L171.537 280.827C171.184 281.135 170.813 281.429 170.452 281.738L170.364 281.803C169.975 282.051 169.594 282.305 169.222 282.562Z" fill="url(#paint35_linear_998_4063)"/>
<path d="M149.557 288.748C151.068 288.982 152.603 289.005 154.12 288.817C156.249 288.551 158.339 288.037 160.348 287.286C162.556 286.484 164.678 285.467 166.684 284.249C168.382 283.23 169.99 282.071 171.491 280.782C174.917 277.855 177.393 274.521 178.272 271.42C178.446 270.82 178.557 270.204 178.604 269.581C178.649 269.019 178.62 268.454 178.518 267.899C178.036 265.297 175.9 263.638 172.727 263.098C171.216 262.868 169.681 262.847 168.165 263.037C166.037 263.291 163.945 263.789 161.931 264.521C159.726 265.339 157.605 266.369 155.6 267.597C153.899 268.615 152.288 269.775 150.785 271.065C147.375 273.99 144.891 277.325 144.012 280.426C143.839 281.024 143.728 281.637 143.679 282.257C143.635 282.822 143.664 283.39 143.766 283.947C144.257 286.556 146.385 288.216 149.557 288.748Z" fill="url(#paint36_linear_998_4063)"/>
<path d="M153.166 272.193C154.326 271.202 155.567 270.307 156.874 269.52L157.484 269.167L155.59 267.608C153.891 268.628 152.281 269.788 150.775 271.076L152.662 272.636L153.166 272.193Z" fill="url(#paint37_linear_998_4063)"/>
<path d="M170.065 266.066C170.222 266.048 170.381 266.125 170.527 266.156L172.735 263.112C171.225 262.879 169.689 262.856 168.173 263.043L165.965 266.095L166.552 266.03C167.719 265.879 168.901 265.891 170.065 266.066Z" fill="url(#paint38_linear_998_4063)"/>
<path d="M147.857 282.487C147.843 282.362 147.829 282.237 147.776 282.116C147.696 281.689 147.674 281.253 147.709 280.82C147.742 280.342 147.827 279.869 147.962 279.409L148.102 278.958L144.015 280.441C143.844 281.041 143.732 281.657 143.683 282.279C143.639 282.844 143.668 283.412 143.77 283.969L147.857 282.487Z" fill="url(#paint39_linear_998_4063)"/>
<path d="M174.517 269.757C174.597 270.185 174.619 270.621 174.584 271.054C174.551 271.532 174.466 272.005 174.331 272.465L174.191 272.915L178.277 271.425C178.451 270.825 178.562 270.209 178.609 269.586C178.653 269.024 178.625 268.459 178.523 267.905L174.436 269.387C174.466 269.51 174.496 269.633 174.517 269.757Z" fill="url(#paint40_linear_998_4063)"/>
<path d="M171.488 280.761L169.609 279.2L169.105 279.643C167.949 280.634 166.711 281.525 165.404 282.307L164.795 282.668L166.681 284.228C168.378 283.208 169.985 282.048 171.488 280.761Z" fill="url(#paint41_linear_998_4063)"/>
<path d="M154.105 288.803L156.313 285.759L155.727 285.824C154.559 285.977 153.376 285.962 152.212 285.78L151.743 285.69L149.542 288.734C151.052 288.972 152.588 288.995 154.105 288.803Z" fill="url(#paint42_linear_998_4063)"/>
<path d="M151.76 285.713L152.229 285.803C153.393 285.984 154.576 285.999 155.743 285.846L156.33 285.781C157.766 285.557 159.177 285.191 160.54 284.688C162.015 284.151 163.44 283.487 164.8 282.704L165.409 282.344C166.716 281.562 167.954 280.67 169.11 279.679L169.615 279.236C171.632 277.536 173.202 275.37 174.189 272.926L174.328 272.475C174.463 272.015 174.548 271.542 174.581 271.064C174.617 270.631 174.594 270.195 174.515 269.767C174.501 269.643 174.487 269.518 174.434 269.397C173.977 267.733 172.537 266.621 170.522 266.165C170.375 266.134 170.221 266.096 170.06 266.074C168.896 265.895 167.713 265.877 166.545 266.023L165.958 266.088C164.524 266.311 163.116 266.677 161.756 267.181C160.278 267.717 158.85 268.381 157.488 269.165L156.878 269.518C155.57 270.305 154.33 271.2 153.17 272.191L152.673 272.633C150.656 274.333 149.086 276.5 148.099 278.944L147.96 279.394C147.825 279.854 147.74 280.327 147.707 280.805C147.671 281.238 147.694 281.674 147.773 282.102C147.787 282.227 147.801 282.352 147.854 282.472C148.32 284.143 149.72 285.252 151.76 285.713Z" fill="url(#paint43_linear_998_4063)"/>
<path d="M170.472 277.805C170.396 277.798 170.32 277.808 170.249 277.835C170.178 277.862 170.114 277.906 170.062 277.961C169.594 278.448 169.085 278.924 168.543 279.387C168.385 279.531 168.218 279.668 168.043 279.806C167.979 279.854 167.933 279.924 167.915 280.002C167.907 280.017 167.904 280.034 167.906 280.051C167.908 280.067 167.915 280.083 167.926 280.096C167.996 280.113 168.069 280.112 168.139 280.093C168.209 280.074 168.273 280.038 168.325 279.988L168.846 279.551C169.399 279.082 169.928 278.585 170.43 278.063C170.475 278.023 170.505 277.97 170.516 277.911C170.518 277.886 170.51 277.862 170.495 277.843C170.479 277.825 170.457 277.812 170.433 277.809" fill="url(#paint44_linear_998_4063)"/>
<path d="M169.281 266.264C169.204 266.267 169.129 266.285 169.059 266.317C168.989 266.349 168.927 266.395 168.875 266.452C168.844 266.49 168.824 266.536 168.818 266.584C168.824 266.639 168.83 266.686 168.925 266.691L169.424 266.762C169.889 266.838 170.345 266.957 170.787 267.117C170.861 267.132 170.936 267.128 171.007 267.104C171.078 267.081 171.142 267.04 171.192 266.985C171.246 266.942 171.284 266.882 171.3 266.815C171.302 266.793 171.296 266.771 171.284 266.752C171.272 266.733 171.254 266.719 171.233 266.711C170.769 266.545 170.291 266.42 169.805 266.34L169.281 266.264Z" fill="url(#paint45_linear_998_4063)"/>
<path d="M151.043 285.146C151.116 285.157 151.191 285.151 151.261 285.128C151.331 285.105 151.395 285.066 151.448 285.014C151.505 284.971 151.543 284.907 151.555 284.836C151.558 284.815 151.552 284.794 151.54 284.776C151.528 284.758 151.509 284.746 151.489 284.741C150.968 284.545 150.483 284.268 150.05 283.921C149.987 283.891 149.917 283.88 149.848 283.887C149.779 283.895 149.713 283.922 149.658 283.964C149.581 284.014 149.525 284.091 149.5 284.179C149.496 284.208 149.499 284.238 149.51 284.265C149.964 284.627 150.472 284.915 151.016 285.118" fill="url(#paint46_linear_998_4063)"/>
<path d="M150.201 275.987C150.278 275.982 150.354 275.961 150.422 275.925C150.49 275.889 150.55 275.838 150.597 275.777C151.096 275.098 151.64 274.454 152.226 273.849C152.269 273.81 152.297 273.756 152.304 273.698C152.306 273.686 152.306 273.674 152.303 273.662C152.3 273.65 152.294 273.638 152.286 273.629C152.278 273.619 152.268 273.611 152.257 273.606C152.246 273.6 152.234 273.597 152.222 273.597C152.146 273.59 152.07 273.601 151.998 273.628C151.927 273.655 151.863 273.698 151.811 273.753C151.198 274.386 150.631 275.062 150.114 275.776C150.088 275.807 150.071 275.844 150.063 275.884C150.07 275.946 150.075 275.993 150.201 275.987Z" fill="url(#paint47_linear_998_4063)"/>
<path d="M153.858 272.134C153.944 272.188 154.117 272.106 154.259 272.034C154.994 271.428 155.768 270.87 156.574 270.362C156.662 270.31 156.726 270.226 156.754 270.128C156.758 270.117 156.76 270.105 156.758 270.092C156.757 270.08 156.753 270.068 156.746 270.058C156.69 269.985 156.526 270.004 156.378 270.099C155.539 270.638 154.729 271.221 153.953 271.847C153.886 271.893 153.84 271.963 153.824 272.043C153.817 272.058 153.814 272.075 153.816 272.092C153.818 272.108 153.824 272.124 153.835 272.137" fill="url(#paint48_linear_998_4063)"/>
<path d="M155.287 285.613C155.363 285.603 155.436 285.578 155.501 285.538C155.566 285.498 155.622 285.444 155.665 285.381C155.671 285.352 155.668 285.322 155.655 285.295C155.648 285.225 155.642 285.178 155.501 285.186C154.769 285.248 154.033 285.24 153.303 285.161C153.225 285.159 153.148 285.175 153.078 285.207C153.007 285.24 152.945 285.288 152.896 285.349C152.863 285.384 152.841 285.428 152.831 285.475C152.837 285.53 152.843 285.577 152.946 285.581C153.711 285.668 154.481 285.68 155.248 285.618" fill="url(#paint49_linear_998_4063)"/>
<path d="M172.745 267.566C172.682 267.536 172.612 267.525 172.543 267.533C172.474 267.54 172.408 267.567 172.354 267.609C172.314 267.632 172.28 267.662 172.254 267.699C172.228 267.737 172.211 267.779 172.203 267.823C172.199 267.838 172.198 267.853 172.199 267.867C172.201 267.882 172.206 267.896 172.213 267.909C172.61 268.225 172.938 268.619 173.175 269.067C173.184 269.152 173.373 269.139 173.527 269.027C173.578 269.004 173.623 268.97 173.659 268.928C173.695 268.886 173.722 268.836 173.737 268.783C173.739 268.764 173.737 268.746 173.731 268.728C173.482 268.26 173.142 267.847 172.731 267.512" fill="url(#paint50_linear_998_4063)"/>
<path d="M173.227 273.859C173.149 273.872 173.076 273.902 173.011 273.946C172.947 273.99 172.892 274.047 172.851 274.114C172.523 274.791 172.134 275.437 171.69 276.045C171.666 276.077 171.649 276.114 171.639 276.153C171.646 276.216 171.651 276.262 171.778 276.264C171.855 276.258 171.93 276.237 171.998 276.201C172.067 276.164 172.127 276.114 172.174 276.054C172.637 275.416 173.043 274.739 173.388 274.03C173.391 274.009 173.389 273.988 173.381 273.968C173.373 273.89 173.32 273.84 173.203 273.861" fill="url(#paint51_linear_998_4063)"/>
<path d="M166.095 281.453C166.04 281.38 165.867 281.4 165.72 281.495C165.572 281.591 165.313 281.754 165.098 281.881C164.489 282.249 163.856 282.604 163.198 282.883C163.14 282.907 163.089 282.945 163.048 282.992C163.006 283.039 162.976 283.094 162.959 283.155C162.97 283.249 163.137 283.254 163.294 283.173C163.969 282.837 164.634 282.478 165.272 282.091L165.93 281.677C165.974 281.654 166.013 281.622 166.044 281.583C166.075 281.544 166.098 281.499 166.111 281.452C166.111 281.452 166.105 281.397 166.103 281.381" fill="url(#paint52_linear_998_4063)"/>
<path d="M164.42 266.64C164.345 266.657 164.275 266.689 164.215 266.736C164.155 266.782 164.105 266.841 164.069 266.908C164.079 266.994 164.148 267.042 164.287 267.011C164.907 266.865 165.535 266.755 166.167 266.683L166.723 266.621C166.801 266.612 166.877 266.586 166.945 266.546C167.013 266.506 167.071 266.451 167.117 266.387C167.13 266.361 167.14 266.333 167.147 266.304C167.139 266.234 167.087 266.192 166.984 266.196L166.397 266.261C165.733 266.337 165.074 266.45 164.423 266.6" fill="url(#paint53_linear_998_4063)"/>
<path d="M148.544 283.071C148.553 283.149 148.742 283.144 148.896 283.032C148.946 283.008 148.99 282.974 149.026 282.932C149.062 282.889 149.089 282.841 149.106 282.788C149.108 282.769 149.106 282.75 149.1 282.733C148.922 282.391 148.798 282.024 148.732 281.644C148.71 281.52 148.696 281.395 148.69 281.27C148.678 281.168 148.541 281.144 148.391 281.216C148.241 281.288 148.119 281.404 148.113 281.492C148.128 281.624 148.143 281.757 148.157 281.882C148.227 282.28 148.358 282.665 148.547 283.024" fill="url(#paint54_linear_998_4063)"/>
<path d="M148.455 279.877C148.527 279.859 148.594 279.825 148.651 279.776C148.707 279.727 148.751 279.665 148.779 279.596C148.81 279.45 148.849 279.304 148.896 279.156C149.033 278.671 149.213 278.199 149.434 277.745C149.439 277.724 149.436 277.702 149.427 277.683C149.419 277.605 149.358 277.556 149.241 277.577C149.165 277.591 149.093 277.62 149.03 277.664C148.966 277.708 148.913 277.765 148.874 277.831C148.645 278.306 148.454 278.797 148.303 279.302C148.258 279.465 148.22 279.619 148.189 279.772C148.2 279.866 148.292 279.911 148.437 279.863" fill="url(#paint55_linear_998_4063)"/>
<path d="M157.843 285.215C158.758 285.002 159.659 284.733 160.541 284.408C160.701 284.351 160.837 284.225 160.841 284.122C160.846 284.018 160.73 283.976 160.57 284.033C159.727 284.346 158.864 284.603 157.987 284.803C157.912 284.819 157.842 284.851 157.781 284.898C157.721 284.944 157.671 285.004 157.637 285.072C157.637 285.072 157.637 285.072 157.641 285.111C157.645 285.15 157.719 285.244 157.858 285.213" fill="url(#paint56_linear_998_4063)"/>
<path d="M158.758 268.907C158.769 269 158.936 269.006 159.094 268.933C159.939 268.505 160.809 268.13 161.701 267.812C161.771 267.79 161.834 267.752 161.886 267.7C161.938 267.649 161.978 267.587 162.001 267.517C161.989 267.416 161.882 267.38 161.723 267.438C160.79 267.773 159.879 268.165 158.995 268.611C158.937 268.633 158.885 268.669 158.843 268.715C158.801 268.761 158.771 268.816 158.755 268.875" fill="url(#paint57_linear_998_4063)"/>
<path d="M174.19 270.302C174.178 270.201 174.042 270.185 173.891 270.249C173.827 270.27 173.77 270.306 173.723 270.354C173.676 270.402 173.641 270.46 173.621 270.524C173.65 270.802 173.652 271.082 173.628 271.361C173.611 271.649 173.572 271.936 173.51 272.219C173.521 272.313 173.612 272.35 173.758 272.31C173.83 272.291 173.896 272.255 173.953 272.206C174.009 272.158 174.053 272.097 174.083 272.029C174.147 271.733 174.19 271.432 174.211 271.13C174.234 270.838 174.23 270.545 174.2 270.254" fill="url(#paint58_linear_998_4063)"/>
<path d="M173.222 271.538C173.19 271.969 173.113 272.396 172.993 272.812C172.386 274.95 170.673 277.259 168.31 279.277C167.272 280.17 166.159 280.973 164.984 281.678C163.591 282.505 162.123 283.198 160.598 283.747C159.208 284.265 157.762 284.619 156.289 284.804C155.234 284.936 154.167 284.922 153.116 284.762C150.927 284.389 149.452 283.241 149.115 281.445C149.049 281.061 149.029 280.671 149.055 280.282C149.092 279.851 149.169 279.424 149.284 279.008C149.892 276.869 151.612 274.56 153.975 272.534C155.013 271.647 156.123 270.846 157.294 270.142C158.683 269.3 160.15 268.594 161.675 268.034C163.066 267.519 164.513 267.167 165.985 266.985C167.04 266.853 168.108 266.867 169.158 267.027C171.355 267.399 172.823 268.547 173.159 270.344C173.229 270.738 173.25 271.139 173.222 271.538Z" fill="url(#paint59_linear_998_4063)"/>
<g style="mix-blend-mode:overlay">
<path d="M144.587 285.96L144.91 286.359C145.237 286.721 145.603 287.046 146.001 287.328C146.637 287.736 147.326 288.056 148.048 288.278C148.989 288.547 149.959 288.705 150.937 288.747C152.093 288.801 153.251 288.744 154.395 288.575C155.013 288.507 155.642 288.389 156.266 288.233C156.587 288.197 156.9 288.099 157.224 288.016L158.191 287.742L158.675 287.609L159.164 287.444L160.14 287.114C160.778 286.869 161.447 286.613 162.097 286.335L163.061 285.896L163.551 285.675L164.022 285.425L164.981 284.931C165.294 284.762 165.606 284.577 165.919 284.4C166.545 284.053 167.143 283.663 167.758 283.286L168.641 282.682L169.082 282.38L169.506 282.064C170.622 281.24 171.686 280.348 172.691 279.393L173.404 278.69L173.754 278.343L174.077 277.982L174.726 277.27C174.929 277.034 175.123 276.783 175.317 276.54C175.716 276.069 176.04 275.567 176.375 275.095C176.547 274.862 176.677 274.61 176.824 274.365L177.235 273.655C177.684 272.788 178.041 271.877 178.3 270.936C178.493 270.207 178.587 269.455 178.579 268.7C178.544 268.388 178.512 268.107 178.485 267.865C178.458 267.623 178.396 267.424 178.346 267.264C178.239 266.944 178.187 266.767 178.187 266.767L178.369 267.253C178.426 267.413 178.473 267.621 178.532 267.859C178.59 268.098 178.591 268.382 178.627 268.702C178.663 269.467 178.594 270.232 178.423 270.978C178.326 271.439 178.194 271.892 178.029 272.334C177.955 272.577 177.862 272.815 177.752 273.044C177.645 273.285 177.529 273.528 177.423 273.777C177.316 274.026 177.152 274.257 177.022 274.509C176.892 274.76 176.746 275.014 176.575 275.254C176.25 275.749 175.897 276.27 175.539 276.753C175.345 276.996 175.16 277.253 174.958 277.497L174.319 278.232L173.989 278.609L173.641 278.964L172.931 279.691C171.925 280.666 170.858 281.577 169.736 282.418L169.313 282.741L168.865 283.052C168.571 283.259 168.278 283.473 167.976 283.673C167.37 284.056 166.757 284.457 166.124 284.812C165.803 284.99 165.491 285.175 165.17 285.345L164.203 285.832L163.716 286.084L163.218 286.305L162.23 286.747C161.571 287.018 160.919 287.272 160.256 287.512L159.264 287.844L158.768 288.01L158.276 288.143L157.291 288.403C156.969 288.494 156.642 288.547 156.317 288.614C155.668 288.766 155.042 288.835 154.426 288.92C153.253 289.072 152.067 289.103 150.888 289.013C149.896 288.948 148.916 288.756 147.972 288.445C147.245 288.194 146.558 287.842 145.93 287.4C145.536 287.104 145.181 286.761 144.872 286.379L144.587 285.96Z" fill="#DBDBDB"/>
</g>
<path d="M464.21 406.625L463.888 406.546L463.222 406.34L462.915 406.243L462.159 405.966L462.028 405.98L461.164 405.616L460.99 405.537L460.342 405.198L460.096 405.061L459.568 404.758L459.302 404.59C459.123 404.482 458.95 404.364 458.784 404.237L458.587 404.094L457.899 403.546L457.256 402.96C457.215 402.898 457.164 402.842 457.106 402.796C456.956 402.632 456.787 402.453 456.653 402.287C456.593 402.229 456.542 402.163 456.499 402.091C456.298 401.854 456.11 401.606 455.938 401.348C455.802 401.165 455.681 400.965 455.559 400.765L461 410.024C461.121 410.224 461.243 410.425 461.381 410.623C461.558 410.883 461.75 411.124 461.942 411.366C461.942 411.41 461.947 411.453 461.957 411.496C462.091 411.662 462.239 411.81 462.389 411.974L462.52 412.107C462.706 412.3 462.907 412.475 463.108 412.65C463.31 412.841 463.528 413.015 463.76 413.17L463.939 413.298L464.42 413.622L464.545 413.707L464.702 413.788L465.18 414.08L465.374 414.19L465.472 414.179L466.083 414.489L466.239 414.554L467.087 414.92L467.283 414.898L467.954 415.152L468.068 415.14L468.272 415.199L468.92 415.39L469.108 415.451L469.254 415.435L470 415.615L470.195 415.594L471.206 415.793L471.353 415.777L471.646 415.744L472.465 415.851L472.628 415.832L472.921 415.8L473.753 415.872L474.029 415.841L474.225 415.819L475.416 415.867L475.579 415.849L477.111 415.843L477.534 415.796L479.171 415.696L481.888 415.393L482.393 415.337C482.719 415.301 483.044 415.265 483.369 415.229L483.858 415.174L484.086 415.149L484.346 415.12L486.438 414.673L486.666 414.648L486.796 414.633L487.187 414.59L488.324 414.299L488.845 414.241L489.371 414.084L489.778 414.039L490.718 413.753L491.529 413.498L492.466 413.18L492.99 413.007L493.623 412.772L495.299 412.142L495.693 411.983L496.842 411.509L497.445 411.442L499.908 410.346L500.19 410.216L500.55 410.044L501.411 409.636L501.879 409.403L502.253 409.214L502.876 408.898L503.265 408.69L503.84 408.379L504.322 408.128L504.525 408.024L505.703 407.366L505.951 407.224L506.847 406.696L507.296 406.433L507.973 406.012L509.128 405.292L509.948 405.398L510.193 405.239L510.423 405.082L511.617 404.275L512.548 403.612L512.7 403.496L512.846 403.48L514.062 402.572L515.002 401.843L515.168 401.709L515.289 401.613C515.7 401.305 516.09 400.965 516.498 400.64L517.447 399.844L517.761 399.563L518.39 398.999L518.84 398.604L518.945 398.51L519.705 397.801L520.049 397.483C520.421 397.129 520.793 396.775 521.147 396.407C521.534 396.035 521.902 395.649 522.271 395.263L522.769 394.714L523.342 394.091L524.247 393.053C524.291 392.985 524.346 392.924 524.408 392.871C524.772 392.452 525.119 392.019 525.45 391.588L525.621 391.355L526.423 390.279C526.461 390.241 526.495 390.198 526.524 390.153L526.736 389.833L527.445 388.817L527.615 388.568L527.739 388.357C528.075 387.826 528.411 387.296 528.714 386.769C528.799 386.644 528.866 386.505 528.935 386.382L529.371 385.577L529.615 385.106L529.909 384.498L529.896 384.385C529.955 384.267 530.008 384.145 530.053 384.022C530.172 383.762 530.292 383.502 530.394 383.244L530.562 382.831C530.667 382.589 530.753 382.333 530.842 382.093C530.93 381.853 530.928 381.836 530.981 381.715C531.103 381.34 531.211 380.983 531.318 380.609C531.689 379.364 531.921 378.081 532.008 376.784C532.1 375.615 532.04 374.439 531.829 373.285C531.598 372.018 531.149 370.799 530.501 369.684L525.06 360.425C525.708 361.54 526.157 362.758 526.388 364.026C526.599 365.18 526.66 366.356 526.567 367.525C526.469 368.82 526.238 370.102 525.877 371.35C525.77 371.724 525.648 372.099 525.524 372.458C525.489 372.58 525.448 372.7 525.399 372.817C525.313 373.073 525.21 373.332 525.107 373.59L524.954 373.985L524.614 374.779L524.456 375.125L524.08 375.891C524.014 376.03 523.949 376.185 523.866 376.326L523.346 377.271L523.225 377.515L523.234 377.596C522.931 378.123 522.609 378.636 522.288 379.148L521.994 379.608L521.286 380.641L520.972 381.07L520.17 382.146L519.955 382.433L518.942 383.68L518.402 384.299C518.228 384.516 518.055 384.733 517.863 384.935L517.262 385.594L516.763 386.142C516.028 386.931 515.291 387.704 514.438 388.473L514.154 388.735L513.229 389.594L512.794 389.971L511.835 390.818C511.099 391.459 510.328 392.071 509.576 392.713L509.393 392.849C508.648 393.447 507.889 394.025 507.117 394.582L506.954 394.6C506.177 395.163 505.43 395.707 504.585 396.245L504.353 396.386C503.526 396.938 502.694 397.458 501.83 397.982L500.281 398.861L500.184 398.872L498.758 399.672L498.322 399.901L497.31 400.425L496.703 400.739L495.844 401.164L495 401.57L494.358 401.872C493.545 402.258 492.793 402.605 491.878 402.97L490.839 403.398L490.255 403.627C489.703 403.853 489.15 404.063 488.579 404.258L487.471 404.661L486.485 404.984L485.69 405.237L484.734 405.524L484.095 405.71C483.298 405.947 482.497 406.151 481.727 406.336L481.467 406.365C480.75 406.445 480.053 406.687 479.342 406.815L478.838 406.871L478.349 406.926L477.405 407.031L476.868 407.09L475.599 407.232C475.16 407.281 474.72 407.33 474.281 407.378L472.563 407.487L472.172 407.531L470.624 407.539L470.429 407.561L469.219 407.498L468.77 407.466L467.906 407.398L467.455 407.349L466.634 407.227L466.182 407.162L465.171 406.962L464.885 406.912L464.21 406.625Z" fill="url(#paint60_linear_998_4063)"/>
<path d="M474.375 407.32L472.657 407.429L472.267 407.473L470.719 407.48L470.523 407.502L469.314 407.44L468.865 407.407L468.001 407.339L467.55 407.291L466.729 407.168L466.277 407.104L471.717 416.362L471.864 416.346L472.157 416.313L472.976 416.419L473.139 416.401L473.432 416.369L474.264 416.44L474.54 416.41L474.736 416.388L475.927 416.436L476.09 416.418L477.622 416.412L478.045 416.365L479.682 416.265L481.114 416.105L475.673 406.847C475.234 406.896 474.794 406.945 474.355 406.993L474.375 407.32Z" fill="url(#paint61_linear_998_4063)"/>
<path d="M532.145 376.485C532.237 375.317 532.177 374.141 531.966 372.988L526.528 363.731C526.739 364.885 526.799 366.06 526.707 367.229C526.608 368.524 526.377 369.805 526.017 371.053L531.455 380.309C531.826 379.064 532.057 377.782 532.145 376.485Z" fill="url(#paint62_linear_998_4063)"/>
<path d="M507.185 394.195L507.022 394.213C506.245 394.776 505.499 395.319 504.653 395.857L504.422 395.998C503.594 396.551 502.763 397.071 501.899 397.594L507.339 406.852L508.017 406.431L509.172 405.711L509.96 405.393L510.206 405.234L510.435 405.077L511.629 404.27L512.56 403.608L512.712 403.492L512.858 403.476L514.074 402.568L515.014 401.839L515.18 401.705L515.301 401.609C515.711 401.301 516.102 400.961 516.51 400.637L517.458 399.84L512.002 390.584C511.267 391.225 510.495 391.837 509.744 392.48L509.561 392.615C508.751 393.133 507.959 393.659 507.185 394.195Z" fill="url(#paint63_linear_998_4063)"/>
<path d="M466.277 407.058C469.418 407.545 472.613 407.594 475.768 407.202C480.196 406.648 484.545 405.579 488.724 404.017C493.316 402.35 497.731 400.234 501.904 397.699C505.435 395.581 508.78 393.168 511.903 390.487C519.029 384.4 524.182 377.463 526.01 371.012C526.371 369.764 526.602 368.482 526.701 367.187C526.793 366.018 526.733 364.842 526.522 363.688C525.518 358.276 521.076 354.824 514.474 353.701C511.331 353.222 508.138 353.179 504.984 353.574C500.557 354.103 496.206 355.139 492.017 356.662C487.429 358.362 483.017 360.505 478.846 363.06C475.308 365.177 471.958 367.59 468.831 370.274C461.737 376.358 456.569 383.296 454.74 389.747C454.381 390.99 454.149 392.267 454.048 393.556C453.956 394.731 454.017 395.912 454.229 397.071C455.251 402.498 459.676 405.951 466.277 407.058Z" fill="url(#paint64_linear_998_4063)"/>
<path d="M473.783 372.625C476.196 370.563 478.775 368.703 481.495 367.064L482.764 366.331L478.824 363.087C475.29 365.209 471.94 367.623 468.809 370.301L472.733 373.547L473.783 372.625Z" fill="url(#paint65_linear_998_4063)"/>
<path d="M508.935 359.88C509.26 359.843 509.592 360.004 509.895 360.069L514.49 353.736C511.348 353.251 508.153 353.202 504.998 353.592L500.406 359.941L501.626 359.805C504.054 359.492 506.514 359.517 508.935 359.88Z" fill="url(#paint66_linear_998_4063)"/>
<path d="M462.743 394.04C462.714 393.78 462.685 393.521 462.574 393.27C462.409 392.381 462.362 391.474 462.436 390.573C462.505 389.578 462.682 388.594 462.963 387.637L463.253 386.701L454.751 389.784C454.395 391.033 454.164 392.314 454.061 393.609C453.97 394.783 454.031 395.965 454.242 397.124L462.743 394.04Z" fill="url(#paint67_linear_998_4063)"/>
<path d="M518.202 367.55C518.368 368.439 518.415 369.346 518.341 370.247C518.272 371.241 518.095 372.226 517.814 373.182L517.524 374.119L526.024 371.019C526.385 369.771 526.616 368.489 526.714 367.194C526.806 366.025 526.746 364.849 526.535 363.696L518.033 366.779C518.095 367.036 518.157 367.292 518.202 367.55Z" fill="url(#paint68_linear_998_4063)"/>
<path d="M511.902 390.446L507.994 387.198L506.944 388.12C504.54 390.182 501.965 392.036 499.246 393.663L497.979 394.412L501.903 397.658C505.432 395.536 508.776 393.124 511.902 390.446Z" fill="url(#paint69_linear_998_4063)"/>
<path d="M475.737 407.171L480.332 400.839L479.111 400.975C476.683 401.292 474.221 401.261 471.801 400.884L470.824 400.697L466.246 407.027C469.387 407.522 472.583 407.571 475.737 407.171Z" fill="url(#paint70_linear_998_4063)"/>
<path d="M470.859 400.737L471.836 400.924C474.256 401.302 476.718 401.332 479.146 401.015L480.367 400.879C483.355 400.414 486.289 399.652 489.124 398.605C492.193 397.487 495.158 396.107 497.987 394.478L499.254 393.729C501.973 392.102 504.548 390.248 506.952 388.186L508.002 387.264C512.198 383.727 515.465 379.221 517.517 374.137L517.807 373.2C518.088 372.244 518.265 371.259 518.334 370.265C518.407 369.363 518.361 368.456 518.195 367.567C518.166 367.307 518.137 367.048 518.026 366.797C517.077 363.335 514.081 361.021 509.888 360.074C509.584 360.009 509.262 359.93 508.928 359.885C506.507 359.511 504.046 359.475 501.616 359.778L500.395 359.914C497.413 360.378 494.484 361.139 491.654 362.186C488.579 363.302 485.609 364.683 482.775 366.315L481.506 367.048C478.786 368.687 476.207 370.546 473.794 372.608L472.76 373.529C468.564 377.066 465.297 381.572 463.245 386.656L462.955 387.593C462.674 388.549 462.497 389.534 462.428 390.528C462.355 391.43 462.401 392.337 462.567 393.226C462.596 393.486 462.625 393.745 462.736 393.996C463.703 397.473 466.616 399.779 470.859 400.737Z" fill="url(#paint71_linear_998_4063)"/>
<path d="M509.785 384.289C509.627 384.274 509.468 384.295 509.32 384.352C509.172 384.408 509.04 384.498 508.932 384.614C507.958 385.626 506.9 386.615 505.772 387.579C505.443 387.879 505.096 388.164 504.733 388.451C504.598 388.551 504.503 388.696 504.466 388.859C504.45 388.89 504.444 388.925 504.448 388.96C504.452 388.995 504.466 389.027 504.488 389.054C504.634 389.089 504.787 389.087 504.932 389.048C505.078 389.009 505.211 388.934 505.319 388.83L506.404 387.92C507.553 386.945 508.653 385.912 509.697 384.824C509.79 384.742 509.853 384.631 509.876 384.509C509.88 384.458 509.864 384.408 509.832 384.369C509.8 384.329 509.754 384.304 509.704 384.298" fill="url(#paint72_linear_998_4063)"/>
<path d="M507.308 360.29C507.149 360.296 506.991 360.334 506.846 360.401C506.701 360.468 506.571 360.563 506.462 360.68C506.398 360.759 506.357 360.855 506.345 360.956C506.358 361.07 506.369 361.167 506.568 361.178L507.606 361.326C508.572 361.483 509.521 361.73 510.441 362.062C510.593 362.093 510.751 362.084 510.899 362.036C511.046 361.988 511.179 361.902 511.284 361.788C511.395 361.698 511.474 361.573 511.507 361.434C511.511 361.388 511.499 361.342 511.474 361.303C511.448 361.265 511.411 361.235 511.368 361.219C510.403 360.873 509.409 360.615 508.397 360.448L507.308 360.29Z" fill="url(#paint73_linear_998_4063)"/>
<path d="M469.37 399.558C469.522 399.58 469.677 399.567 469.823 399.519C469.969 399.472 470.103 399.391 470.212 399.284C470.331 399.193 470.41 399.061 470.434 398.914C470.44 398.869 470.429 398.825 470.404 398.788C470.378 398.751 470.34 398.725 470.297 398.715C469.215 398.308 468.205 397.733 467.304 397.01C467.173 396.949 467.028 396.925 466.884 396.941C466.74 396.957 466.604 397.012 466.49 397.1C466.329 397.204 466.213 397.364 466.161 397.548C466.151 397.608 466.158 397.67 466.181 397.726C467.126 398.478 468.183 399.076 469.314 399.499" fill="url(#paint74_linear_998_4063)"/>
<path d="M467.614 380.52C467.775 380.51 467.931 380.465 468.073 380.39C468.216 380.315 468.34 380.21 468.438 380.083C469.475 378.67 470.607 377.331 471.826 376.072C471.915 375.99 471.973 375.879 471.989 375.758C471.993 375.733 471.992 375.707 471.986 375.682C471.979 375.657 471.967 375.634 471.951 375.614C471.935 375.594 471.914 375.577 471.891 375.566C471.868 375.554 471.843 375.548 471.817 375.547C471.659 375.534 471.5 375.556 471.353 375.612C471.205 375.668 471.072 375.757 470.964 375.872C469.687 377.189 468.507 378.595 467.433 380.079C467.379 380.145 467.342 380.222 467.326 380.305C467.341 380.435 467.352 380.532 467.614 380.52Z" fill="url(#paint75_linear_998_4063)"/>
<path d="M475.223 372.496C475.4 372.608 475.76 372.437 476.056 372.289C477.586 371.028 479.194 369.865 480.872 368.809C481.054 368.701 481.188 368.527 481.246 368.324C481.255 368.3 481.258 368.274 481.255 368.249C481.253 368.223 481.244 368.199 481.23 368.178C481.114 368.026 480.772 368.064 480.465 368.263C478.718 369.383 477.034 370.597 475.419 371.899C475.28 371.994 475.184 372.141 475.152 372.307C475.137 372.338 475.13 372.373 475.134 372.408C475.138 372.442 475.152 372.475 475.174 372.502" fill="url(#paint76_linear_998_4063)"/>
<path d="M478.194 400.541C478.352 400.52 478.503 400.467 478.639 400.383C478.774 400.3 478.891 400.189 478.98 400.058C478.993 399.998 478.985 399.936 478.96 399.88C478.944 399.733 478.933 399.636 478.638 399.652C477.116 399.781 475.586 399.764 474.067 399.602C473.906 399.597 473.745 399.63 473.598 399.698C473.451 399.765 473.322 399.866 473.221 399.992C473.153 400.065 473.106 400.156 473.086 400.254C473.099 400.368 473.11 400.465 473.325 400.474C474.915 400.655 476.518 400.68 478.113 400.55" fill="url(#paint77_linear_998_4063)"/>
<path d="M514.51 362.99C514.379 362.929 514.234 362.905 514.091 362.921C513.947 362.937 513.811 362.992 513.697 363.08C513.615 363.127 513.544 363.191 513.49 363.268C513.436 363.345 513.4 363.433 513.384 363.526C513.375 363.556 513.373 363.587 513.376 363.618C513.38 363.648 513.389 363.678 513.404 363.705C514.23 364.361 514.912 365.181 515.405 366.112C515.425 366.291 515.818 366.264 516.137 366.031C516.243 365.982 516.336 365.912 516.412 365.824C516.487 365.736 516.543 365.633 516.574 365.522C516.579 365.483 516.575 365.445 516.562 365.408C516.044 364.435 515.337 363.575 514.481 362.878" fill="url(#paint78_linear_998_4063)"/>
<path d="M515.515 376.087C515.355 376.115 515.202 376.177 515.068 376.268C514.933 376.36 514.819 376.479 514.735 376.618C514.052 378.026 513.243 379.371 512.319 380.635C512.269 380.702 512.233 380.779 512.213 380.86C512.228 380.99 512.239 381.087 512.503 381.091C512.663 381.079 512.819 381.034 512.961 380.959C513.102 380.883 513.227 380.78 513.327 380.654C514.289 379.326 515.134 377.918 515.852 376.444C515.858 376.4 515.853 376.356 515.837 376.314C515.819 376.152 515.709 376.049 515.466 376.093" fill="url(#paint79_linear_998_4063)"/>
<path d="M500.68 391.887C500.564 391.736 500.206 391.775 499.898 391.974C499.591 392.173 499.053 392.512 498.604 392.776C497.339 393.542 496.022 394.28 494.653 394.86C494.533 394.911 494.426 394.988 494.34 395.086C494.254 395.184 494.191 395.3 494.156 395.425C494.178 395.62 494.525 395.631 494.853 395.463C496.257 394.764 497.64 394.018 498.967 393.212L500.337 392.353C500.428 392.304 500.508 392.237 500.572 392.156C500.637 392.076 500.684 391.983 500.712 391.884C500.712 391.884 500.699 391.77 500.696 391.737" fill="url(#paint80_linear_998_4063)"/>
<path d="M497.191 361.067C497.037 361.102 496.892 361.17 496.766 361.267C496.64 361.363 496.537 361.485 496.463 361.626C496.483 361.804 496.626 361.904 496.915 361.838C498.205 361.534 499.511 361.306 500.827 361.156L501.983 361.027C502.146 361.009 502.303 360.956 502.444 360.872C502.586 360.788 502.707 360.675 502.802 360.541C502.829 360.487 502.851 360.429 502.865 360.369C502.848 360.223 502.74 360.137 502.526 360.144L501.305 360.28C499.924 360.438 498.553 360.673 497.199 360.984" fill="url(#paint81_linear_998_4063)"/>
<path d="M464.17 395.253C464.189 395.415 464.583 395.404 464.902 395.171C465.006 395.121 465.098 395.049 465.173 394.962C465.248 394.874 465.305 394.773 465.339 394.663C465.344 394.624 465.34 394.585 465.327 394.549C464.957 393.837 464.699 393.073 464.561 392.284C464.516 392.026 464.487 391.766 464.474 391.504C464.45 391.293 464.164 391.243 463.852 391.393C463.539 391.543 463.286 391.785 463.274 391.967C463.305 392.243 463.336 392.519 463.365 392.778C463.511 393.607 463.784 394.408 464.176 395.154" fill="url(#paint82_linear_998_4063)"/>
<path d="M463.98 388.6C464.131 388.563 464.271 388.491 464.389 388.389C464.506 388.287 464.598 388.159 464.656 388.015C464.721 387.712 464.802 387.407 464.899 387.101C465.183 386.09 465.558 385.108 466.019 384.165C466.028 384.121 466.022 384.076 466.004 384.035C465.986 383.873 465.859 383.772 465.617 383.815C465.459 383.843 465.309 383.905 465.177 383.996C465.045 384.088 464.934 384.206 464.853 384.344C464.376 385.331 463.979 386.353 463.664 387.402C463.571 387.742 463.491 388.063 463.428 388.382C463.45 388.577 463.642 388.671 463.944 388.571" fill="url(#paint83_linear_998_4063)"/>
<path d="M483.51 399.715C485.415 399.273 487.289 398.712 489.123 398.036C489.456 397.917 489.739 397.655 489.748 397.44C489.757 397.225 489.516 397.137 489.184 397.256C487.429 397.907 485.634 398.442 483.81 398.858C483.654 398.891 483.508 398.959 483.382 399.055C483.256 399.152 483.153 399.275 483.081 399.417C483.081 399.417 483.081 399.417 483.091 399.498C483.1 399.579 483.254 399.776 483.543 399.711" fill="url(#paint84_linear_998_4063)"/>
<path d="M485.415 365.777C485.437 365.971 485.784 365.982 486.113 365.83C487.87 364.941 489.682 364.162 491.537 363.5C491.681 363.454 491.813 363.375 491.922 363.268C492.03 363.162 492.112 363.031 492.16 362.888C492.136 362.677 491.914 362.603 491.581 362.722C489.641 363.418 487.746 364.233 485.906 365.163C485.786 365.208 485.678 365.282 485.591 365.377C485.504 365.473 485.442 365.587 485.408 365.712" fill="url(#paint85_linear_998_4063)"/>
<path d="M517.516 368.687C517.492 368.476 517.209 368.441 516.894 368.575C516.762 368.619 516.642 368.694 516.545 368.794C516.447 368.893 516.374 369.014 516.333 369.147C516.393 369.726 516.398 370.309 516.347 370.888C516.313 371.489 516.231 372.086 516.103 372.674C516.125 372.869 516.315 372.946 516.619 372.863C516.768 372.822 516.906 372.749 517.023 372.647C517.14 372.546 517.233 372.42 517.294 372.278C517.428 371.662 517.518 371.037 517.561 370.407C517.609 369.801 517.601 369.191 517.538 368.586" fill="url(#paint86_linear_998_4063)"/>
<path d="M515.502 371.26C515.434 372.158 515.274 373.046 515.025 373.911C513.762 378.359 510.199 383.162 505.283 387.359C503.123 389.218 500.808 390.889 498.364 392.355C495.466 394.075 492.412 395.516 489.241 396.659C486.348 397.735 483.34 398.473 480.277 398.857C478.083 399.132 475.862 399.102 473.676 398.769C469.123 397.994 466.053 395.606 465.353 391.87C465.216 391.071 465.175 390.259 465.229 389.45C465.305 388.554 465.464 387.666 465.706 386.8C466.969 382.351 470.548 377.547 475.462 373.333C477.622 371.487 479.932 369.822 482.367 368.356C485.256 366.604 488.308 365.136 491.481 363.971C494.375 362.9 497.384 362.168 500.447 361.789C502.641 361.514 504.862 361.544 507.048 361.876C511.617 362.65 514.671 365.04 515.371 368.776C515.515 369.596 515.559 370.43 515.502 371.26Z" fill="url(#paint87_linear_998_4063)"/>
<g style="mix-blend-mode:overlay">
<path d="M455.937 401.254L456.607 402.084C457.287 402.836 458.048 403.513 458.877 404.1C460.2 404.949 461.633 405.613 463.136 406.076C465.094 406.635 467.111 406.963 469.145 407.051C471.549 407.164 473.958 407.044 476.339 406.694C477.625 406.551 478.932 406.307 480.23 405.982C480.898 405.907 481.55 405.703 482.223 405.53L484.235 404.96L485.242 404.684L486.258 404.34L488.29 403.654C489.617 403.144 491.007 402.611 492.36 402.033L494.366 401.12L495.386 400.661L496.365 400.141L498.359 399.113C499.012 398.761 499.66 398.376 500.311 398.008C501.614 397.287 502.858 396.475 504.137 395.691L505.973 394.434L506.891 393.806L507.773 393.149C510.094 391.434 512.307 389.579 514.399 387.594L515.883 386.13L516.609 385.407L517.283 384.658L518.632 383.176C519.055 382.685 519.458 382.164 519.862 381.658C520.691 380.678 521.365 379.633 522.062 378.651C522.419 378.167 522.69 377.644 522.995 377.133L523.851 375.657C524.785 373.854 525.527 371.958 526.066 370.001C526.467 368.483 526.662 366.918 526.647 365.349C526.574 364.699 526.508 364.114 526.451 363.611C526.395 363.108 526.266 362.694 526.162 362.361C525.939 361.695 525.832 361.329 525.832 361.329L526.209 362.339C526.329 362.671 526.427 363.104 526.549 363.6C526.671 364.096 526.671 364.688 526.746 365.354C526.821 366.944 526.678 368.536 526.323 370.087C526.12 371.047 525.846 371.989 525.503 372.908C525.348 373.414 525.156 373.908 524.927 374.386C524.704 374.888 524.464 375.391 524.242 375.909C524.02 376.427 523.679 376.909 523.408 377.432C523.137 377.956 522.834 378.483 522.478 378.983C521.803 380.012 521.068 381.096 520.324 382.1C519.919 382.605 519.535 383.142 519.114 383.649L517.786 385.178L517.1 385.961L516.375 386.7L514.897 388.212C512.805 390.242 510.585 392.136 508.252 393.885L507.372 394.558L506.439 395.205C505.828 395.634 505.219 396.08 504.59 396.496C503.329 397.294 502.055 398.126 500.737 398.865C500.07 399.235 499.421 399.62 498.752 399.974L496.741 400.987L495.728 401.51L494.693 401.971L492.637 402.89C491.267 403.454 489.909 403.983 488.532 404.482L486.467 405.172L485.435 405.517L484.411 405.796L482.363 406.336C481.692 406.526 481.012 406.634 480.336 406.775C478.987 407.09 477.685 407.235 476.403 407.411C473.963 407.727 471.496 407.792 469.043 407.605C466.979 407.468 464.941 407.071 462.977 406.422C461.465 405.901 460.035 405.169 458.729 404.248C457.911 403.633 457.172 402.92 456.529 402.125L455.937 401.254Z" fill="#DBDBDB"/>
</g>
<defs>
<linearGradient id="paint0_linear_998_4063" x1="72.6939" y1="125.831" x2="124.202" y2="116.798" gradientUnits="userSpaceOnUse">
<stop stop-color="#DEDEDE"/>
<stop offset="0.14" stop-color="#D7D7D7"/>
<stop offset="0.35" stop-color="#C4C4C4"/>
<stop offset="0.6" stop-color="#A4A4A4"/>
<stop offset="0.87" stop-color="#787878"/>
<stop offset="1" stop-color="#616161"/>
</linearGradient>
<linearGradient id="paint1_linear_998_4063" x1="568.398" y1="198.654" x2="548.181" y2="171.692" gradientUnits="userSpaceOnUse">
<stop stop-color="#DEDEDE"/>
<stop offset="0.14" stop-color="#D7D7D7"/>
<stop offset="0.35" stop-color="#C4C4C4"/>
<stop offset="0.6" stop-color="#A4A4A4"/>
<stop offset="0.87" stop-color="#787878"/>
<stop offset="1" stop-color="#616161"/>
</linearGradient>
<linearGradient id="paint2_linear_998_4063" x1="566.252" y1="110.34" x2="539.14" y2="90.4819" gradientUnits="userSpaceOnUse">
<stop stop-color="#B3B3B3"/>
<stop offset="1" stop-color="white"/>
</linearGradient>
<linearGradient id="paint3_linear_998_4063" x1="38.2233" y1="5.43566" x2="62.5551" y2="24.5969" gradientUnits="userSpaceOnUse">
<stop stop-color="#B1B1B1"/>
<stop offset="1" stop-color="#E4E4E4"/>
</linearGradient>
<linearGradient id="paint4_linear_998_4063" x1="45.9249" y1="265.244" x2="14.8474" y2="208.338" gradientUnits="userSpaceOnUse">
<stop/>
<stop offset="1" stop-color="#696969"/>
</linearGradient>
<linearGradient id="paint5_linear_998_4063" x1="3.49745" y1="221.86" x2="15.2618" y2="214.655" gradientUnits="userSpaceOnUse">
<stop stop-color="#D9D9D9"/>
<stop offset="1" stop-color="white"/>
</linearGradient>
<linearGradient id="paint6_linear_998_4063" x1="48.1773" y1="270.211" x2="56.989" y2="254.342" gradientUnits="userSpaceOnUse">
<stop stop-color="#D9D9D9"/>
<stop offset="1" stop-color="white"/>
</linearGradient>
<linearGradient id="paint7_linear_998_4063" x1="18.6613" y1="254.744" x2="34.1929" y2="241.9" gradientUnits="userSpaceOnUse">
<stop stop-color="#D9D9D9"/>
<stop offset="1" stop-color="white"/>
</linearGradient>
<linearGradient id="paint8_linear_998_4063" x1="84.5689" y1="201.415" x2="12.1701" y2="246.445" gradientUnits="userSpaceOnUse">
<stop stop-color="#636363"/>
<stop offset="1"/>
</linearGradient>
<linearGradient id="paint9_linear_998_4063" x1="46.0589" y1="217.973" x2="52.6068" y2="208.022" gradientUnits="userSpaceOnUse">
<stop stop-color="#858585"/>
<stop offset="1" stop-color="#D9D9D9"/>
</linearGradient>
<linearGradient id="paint10_linear_998_4063" x1="55.1524" y1="238.971" x2="67.1345" y2="242.913" gradientUnits="userSpaceOnUse">
<stop stop-color="#858585"/>
<stop offset="1" stop-color="#D9D9D9"/>
</linearGradient>
<linearGradient id="paint11_linear_998_4063" x1="25.7285" y1="206.406" x2="22.0695" y2="193.765" gradientUnits="userSpaceOnUse">
<stop stop-color="#858585"/>
<stop offset="1" stop-color="#D9D9D9"/>
</linearGradient>
<linearGradient id="paint12_linear_998_4063" x1="49.835" y1="244.255" x2="56.3743" y2="263.102" gradientUnits="userSpaceOnUse">
<stop stop-color="#858585"/>
<stop offset="1" stop-color="#D9D9D9"/>
</linearGradient>
<linearGradient id="paint13_linear_998_4063" x1="33.1259" y1="241.822" x2="23.7151" y2="249.9" gradientUnits="userSpaceOnUse">
<stop stop-color="#858585"/>
<stop offset="1" stop-color="#D9D9D9"/>
</linearGradient>
<linearGradient id="paint14_linear_998_4063" x1="20.3496" y1="217.96" x2="8.07868" y2="216.129" gradientUnits="userSpaceOnUse">
<stop stop-color="#858585"/>
<stop offset="1" stop-color="#D9D9D9"/>
</linearGradient>
<linearGradient id="paint15_linear_998_4063" x1="62.6382" y1="209.906" x2="6.00902" y2="257.508" gradientUnits="userSpaceOnUse">
<stop stop-color="#636363"/>
<stop offset="1"/>
</linearGradient>
<linearGradient id="paint16_linear_998_4063" x1="75.1854" y1="218.723" x2="26.8354" y2="251.742" gradientUnits="userSpaceOnUse">
<stop stop-color="#858585"/>
<stop offset="1" stop-color="#D9D9D9"/>
</linearGradient>
<linearGradient id="paint17_linear_998_4063" x1="81.6774" y1="228.213" x2="33.3452" y2="261.232" gradientUnits="userSpaceOnUse">
<stop stop-color="#858585"/>
<stop offset="1" stop-color="#D9D9D9"/>
</linearGradient>
<linearGradient id="paint18_linear_998_4063" x1="54.5898" y1="188.569" x2="6.24014" y2="221.587" gradientUnits="userSpaceOnUse">
<stop stop-color="#858585"/>
<stop offset="1" stop-color="#D9D9D9"/>
</linearGradient>
<linearGradient id="paint19_linear_998_4063" x1="59.7525" y1="196.112" x2="11.3986" y2="229.134" gradientUnits="userSpaceOnUse">
<stop stop-color="#858585"/>
<stop offset="1" stop-color="#D9D9D9"/>
</linearGradient>
<linearGradient id="paint20_linear_998_4063" x1="65.4147" y1="204.374" x2="17.0647" y2="237.409" gradientUnits="userSpaceOnUse">
<stop stop-color="#858585"/>
<stop offset="1" stop-color="#D9D9D9"/>
</linearGradient>
<linearGradient id="paint21_linear_998_4063" x1="57.7956" y1="193.287" x2="9.45203" y2="226.288" gradientUnits="userSpaceOnUse">
<stop stop-color="#858585"/>
<stop offset="1" stop-color="#D9D9D9"/>
</linearGradient>
<linearGradient id="paint22_linear_998_4063" x1="83.7399" y1="231.209" x2="35.368" y2="264.243" gradientUnits="userSpaceOnUse">
<stop stop-color="#858585"/>
<stop offset="1" stop-color="#D9D9D9"/>
</linearGradient>
<linearGradient id="paint23_linear_998_4063" x1="80.1957" y1="226.007" x2="31.8248" y2="259.041" gradientUnits="userSpaceOnUse">
<stop stop-color="#858585"/>
<stop offset="1" stop-color="#D9D9D9"/>
</linearGradient>
<linearGradient id="paint24_linear_998_4063" x1="69.079" y1="209.807" x2="20.7335" y2="242.837" gradientUnits="userSpaceOnUse">
<stop stop-color="#858585"/>
<stop offset="1" stop-color="#D9D9D9"/>
</linearGradient>
<linearGradient id="paint25_linear_998_4063" x1="77.4149" y1="221.96" x2="29.077" y2="254.952" gradientUnits="userSpaceOnUse">
<stop stop-color="#858585"/>
<stop offset="1" stop-color="#D9D9D9"/>
</linearGradient>
<linearGradient id="paint26_linear_998_4063" x1="53.838" y1="187.413" x2="5.44994" y2="220.466" gradientUnits="userSpaceOnUse">
<stop stop-color="#858585"/>
<stop offset="1" stop-color="#D9D9D9"/>
</linearGradient>
<linearGradient id="paint27_linear_998_4063" x1="55.6681" y1="190.093" x2="7.29104" y2="223.13" gradientUnits="userSpaceOnUse">
<stop stop-color="#858585"/>
<stop offset="1" stop-color="#D9D9D9"/>
</linearGradient>
<linearGradient id="paint28_linear_998_4063" x1="62.9292" y1="200.802" x2="14.5838" y2="233.806" gradientUnits="userSpaceOnUse">
<stop stop-color="#858585"/>
<stop offset="1" stop-color="#D9D9D9"/>
</linearGradient>
<linearGradient id="paint29_linear_998_4063" x1="71.6654" y1="213.523" x2="23.3149" y2="246.536" gradientUnits="userSpaceOnUse">
<stop stop-color="#858585"/>
<stop offset="1" stop-color="#D9D9D9"/>
</linearGradient>
<linearGradient id="paint30_linear_998_4063" x1="83.2107" y1="230.405" x2="34.8231" y2="263.458" gradientUnits="userSpaceOnUse">
<stop stop-color="#858585"/>
<stop offset="1" stop-color="#D9D9D9"/>
</linearGradient>
<linearGradient id="paint31_linear_998_4063" x1="55.0147" y1="221.769" x2="24.2855" y2="236.827" gradientUnits="userSpaceOnUse">
<stop stop-color="#858585"/>
<stop offset="1" stop-color="#D9D9D9"/>
</linearGradient>
<linearGradient id="paint32_linear_998_4063" x1="180.455" y1="275.398" x2="148.356" y2="287.175" gradientUnits="userSpaceOnUse">
<stop/>
<stop offset="1" stop-color="#696969"/>
</linearGradient>
<linearGradient id="paint33_linear_998_4063" x1="154.457" y1="293.998" x2="151.649" y2="287.298" gradientUnits="userSpaceOnUse">
<stop stop-color="#D9D9D9"/>
<stop offset="1" stop-color="white"/>
</linearGradient>
<linearGradient id="paint34_linear_998_4063" x1="183.229" y1="274.606" x2="175.661" y2="268.748" gradientUnits="userSpaceOnUse">
<stop stop-color="#D9D9D9"/>
<stop offset="1" stop-color="white"/>
</linearGradient>
<linearGradient id="paint35_linear_998_4063" x1="172.833" y1="288.725" x2="167.389" y2="279.608" gradientUnits="userSpaceOnUse">
<stop stop-color="#D9D9D9"/>
<stop offset="1" stop-color="white"/>
</linearGradient>
<linearGradient id="paint36_linear_998_4063" x1="150.161" y1="250.24" x2="167.804" y2="291.533" gradientUnits="userSpaceOnUse">
<stop stop-color="#636363"/>
<stop offset="1"/>
</linearGradient>
<linearGradient id="paint37_linear_998_4063" x1="155.782" y1="271.586" x2="151.116" y2="267.375" gradientUnits="userSpaceOnUse">
<stop stop-color="#858585"/>
<stop offset="1" stop-color="#D9D9D9"/>
</linearGradient>
<linearGradient id="paint38_linear_998_4063" x1="167.475" y1="268.526" x2="170.464" y2="262.603" gradientUnits="userSpaceOnUse">
<stop stop-color="#858585"/>
<stop offset="1" stop-color="#D9D9D9"/>
</linearGradient>
<linearGradient id="paint39_linear_998_4063" x1="148.141" y1="281.241" x2="141.258" y2="282.162" gradientUnits="userSpaceOnUse">
<stop stop-color="#858585"/>
<stop offset="1" stop-color="#D9D9D9"/>
</linearGradient>
<linearGradient id="paint40_linear_998_4063" x1="169.816" y1="271.702" x2="180.161" y2="269.761" gradientUnits="userSpaceOnUse">
<stop stop-color="#858585"/>
<stop offset="1" stop-color="#D9D9D9"/>
</linearGradient>
<linearGradient id="paint41_linear_998_4063" x1="167.22" y1="280.165" x2="170.673" y2="285.715" gradientUnits="userSpaceOnUse">
<stop stop-color="#858585"/>
<stop offset="1" stop-color="#D9D9D9"/>
</linearGradient>
<linearGradient id="paint42_linear_998_4063" x1="153.74" y1="284.927" x2="151.822" y2="291.163" gradientUnits="userSpaceOnUse">
<stop stop-color="#858585"/>
<stop offset="1" stop-color="#D9D9D9"/>
</linearGradient>
<linearGradient id="paint43_linear_998_4063" x1="152.868" y1="262.322" x2="173.125" y2="295.636" gradientUnits="userSpaceOnUse">
<stop stop-color="#636363"/>
<stop offset="1"/>
</linearGradient>
<linearGradient id="paint44_linear_998_4063" x1="158.47" y1="256.477" x2="171.786" y2="284.295" gradientUnits="userSpaceOnUse">
<stop stop-color="#858585"/>
<stop offset="1" stop-color="#D9D9D9"/>
</linearGradient>
<linearGradient id="paint45_linear_998_4063" x1="163.927" y1="253.848" x2="177.283" y2="281.697" gradientUnits="userSpaceOnUse">
<stop stop-color="#858585"/>
<stop offset="1" stop-color="#D9D9D9"/>
</linearGradient>
<linearGradient id="paint46_linear_998_4063" x1="141.092" y1="264.801" x2="154.42" y2="292.631" gradientUnits="userSpaceOnUse">
<stop stop-color="#858585"/>
<stop offset="1" stop-color="#D9D9D9"/>
</linearGradient>
<linearGradient id="paint47_linear_998_4063" x1="145.441" y1="262.728" x2="158.757" y2="290.544" gradientUnits="userSpaceOnUse">
<stop stop-color="#858585"/>
<stop offset="1" stop-color="#D9D9D9"/>
</linearGradient>
<linearGradient id="paint48_linear_998_4063" x1="150.203" y1="260.441" x2="163.532" y2="288.264" gradientUnits="userSpaceOnUse">
<stop stop-color="#858585"/>
<stop offset="1" stop-color="#D9D9D9"/>
</linearGradient>
<linearGradient id="paint49_linear_998_4063" x1="143.795" y1="263.448" x2="157.154" y2="291.313" gradientUnits="userSpaceOnUse">
<stop stop-color="#858585"/>
<stop offset="1" stop-color="#D9D9D9"/>
</linearGradient>
<linearGradient id="paint50_linear_998_4063" x1="165.667" y1="253.041" x2="178.985" y2="280.862" gradientUnits="userSpaceOnUse">
<stop stop-color="#858585"/>
<stop offset="1" stop-color="#D9D9D9"/>
</linearGradient>
<linearGradient id="paint51_linear_998_4063" x1="162.668" y1="254.474" x2="175.986" y2="282.295" gradientUnits="userSpaceOnUse">
<stop stop-color="#858585"/>
<stop offset="1" stop-color="#D9D9D9"/>
</linearGradient>
<linearGradient id="paint52_linear_998_4063" x1="153.32" y1="258.936" x2="166.661" y2="286.772" gradientUnits="userSpaceOnUse">
<stop stop-color="#858585"/>
<stop offset="1" stop-color="#D9D9D9"/>
</linearGradient>
<linearGradient id="paint53_linear_998_4063" x1="160.328" y1="255.573" x2="173.688" y2="283.438" gradientUnits="userSpaceOnUse">
<stop stop-color="#858585"/>
<stop offset="1" stop-color="#D9D9D9"/>
</linearGradient>
<linearGradient id="paint54_linear_998_4063" x1="140.441" y1="265.122" x2="153.766" y2="292.935" gradientUnits="userSpaceOnUse">
<stop stop-color="#858585"/>
<stop offset="1" stop-color="#D9D9D9"/>
</linearGradient>
<linearGradient id="paint55_linear_998_4063" x1="141.971" y1="264.385" x2="155.289" y2="292.205" gradientUnits="userSpaceOnUse">
<stop stop-color="#858585"/>
<stop offset="1" stop-color="#D9D9D9"/>
</linearGradient>
<linearGradient id="paint56_linear_998_4063" x1="148.129" y1="261.398" x2="161.464" y2="289.238" gradientUnits="userSpaceOnUse">
<stop stop-color="#858585"/>
<stop offset="1" stop-color="#D9D9D9"/>
</linearGradient>
<linearGradient id="paint57_linear_998_4063" x1="155.478" y1="257.907" x2="168.813" y2="285.748" gradientUnits="userSpaceOnUse">
<stop stop-color="#858585"/>
<stop offset="1" stop-color="#D9D9D9"/>
</linearGradient>
<linearGradient id="paint58_linear_998_4063" x1="165.212" y1="253.253" x2="178.537" y2="281.066" gradientUnits="userSpaceOnUse">
<stop stop-color="#858585"/>
<stop offset="1" stop-color="#D9D9D9"/>
</linearGradient>
<linearGradient id="paint59_linear_998_4063" x1="158.472" y1="267.218" x2="163.849" y2="284.411" gradientUnits="userSpaceOnUse">
<stop stop-color="#858585"/>
<stop offset="1" stop-color="#D9D9D9"/>
</linearGradient>
<linearGradient id="paint60_linear_998_4063" x1="530.554" y1="379.29" x2="463.78" y2="403.79" gradientUnits="userSpaceOnUse">
<stop/>
<stop offset="1" stop-color="#696969"/>
</linearGradient>
<linearGradient id="paint61_linear_998_4063" x1="476.469" y1="417.973" x2="470.628" y2="404.035" gradientUnits="userSpaceOnUse">
<stop stop-color="#D9D9D9"/>
<stop offset="1" stop-color="white"/>
</linearGradient>
<linearGradient id="paint62_linear_998_4063" x1="536.32" y1="377.644" x2="520.576" y2="365.459" gradientUnits="userSpaceOnUse">
<stop stop-color="#D9D9D9"/>
<stop offset="1" stop-color="white"/>
</linearGradient>
<linearGradient id="paint63_linear_998_4063" x1="514.696" y1="407.015" x2="503.373" y2="388.05" gradientUnits="userSpaceOnUse">
<stop stop-color="#D9D9D9"/>
<stop offset="1" stop-color="white"/>
</linearGradient>
<linearGradient id="paint64_linear_998_4063" x1="467.532" y1="326.952" x2="504.233" y2="412.853" gradientUnits="userSpaceOnUse">
<stop stop-color="#636363"/>
<stop offset="1"/>
</linearGradient>
<linearGradient id="paint65_linear_998_4063" x1="479.224" y1="371.364" x2="469.517" y2="362.603" gradientUnits="userSpaceOnUse">
<stop stop-color="#858585"/>
<stop offset="1" stop-color="#D9D9D9"/>
</linearGradient>
<linearGradient id="paint66_linear_998_4063" x1="503.546" y1="364.998" x2="509.765" y2="352.678" gradientUnits="userSpaceOnUse">
<stop stop-color="#858585"/>
<stop offset="1" stop-color="#D9D9D9"/>
</linearGradient>
<linearGradient id="paint67_linear_998_4063" x1="463.333" y1="391.448" x2="449.015" y2="393.364" gradientUnits="userSpaceOnUse">
<stop stop-color="#858585"/>
<stop offset="1" stop-color="#D9D9D9"/>
</linearGradient>
<linearGradient id="paint68_linear_998_4063" x1="508.423" y1="371.595" x2="529.942" y2="367.558" gradientUnits="userSpaceOnUse">
<stop stop-color="#858585"/>
<stop offset="1" stop-color="#D9D9D9"/>
</linearGradient>
<linearGradient id="paint69_linear_998_4063" x1="503.023" y1="389.207" x2="510.207" y2="400.751" gradientUnits="userSpaceOnUse">
<stop stop-color="#858585"/>
<stop offset="1" stop-color="#D9D9D9"/>
</linearGradient>
<linearGradient id="paint70_linear_998_4063" x1="474.979" y1="399.109" x2="470.988" y2="412.082" gradientUnits="userSpaceOnUse">
<stop stop-color="#858585"/>
<stop offset="1" stop-color="#D9D9D9"/>
</linearGradient>
<linearGradient id="paint71_linear_998_4063" x1="473.166" y1="352.079" x2="515.303" y2="421.379" gradientUnits="userSpaceOnUse">
<stop stop-color="#636363"/>
<stop offset="1"/>
</linearGradient>
<linearGradient id="paint72_linear_998_4063" x1="484.818" y1="339.922" x2="512.519" y2="397.789" gradientUnits="userSpaceOnUse">
<stop stop-color="#858585"/>
<stop offset="1" stop-color="#D9D9D9"/>
</linearGradient>
<linearGradient id="paint73_linear_998_4063" x1="496.176" y1="334.5" x2="523.9" y2="392.369" gradientUnits="userSpaceOnUse">
<stop stop-color="#858585"/>
<stop offset="1" stop-color="#D9D9D9"/>
</linearGradient>
<linearGradient id="paint74_linear_998_4063" x1="448.673" y1="357.261" x2="476.374" y2="415.128" gradientUnits="userSpaceOnUse">
<stop stop-color="#858585"/>
<stop offset="1" stop-color="#D9D9D9"/>
</linearGradient>
<linearGradient id="paint75_linear_998_4063" x1="457.713" y1="352.938" x2="485.412" y2="410.802" gradientUnits="userSpaceOnUse">
<stop stop-color="#858585"/>
<stop offset="1" stop-color="#D9D9D9"/>
</linearGradient>
<linearGradient id="paint76_linear_998_4063" x1="467.62" y1="348.172" x2="495.345" y2="406.05" gradientUnits="userSpaceOnUse">
<stop stop-color="#858585"/>
<stop offset="1" stop-color="#D9D9D9"/>
</linearGradient>
<linearGradient id="paint77_linear_998_4063" x1="454.294" y1="354.479" x2="482.043" y2="412.402" gradientUnits="userSpaceOnUse">
<stop stop-color="#858585"/>
<stop offset="1" stop-color="#D9D9D9"/>
</linearGradient>
<linearGradient id="paint78_linear_998_4063" x1="499.787" y1="332.775" x2="527.491" y2="390.649" gradientUnits="userSpaceOnUse">
<stop stop-color="#858585"/>
<stop offset="1" stop-color="#D9D9D9"/>
</linearGradient>
<linearGradient id="paint79_linear_998_4063" x1="493.551" y1="335.763" x2="521.256" y2="393.637" gradientUnits="userSpaceOnUse">
<stop stop-color="#858585"/>
<stop offset="1" stop-color="#D9D9D9"/>
</linearGradient>
<linearGradient id="paint80_linear_998_4063" x1="474.108" y1="345.071" x2="501.838" y2="402.954" gradientUnits="userSpaceOnUse">
<stop stop-color="#858585"/>
<stop offset="1" stop-color="#D9D9D9"/>
</linearGradient>
<linearGradient id="paint81_linear_998_4063" x1="488.683" y1="338.068" x2="516.434" y2="395.992" gradientUnits="userSpaceOnUse">
<stop stop-color="#858585"/>
<stop offset="1" stop-color="#D9D9D9"/>
</linearGradient>
<linearGradient id="paint82_linear_998_4063" x1="447.315" y1="357.913" x2="475.033" y2="415.771" gradientUnits="userSpaceOnUse">
<stop stop-color="#858585"/>
<stop offset="1" stop-color="#D9D9D9"/>
</linearGradient>
<linearGradient id="paint83_linear_998_4063" x1="450.493" y1="356.373" x2="478.197" y2="414.244" gradientUnits="userSpaceOnUse">
<stop stop-color="#858585"/>
<stop offset="1" stop-color="#D9D9D9"/>
</linearGradient>
<linearGradient id="paint84_linear_998_4063" x1="463.303" y1="350.163" x2="491.049" y2="408.084" gradientUnits="userSpaceOnUse">
<stop stop-color="#858585"/>
<stop offset="1" stop-color="#D9D9D9"/>
</linearGradient>
<linearGradient id="paint85_linear_998_4063" x1="478.592" y1="342.906" x2="506.312" y2="400.799" gradientUnits="userSpaceOnUse">
<stop stop-color="#858585"/>
<stop offset="1" stop-color="#D9D9D9"/>
</linearGradient>
<linearGradient id="paint86_linear_998_4063" x1="498.841" y1="333.22" x2="526.559" y2="391.078" gradientUnits="userSpaceOnUse">
<stop stop-color="#858585"/>
<stop offset="1" stop-color="#D9D9D9"/>
</linearGradient>
<linearGradient id="paint87_linear_998_4063" x1="484.817" y1="362.273" x2="496.004" y2="398.04" gradientUnits="userSpaceOnUse">
<stop stop-color="#858585"/>
<stop offset="1" stop-color="#D9D9D9"/>
</linearGradient>
</defs>
</svg>
