<svg width="89" height="56" viewBox="0 0 89 56" fill="none" xmlns="http://www.w3.org/2000/svg">
<path d="M27.1324 33.0061H27.4132L27.1502 34.1458C27.1101 34.3132 27.119 34.4435 27.1725 34.5272C27.226 34.6109 27.324 34.6528 27.4711 34.6528C27.6137 34.6528 27.734 34.6109 27.8276 34.5272C27.9212 34.4435 27.9836 34.3132 28.0237 34.1458L28.2866 33.0061H28.5718L28.3045 34.1737C28.2465 34.4249 28.144 34.6156 27.9925 34.7412C27.8454 34.8668 27.6494 34.9319 27.4087 34.9319C27.1681 34.9319 27.0032 34.8714 26.914 34.7458C26.8249 34.6202 26.8071 34.4295 26.865 34.1783L27.1324 33.0061ZM28.5317 34.8807L28.9774 32.9316L29.8241 34.076C29.8464 34.1085 29.8687 34.1411 29.891 34.1783C29.9132 34.2155 29.9355 34.2574 29.9623 34.3039L30.2608 33.0061H30.5238L30.0781 34.9505L29.2136 33.7829L29.1467 33.6852C29.1245 33.648 29.1066 33.6155 29.0933 33.5736L28.7947 34.8761H28.5317V34.8807ZM30.5015 34.8807L30.9293 33.0061H31.2145L30.7867 34.8807H30.5015ZM31.1923 34.8807L31.6201 33.0061H32.596L32.5381 33.2666H31.8474L31.7404 33.7318H32.4311L32.3688 33.9969H31.678L31.4775 34.8761H31.1923V34.8807ZM32.4846 34.8807L32.9124 33.0061H33.1977L32.7698 34.8807H32.4846ZM33.1754 34.8807L33.6032 33.0061H34.5792L34.5212 33.2666H33.8305L33.7235 33.7364H34.4143L34.3519 34.0016H33.6611L33.523 34.6063H34.2137L34.1513 34.8807H33.1754ZM34.4811 34.8807L34.9089 33.0061H35.2922C35.5418 33.0061 35.7156 33.02 35.8091 33.0479C35.9027 33.0758 35.983 33.1177 36.0453 33.1828C36.1256 33.2666 36.179 33.3736 36.2013 33.4992C36.2236 33.6294 36.2147 33.7783 36.179 33.9411C36.1389 34.1085 36.081 34.2528 36.0008 34.383C35.9206 34.5133 35.8181 34.6156 35.6977 34.6993C35.6086 34.7645 35.5106 34.8063 35.4036 34.8342C35.3011 34.8621 35.1451 34.8761 34.9401 34.8761H34.4811V34.8807ZM34.8287 34.6016H35.0694C35.1986 34.6016 35.3011 34.5923 35.3724 34.5737C35.4437 34.5551 35.5061 34.5226 35.564 34.4807C35.6443 34.4202 35.7111 34.3458 35.7646 34.2528C35.8181 34.1644 35.8582 34.0574 35.8849 33.9364C35.9116 33.8155 35.9206 33.7131 35.9072 33.6248C35.8938 33.5364 35.8626 33.4573 35.8091 33.3968C35.769 33.3503 35.72 33.3224 35.6532 33.3038C35.5863 33.2852 35.4838 33.2759 35.3368 33.2759H35.1318L34.8287 34.6016ZM37.4892 34.0388L37.2976 34.8807H37.0302L37.458 33.0061H37.8903C38.0196 33.0061 38.1087 33.0154 38.1666 33.0293C38.2246 33.0433 38.2691 33.0665 38.3048 33.1038C38.3493 33.1456 38.3805 33.2061 38.3939 33.2805C38.4073 33.355 38.4028 33.434 38.385 33.5224C38.3627 33.6108 38.3315 33.6945 38.2825 33.769C38.2335 33.8434 38.1755 33.9039 38.1131 33.9457C38.0597 33.9783 38.0017 34.0062 37.9393 34.0202C37.8769 34.0341 37.7789 34.0434 37.6541 34.0434H37.4892V34.0388ZM37.565 33.7876H37.6363C37.7923 33.7876 37.9037 33.769 37.9661 33.7318C38.0285 33.6945 38.0686 33.6294 38.0909 33.5364C38.1131 33.4387 38.0998 33.3643 38.0552 33.327C38.0062 33.2852 37.9081 33.2666 37.7611 33.2666H37.6898L37.565 33.7876ZM39.352 34.8807L39.2629 34.397H38.5677L38.2557 34.8807H37.9572L39.2495 32.9316L39.6506 34.8807H39.352ZM38.737 34.1411H39.2228L39.1426 33.7131C39.1381 33.6852 39.1337 33.6527 39.1337 33.6201C39.1292 33.5829 39.1292 33.5457 39.1292 33.5038C39.1114 33.5457 39.0936 33.5829 39.0713 33.6201C39.0535 33.6573 39.0356 33.6899 39.0178 33.7178L38.737 34.1411ZM40.0606 34.8807L40.2567 34.0248L39.9002 33.0107H40.1988L40.4216 33.648C40.426 33.6666 40.4305 33.6852 40.4394 33.7131C40.4483 33.7411 40.4528 33.769 40.4617 33.7969L40.5152 33.7131C40.533 33.6852 40.5508 33.662 40.5687 33.6387L41.0901 33.0107H41.3753L40.5419 34.0202L40.3458 34.8761H40.0606V34.8807ZM42.7746 33.955C42.7746 33.9411 42.7791 33.8992 42.788 33.8341C42.7924 33.7783 42.7969 33.7364 42.8013 33.6992C42.7835 33.7411 42.7657 33.7829 42.7434 33.8294C42.7211 33.8713 42.6944 33.9178 42.6632 33.9597L41.9769 34.9598L41.7541 33.9411C41.7452 33.8992 41.7362 33.8574 41.7318 33.8201C41.7273 33.7829 41.7229 33.7411 41.7229 33.7038C41.714 33.7411 41.7006 33.7829 41.6872 33.8294C41.6739 33.8713 41.656 33.9178 41.6337 33.9643L41.2327 34.8854H40.9697L41.8298 32.9316L42.0749 34.1132C42.0794 34.1318 42.0839 34.1644 42.0883 34.2062C42.0928 34.2481 42.1017 34.3039 42.1106 34.369C42.1418 34.3132 42.1819 34.2481 42.2354 34.1644C42.2487 34.1411 42.2621 34.1272 42.2666 34.1132L43.042 32.9316L43.0153 34.8854H42.7523L42.7746 33.955ZM43.247 34.8807L43.6748 33.0061H44.6508L44.5928 33.2666H43.9021L43.7951 33.7364H44.4859L44.4235 34.0016H43.7327L43.5946 34.6063H44.2853L44.223 34.8807H43.247ZM44.5483 34.8807L44.9939 32.9316L45.8407 34.076C45.8629 34.1085 45.8852 34.1411 45.9075 34.1783C45.9298 34.2155 45.9521 34.2574 45.9788 34.3039L46.2774 33.0061H46.5403L46.0947 34.9505L45.2301 33.7829L45.1633 33.6852C45.141 33.648 45.1232 33.6155 45.1098 33.5736L44.8112 34.8761H44.5483V34.8807ZM47.4494 33.2619L47.0795 34.8761H46.7943L47.1642 33.2619H46.7007L46.7587 33.0014H47.9708L47.9129 33.2619H47.4494ZM47.748 34.504L48.002 34.3923C48.0065 34.476 48.0288 34.5412 48.0778 34.583C48.1268 34.6249 48.1937 34.6482 48.2828 34.6482C48.3675 34.6482 48.4388 34.6249 48.5012 34.5737C48.5636 34.5226 48.6037 34.4574 48.6215 34.3737C48.6482 34.2621 48.5858 34.1644 48.4343 34.0806C48.412 34.0667 48.3987 34.0574 48.3853 34.0527C48.2159 33.9504 48.109 33.862 48.0644 33.7783C48.0199 33.6945 48.011 33.5968 48.0377 33.4806C48.0733 33.327 48.1491 33.2061 48.2694 33.1084C48.3897 33.0154 48.5234 32.9642 48.6839 32.9642C48.8131 32.9642 48.9156 32.9921 48.9914 33.0433C49.0671 33.0945 49.1072 33.1735 49.1206 33.2712L48.871 33.3922C48.8488 33.3317 48.822 33.2898 48.7864 33.2619C48.7507 33.234 48.7062 33.2201 48.6527 33.2201C48.5769 33.2201 48.5101 33.2433 48.4566 33.2852C48.4031 33.327 48.3675 33.3829 48.3496 33.4573C48.3229 33.5689 48.3987 33.6759 48.5725 33.7736C48.5858 33.7829 48.5947 33.7876 48.6037 33.7922C48.7552 33.876 48.8577 33.9597 48.9022 34.0434C48.9468 34.1272 48.9557 34.2248 48.929 34.3504C48.8889 34.5272 48.8042 34.6668 48.675 34.7738C48.5457 34.8761 48.3942 34.9319 48.2159 34.9319C48.0689 34.9319 47.953 34.8947 47.8728 34.8203C47.7837 34.7458 47.7436 34.6389 47.748 34.504ZM49.847 34.8807L50.2748 33.0061H50.56L50.1322 34.8807H49.847ZM50.5422 34.8807L50.9879 32.9316L51.8346 34.076C51.8569 34.1085 51.8792 34.1411 51.9014 34.1783C51.9237 34.2155 51.946 34.2574 51.9727 34.3039L52.2713 33.0061H52.5343L52.0886 34.9505L51.2241 33.7829L51.1572 33.6852C51.1349 33.648 51.1171 33.6155 51.1037 33.5736L50.8052 34.8761H50.5422V34.8807ZM53.4434 33.2619L53.0735 34.8761H52.7883L53.1582 33.2619H52.6947L52.7526 33.0014H53.9648L53.9069 33.2619H53.4434ZM53.7509 34.8807L54.1787 33.0061H55.1591L55.1012 33.2666H54.4104L54.3035 33.7364H54.9942L54.9318 34.0016H54.2411L54.1029 34.6063H54.7937L54.7313 34.8807H53.7509ZM55.5112 34.0388L55.3196 34.8761H55.0522L55.48 33.0014H55.8766C55.9925 33.0014 56.0816 33.0107 56.1395 33.0247C56.2019 33.0386 56.251 33.0665 56.2866 33.1038C56.3312 33.1503 56.3579 33.2061 56.3713 33.2805C56.3846 33.3503 56.3802 33.4294 56.3624 33.5178C56.3267 33.6666 56.2688 33.7876 56.1797 33.8713C56.0905 33.955 55.9791 34.0062 55.8454 34.0248L56.251 34.8761H55.9301L55.5424 34.0388H55.5112ZM55.5825 33.8015H55.636C55.7875 33.8015 55.89 33.7829 55.9479 33.7457C56.0058 33.7085 56.046 33.6434 56.0682 33.5457C56.0905 33.4433 56.0816 33.3689 56.037 33.327C55.9925 33.2852 55.8989 33.2619 55.7563 33.2619H55.7028L55.5825 33.8015ZM56.4248 34.8807L56.8526 33.0061H57.8285L57.7706 33.2666H57.0799L56.9729 33.7318H57.6637L57.6013 33.9969H56.9105L56.71 34.8761H56.4248V34.8807ZM58.7778 34.8807L58.6886 34.397H57.9934L57.6815 34.8807H57.3829L58.6753 32.9316L59.0764 34.8807H58.7778ZM58.1583 34.1411H58.6441L58.5639 33.7131C58.5594 33.6852 58.5549 33.6527 58.5549 33.6201C58.5505 33.5829 58.5505 33.5457 58.5505 33.5038C58.5327 33.5457 58.5148 33.5829 58.4926 33.6201C58.4747 33.6573 58.4569 33.6899 58.4391 33.7178L58.1583 34.1411ZM60.9302 33.4619C60.8679 33.3875 60.7921 33.3317 60.7119 33.2991C60.6317 33.2619 60.5425 33.2433 60.44 33.2433C60.2484 33.2433 60.0791 33.3084 59.9275 33.4387C59.776 33.5689 59.678 33.7411 59.629 33.9504C59.5844 34.1504 59.6022 34.3179 59.6913 34.4528C59.776 34.583 59.9097 34.6482 60.088 34.6482C60.1905 34.6482 60.293 34.6296 60.3955 34.5877C60.498 34.5505 60.6005 34.49 60.7074 34.4109L60.6272 34.7551C60.5381 34.8156 60.4445 34.8575 60.3464 34.8854C60.2484 34.9133 60.1504 34.9273 60.0434 34.9273C59.9097 34.9273 59.7894 34.904 59.6869 34.8575C59.5844 34.811 59.4997 34.7412 59.4329 34.6482C59.366 34.5598 59.3259 34.4528 59.3081 34.3318C59.2903 34.2109 59.2947 34.0806 59.3304 33.9411C59.3616 33.8015 59.415 33.6759 59.4863 33.555C59.5577 33.434 59.6512 33.327 59.7582 33.2387C59.8651 33.1456 59.981 33.0758 60.1058 33.0293C60.2306 32.9828 60.3554 32.9596 60.4846 32.9596C60.5871 32.9596 60.6807 32.9735 60.7698 33.0061C60.8545 33.0386 60.9347 33.0851 61.006 33.1503L60.9302 33.4619ZM60.957 34.8807L61.3848 33.0061H62.3608L62.3028 33.2666H61.6121L61.5051 33.7364H62.1959L62.1335 34.0016H61.4427L61.3046 34.6063H61.9953L61.9329 34.8807H60.957Z" fill="black"/>
<path d="M55.766 31.3749H53.8097L56.5281 21.127H58.4845L55.766 31.3749ZM54.75 21.4479C54.6163 21.2526 54.4068 21.1549 54.1216 21.1549H43.3726L42.8423 23.1644H52.6198L52.0494 25.3089H44.2283V25.3043H42.2719L40.6497 31.4214H42.6061L43.6935 27.3185H52.4861C52.7624 27.3185 53.0209 27.2208 53.2615 27.0254C53.5022 26.8301 53.6626 26.5882 53.7384 26.2998L54.8257 22.1969C54.9104 21.8898 54.8837 21.6433 54.75 21.4479ZM39.5089 30.7329C39.4019 31.1376 39.0454 31.4214 38.6443 31.4214H28.5593C28.283 31.4214 28.078 31.3237 27.9443 31.1283C27.8106 30.933 27.7794 30.6911 27.8597 30.4027L30.3196 21.1549H32.276L30.079 29.4165H37.9045L40.1016 21.1549H42.058L39.5089 30.7329Z" fill="black"/>
<path d="M61.8597 21.1484L64.333 26.284L59.1323 31.4196L61.8597 21.1484Z" fill="#098041"/>
<path d="M60.1298 21.1484L62.6031 26.284L57.3979 31.4196L60.1298 21.1484Z" fill="#E97626"/>
<rect x="1.17948" y="0.449499" width="87.101" height="55.101" rx="21.1264" stroke="#F2BC11" stroke-opacity="0.4" stroke-width="0.898997"/>
</svg>
