<svg width="99" height="56" viewBox="0 0 99 56" fill="none" xmlns="http://www.w3.org/2000/svg">
<path d="M29.8715 28.3228L28.1172 19.7783C27.9941 19.2799 27.6933 18.8446 27.2721 18.5553C26.851 18.266 26.3389 18.1429 25.8335 18.2095H17.7161L17.6538 18.6174C23.9651 20.1443 28.138 23.8466 29.8715 28.3228ZM35.7675 18.3978L30.6396 31.5858L30.1102 29.5987C28.4393 26.3241 25.9308 23.5585 22.844 21.5876L27.5255 37.704H33.0583L41.3003 18.3978H35.7675ZM43.4282 18.3978L40.1584 37.7458H45.3486L48.6288 18.3978H43.4282ZM77.7768 18.3978H73.7077C73.1385 18.323 72.5607 18.4406 72.0648 18.732C71.5689 19.0234 71.183 19.4723 70.9673 20.0083L63.234 37.7249H68.7252C68.7252 37.7249 69.6179 35.3404 69.8255 34.8175H76.5208C76.6765 35.4868 77.154 37.704 77.154 37.704H82.012L77.7768 18.3978ZM71.3306 30.8642C71.7666 29.7556 73.4067 25.4572 73.4067 25.4572C73.4067 25.4572 73.8427 24.3486 74.1022 23.6165L74.4655 25.2794L75.6696 30.8642H71.3306ZM59.1752 26.1474C57.3587 25.2585 56.2376 24.6519 56.248 23.7525C56.2584 22.853 57.1926 22.0896 59.2375 22.0896C60.5796 22.0535 61.9138 22.3066 63.1509 22.8321L63.6284 23.0517L64.3343 18.8684C62.8339 18.3208 61.2484 18.0481 59.6527 18.0631C54.4626 18.0631 50.8398 20.6777 50.8087 24.4427C50.8087 27.2142 53.4038 28.7725 55.3864 29.6719C57.369 30.5713 58.1372 31.2302 58.1372 32.0773C58.1372 33.3742 56.5075 33.9703 55.0231 33.9703C53.3248 34.0098 51.6405 33.6518 50.1028 32.9245L49.4281 32.6107L48.6911 36.9405C50.5569 37.6415 52.5335 37.9958 54.5248 37.9863C60.016 37.9863 63.5869 35.3927 63.6284 31.3766C63.618 29.2013 62.2271 27.5279 59.1752 26.1474Z" fill="#273991"/>
<path d="M28.1172 19.7778C27.9941 19.2795 27.6933 18.8442 27.2721 18.5549C26.851 18.2656 26.3389 18.1425 25.8335 18.2091H17.7161L17.6538 18.6169C23.9651 20.1543 28.138 23.8461 29.8715 28.3328L28.1172 19.7778Z" fill="#F99F1B"/>
<rect x="1.46283" y="0.732848" width="96.5343" height="54.5343" rx="20.8271" stroke="#F2BC11" stroke-opacity="0.4" stroke-width="1.4657"/>
</svg>
